<svg width="18" height="16" viewBox="0 0 18 16" fill="none" xmlns="http://www.w3.org/2000/svg">
<path d="M17.3827 8.88281L11.1327 15.1328C10.8906 15.3789 10.5702 15.5 10.2499 15.5C9.92962 15.5 9.61008 15.3779 9.36633 15.1338C8.87805 14.6455 8.87805 13.8545 9.36633 13.3662L13.4843 9.25H1.49994C0.809703 9.25 0.25 8.6914 0.25 8C0.25 7.30859 0.809703 6.75 1.49994 6.75H13.4843L9.36712 2.63281C8.87883 2.14453 8.87883 1.35352 9.36712 0.865234C9.8554 0.376953 10.6464 0.376953 11.1347 0.865234L17.3847 7.11523C17.871 7.60547 17.871 8.39453 17.3827 8.88281Z" fill="#AAAAAA"/>
</svg>
