<svg width="19" height="18" viewBox="0 0 19 18" fill="none" xmlns="http://www.w3.org/2000/svg">
<g clip-path="url(#clip0_267_590)">
<path d="M1.625 6.1875H14.6609L12.6437 8.20477C12.2042 8.64422 12.2042 9.35613 12.6437 9.79559C12.8609 10.016 13.1492 10.125 13.4375 10.125C13.7258 10.125 14.0134 10.0151 14.2327 9.79541L18.1702 5.85791C18.6097 5.41846 18.6097 4.70654 18.1702 4.26709L14.2327 0.32959C13.7933 -0.109863 13.0814 -0.109863 12.6419 0.32959C12.2025 0.769043 12.2025 1.48096 12.6419 1.92041L14.6609 3.9375H1.625C1.00309 3.9375 0.5 4.44059 0.5 5.0625C0.5 5.68441 1.00309 6.1875 1.625 6.1875ZM17.375 11.8125H4.34258L6.35984 9.79523C6.7993 9.35578 6.7993 8.64387 6.35984 8.20441C5.92039 7.76496 5.20848 7.76496 4.76902 8.20441L0.831523 12.1419C0.39207 12.5814 0.39207 13.2933 0.831523 13.7327L4.76902 17.6702C4.98594 17.891 5.27422 18 5.5625 18C5.85078 18 6.13836 17.8901 6.35773 17.6704C6.79719 17.231 6.79719 16.519 6.35773 16.0796L4.34258 14.0625H17.375C17.9969 14.0625 18.5 13.5594 18.5 12.9375C18.5 12.3156 17.9973 11.8125 17.375 11.8125Z" fill="white"/>
</g>
<defs>
<clipPath id="clip0_267_590">
<rect width="18" height="18" fill="white" transform="translate(0.5)"/>
</clipPath>
</defs>
</svg>
