<svg width="22" height="18" viewBox="0 0 22 18" fill="none" xmlns="http://www.w3.org/2000/svg">
<path d="M21.4578 9C21.4578 9.82969 20.8297 10.5 20 10.5H5.62345L10.5641 15.4406C11.15 16.0266 11.15 16.9758 10.5641 17.5617C10.2688 17.8547 9.88438 18 9.50001 18C9.11563 18 8.7322 17.8535 8.4397 17.5605L0.939697 10.0605C0.35376 9.47461 0.35376 8.52539 0.939697 7.93945L8.4397 0.439453C9.02563 -0.146484 9.97485 -0.146484 10.5608 0.439453C11.1467 1.02539 11.1467 1.97461 10.5608 2.56055L5.62345 7.5H20C20.8297 7.5 21.4578 8.17031 21.4578 9Z" fill="#AAAAAA"/>
</svg>
