<svg width="25" height="24" viewBox="0 0 25 24" fill="none" xmlns="http://www.w3.org/2000/svg">
<path d="M12.5 24C5.87188 24 0.5 18.6281 0.5 12C0.5 5.37188 5.87188 0 12.5 0C19.1281 0 24.5 5.37188 24.5 12C24.5 18.6281 19.1281 24 12.5 24ZM11.375 12C11.375 12.375 11.5625 12.7266 11.8766 12.8953L16.3766 15.8953C16.8922 16.2797 17.5906 16.1391 17.8953 15.6234C18.2797 15.1078 18.1391 14.4094 17.6234 14.0625L13.625 11.4V5.625C13.625 5.00156 13.1234 4.5 12.4578 4.5C11.8766 4.5 11.3328 5.00156 11.3328 5.625L11.375 12Z" fill="#AAAAAA"/>
</svg>
