<svg  xmlns="http://www.w3.org/2000/svg" viewBox="0 0 30 30" ><path d="M25.4,5.5c-1.9-0.9-4-1.5-6.1-1.9c0,0-0.1,0-0.1,0c-0.3,0.5-0.6,1.1-0.8,1.6c-2.3-0.3-4.6-0.3-6.9,0 c-0.2-0.5-0.5-1.1-0.8-1.6c0,0-0.1-0.1-0.1,0c-2.1,0.4-4.2,1-6.1,1.9c0,0,0,0,0,0c-3.9,5.8-5,11.5-4.4,17.1c0,0,0,0.1,0,0.1 c2.6,1.9,5.1,3,7.5,3.8c0,0,0.1,0,0.1,0c0.6-0.8,1.1-1.6,1.5-2.5c0-0.1,0-0.1-0.1-0.1c-0.8-0.3-1.6-0.7-2.3-1.1 c-0.1,0-0.1-0.1,0-0.2c0.2-0.1,0.3-0.2,0.5-0.4c0,0,0.1,0,0.1,0c4.9,2.2,10.2,2.2,15.1,0c0,0,0.1,0,0.1,0c0.2,0.1,0.3,0.2,0.5,0.4 c0.1,0,0.1,0.1,0,0.2c-0.7,0.4-1.5,0.8-2.3,1.1c-0.1,0-0.1,0.1-0.1,0.1c0.5,0.9,1,1.7,1.5,2.5c0,0,0.1,0,0.1,0 c2.5-0.8,4.9-1.9,7.5-3.8c0,0,0,0,0-0.1C30.5,16.1,28.8,10.5,25.4,5.5C25.4,5.5,25.4,5.5,25.4,5.5z M10,19.2c-1.5,0-2.7-1.4-2.7-3 c0-1.7,1.2-3,2.7-3c1.5,0,2.7,1.4,2.7,3C12.7,17.8,11.5,19.2,10,19.2z M20,19.2c-1.5,0-2.7-1.4-2.7-3c0-1.7,1.2-3,2.7-3 c1.5,0,2.7,1.4,2.7,3C22.7,17.8,21.5,19.2,20,19.2z" fill="#8a8a8a"></path></svg>