<svg width="23" height="24" viewBox="0 0 23 24" fill="none" xmlns="http://www.w3.org/2000/svg">
<path d="M22.7453 7.80938C22.9 8.2125 22.7688 8.66719 22.45 8.9625L20.4203 10.8094C20.4719 11.1984 20.5 11.5969 20.5 12C20.5 12.4031 20.4719 12.8016 20.4203 13.1906L22.45 15.0375C22.7688 15.3328 22.9 15.7875 22.7453 16.1906C22.5391 16.7484 22.2906 17.2875 22.0094 17.7984L21.7891 18.1781C21.4797 18.6937 21.1328 19.1813 20.7531 19.6453C20.4719 19.9781 20.0172 20.0953 19.6047 19.9641L16.9938 19.1297C16.3656 19.6125 15.6297 20.0156 14.9313 20.325L14.3453 23.0016C14.2516 23.4234 13.9234 23.7234 13.4922 23.8359C12.8453 23.9437 12.1797 24 11.4578 24C10.8203 24 10.1547 23.9437 9.50782 23.8359C9.07657 23.7234 8.74844 23.4234 8.65469 23.0016L8.06875 20.325C7.32813 20.0156 6.63438 19.6125 6.00625 19.1297L3.39719 19.9641C2.98281 20.0953 2.52578 19.9781 2.24828 19.6453C1.86812 19.1813 1.52125 18.6937 1.21187 18.1781L0.992496 17.7984C0.707965 17.2875 0.460464 16.7484 0.252808 16.1906C0.100933 15.7875 0.228902 15.3328 0.550465 15.0375L2.57828 13.1906C2.52672 12.8016 2.5 12.4031 2.5 12C2.5 11.5969 2.52672 11.1984 2.57828 10.8094L0.550465 8.9625C0.228902 8.66719 0.100933 8.21719 0.252808 7.80938C0.460464 7.25156 0.708433 6.7125 0.992496 6.20156L1.2114 5.82187C1.52125 5.30625 1.86812 4.81875 2.24828 4.35703C2.52578 4.02187 2.98281 3.90562 3.39719 4.03781L6.00625 4.87031C6.63438 4.38563 7.32813 3.9825 8.06875 3.67641L8.65469 0.999844C8.74844 0.574219 9.07657 0.23625 9.50782 0.164531C10.1547 0.0562969 10.8203 0 11.5 0C12.1797 0 12.8453 0.0562969 13.4922 0.164531C13.9234 0.23625 14.2516 0.574219 14.3453 0.999844L14.9313 3.67641C15.6297 3.9825 16.3656 4.38563 16.9938 4.87031L19.6047 4.03781C20.0172 3.90562 20.4719 4.02187 20.7531 4.35703C21.1328 4.81875 21.4797 5.30625 21.7891 5.82187L22.0094 6.20156C22.2906 6.7125 22.5391 7.25156 22.7453 7.80938ZM11.5 15.75C13.5719 15.75 15.25 14.0719 15.25 11.9578C15.25 9.92813 13.5719 8.20781 11.5 8.20781C9.42813 8.20781 7.75 9.92813 7.75 11.9578C7.75 14.0719 9.42813 15.75 11.5 15.75Z" fill="#FFF"/>
</svg>
