<svg width="23" height="24" viewBox="0 0 23 24" fill="none" xmlns="http://www.w3.org/2000/svg">
<path d="M22.7454 7.80938C22.9001 8.2125 22.7688 8.66719 22.4501 8.9625L20.4204 10.8094C20.4719 11.1984 20.5001 11.5969 20.5001 12C20.5001 12.4031 20.4719 12.8016 20.4204 13.1906L22.4501 15.0375C22.7688 15.3328 22.9001 15.7875 22.7454 16.1906C22.5391 16.7484 22.2907 17.2875 22.0095 17.7984L21.7891 18.1781C21.4798 18.6937 21.1329 19.1812 20.7532 19.6453C20.4719 19.9781 20.0173 20.0953 19.6048 19.9641L16.9938 19.1297C16.3657 19.6125 15.6298 20.0156 14.9313 20.325L14.3454 23.0016C14.2516 23.4234 13.9235 23.7234 13.4923 23.8359C12.8454 23.9438 12.1798 24 11.4579 24C10.8204 24 10.1548 23.9438 9.50788 23.8359C9.07663 23.7234 8.7485 23.4234 8.65475 23.0016L8.06881 20.325C7.32819 20.0156 6.63444 19.6125 6.00631 19.1297L3.39725 19.9641C2.98287 20.0953 2.52584 19.9781 2.24834 19.6453C1.86818 19.1812 1.52131 18.6937 1.21193 18.1781L0.992557 17.7984C0.708026 17.2875 0.460525 16.7484 0.252869 16.1906C0.100994 15.7875 0.228963 15.3328 0.550526 15.0375L2.57834 13.1906C2.52678 12.8016 2.50006 12.4031 2.50006 12C2.50006 11.5969 2.52678 11.1984 2.57834 10.8094L0.550526 8.9625C0.228963 8.66719 0.100994 8.21719 0.252869 7.80938C0.460525 7.25156 0.708494 6.7125 0.992557 6.20156L1.21146 5.82187C1.52131 5.30625 1.86818 4.81875 2.24834 4.35703C2.52584 4.02187 2.98287 3.90562 3.39725 4.03781L6.00631 4.87031C6.63444 4.38562 7.32819 3.9825 8.06881 3.67641L8.65475 0.999844C8.7485 0.574219 9.07663 0.23625 9.50788 0.164531C10.1548 0.0562969 10.8204 0 11.5001 0C12.1798 0 12.8454 0.0562969 13.4923 0.164531C13.9235 0.23625 14.2516 0.574219 14.3454 0.999844L14.9313 3.67641C15.6298 3.9825 16.3657 4.38562 16.9938 4.87031L19.6048 4.03781C20.0173 3.90562 20.4719 4.02187 20.7532 4.35703C21.1329 4.81875 21.4798 5.30625 21.7891 5.82187L22.0095 6.20156C22.2907 6.7125 22.5391 7.25156 22.7454 7.80938ZM11.5001 15.75C13.5719 15.75 15.2501 14.0719 15.2501 11.9578C15.2501 9.92813 13.5719 8.20781 11.5001 8.20781C9.42819 8.20781 7.75006 9.92813 7.75006 11.9578C7.75006 14.0719 9.42819 15.75 11.5001 15.75Z" fill="#AAAAAA"/>
</svg>
