<svg width="20" height="20" viewBox="0 0 20 20" fill="none" xmlns="http://www.w3.org/2000/svg">
<path d="M16.4727 8.60536L7.36328 17.7108L6.03906 16.3866L6.17578 16.2499H4.37499C4.03124 16.2499 3.74999 15.9686 3.74999 15.6249V13.8241L3.61367 13.9608C3.4289 14.1483 3.29335 14.3749 3.21952 14.6249L2.32187 17.6796L5.37499 16.7811C5.58984 16.7069 5.85156 16.5702 6.03906 16.3866L7.36328 17.7108C6.95703 18.1171 6.45312 18.4179 5.90234 18.578L1.20194 19.9608C0.873039 20.0585 0.517179 19.9686 0.274601 19.6913C0.0320146 19.4843 -0.0586808 19.1288 0.0381162 18.7968L1.4207 14.0975C1.5832 13.5468 1.88124 13.0429 2.28788 12.6366L11.3945 3.5288L16.4727 8.60536ZM19.2461 2.29481C20.2227 3.27099 20.2227 4.85536 19.2461 5.83192L17.3555 7.72255L12.2773 2.6452L14.168 0.75458C15.1445 -0.221904 16.7305 -0.221904 17.707 0.75458L19.2461 2.29481Z" fill="#AAAAAA"/>
</svg>
