<svg width="17" height="18" viewBox="0 0 17 18" fill="none" xmlns="http://www.w3.org/2000/svg">
<g clip-path="url(#clip0_267_586)">
<path d="M5.6875 1.125C6.61914 1.125 7.375 1.88051 7.375 2.8125V6.1875C7.375 7.11914 6.61914 7.875 5.6875 7.875H2.3125C1.38051 7.875 0.625 7.11914 0.625 6.1875V2.8125C0.625 1.88051 1.38051 1.125 2.3125 1.125H5.6875ZM5.125 3.375H2.875V5.625H5.125V3.375ZM5.6875 10.125C6.61914 10.125 7.375 10.8809 7.375 11.8125V15.1875C7.375 16.1191 6.61914 16.875 5.6875 16.875H2.3125C1.38051 16.875 0.625 16.1191 0.625 15.1875V11.8125C0.625 10.8809 1.38051 10.125 2.3125 10.125H5.6875ZM5.125 12.375H2.875V14.625H5.125V12.375ZM9.625 2.8125C9.625 1.88051 10.3809 1.125 11.3125 1.125H14.6875C15.6191 1.125 16.375 1.88051 16.375 2.8125V6.1875C16.375 7.11914 15.6191 7.875 14.6875 7.875H11.3125C10.3809 7.875 9.625 7.11914 9.625 6.1875V2.8125ZM11.875 5.625H14.125V3.375H11.875V5.625ZM13 15.75H14.125V16.875H13V15.75ZM16.375 16.875H15.25V15.75H16.375V16.875ZM15.25 10.125H16.375V14.625H13V13.5H11.875V16.875H9.625V10.125H13V11.25H15.25V10.125Z" fill="white"/>
</g>
<defs>
<clipPath id="clip0_267_586">
<rect width="15.75" height="18" fill="white" transform="translate(0.625)"/>
</clipPath>
</defs>
</svg>
