<?xml version="1.0" encoding="utf-8"?>
<!-- Generator: Adobe Illustrator 25.3.1, SVG Export Plug-In . SVG Version: 6.00 Build 0)  -->
<svg version="1.0" id="图层_1" xmlns="http://www.w3.org/2000/svg" xmlns:xlink="http://www.w3.org/1999/xlink" x="0px" y="0px"
	 viewBox="0 0 222.7 222.7" style="enable-background:new 0 0 222.7 222.7;" xml:space="preserve">
<g>
	<polygon style="fill:#F5D12A;" points="164.8,86.8 150.4,72.3 135.9,86.8 150.4,101.2 164.8,115.7 179.3,101.2 	"/>
	<g>

			<rect x="154.6" y="4.2" transform="matrix(0.7071 -0.7071 0.7071 0.7071 38.0574 120.7958)" style="fill:#F29321;" width="20.4" height="20.4"/>

			<rect x="198" y="47.6" transform="matrix(0.7071 -0.7071 0.7071 0.7071 20.0891 164.1709)" style="fill:#F29321;" width="20.4" height="20.4"/>

			<rect x="140.2" y="163.3" transform="matrix(0.7071 -0.7071 0.7071 0.7071 -78.642 157.1546)" style="fill:#F29321;" width="20.4" height="20.4"/>

			<rect x="38.9" y="62.1" transform="matrix(0.7071 -0.7071 0.7071 0.7071 -36.7184 55.9426)" style="fill:#F29321;" width="20.4" height="20.4"/>

			<rect x="96.8" y="4.2" transform="matrix(0.7071 -0.7071 0.7071 0.7071 21.1168 79.8987)" style="fill:#F29321;" width="20.4" height="20.4"/>

			<rect x="53.4" y="18.7" transform="matrix(0.7071 -0.7071 0.7071 0.7071 -1.8116 53.4623)" style="fill:#F29321;" width="20.4" height="20.4"/>

			<rect x="198" y="105.4" transform="matrix(0.7071 -0.7071 0.7071 0.7071 -20.8068 181.1099)" style="fill:#F29321;" width="20.4" height="20.4"/>

			<rect x="183.5" y="148.8" transform="matrix(0.7071 -0.7071 0.7071 0.7071 -55.7133 183.591)" style="fill:#F29321;" width="20.4" height="20.4"/>
	</g>
	<polygon style="fill:#5B5A70;" points="164.8,115.7 150.4,101.2 135.9,115.7 121.5,101.2 107,86.8 121.5,72.3 107,57.8 92.5,43.4
		78.1,57.8 92.5,72.3 78.1,86.8 92.5,101.2 78.1,115.7 70.9,108.4 56.4,122.9 70.9,137.4 56.4,151.8 56.4,151.8 42.7,165.6
		28.9,179.3 14.5,193.8 0,208.2 14.5,222.7 28.9,208.2 43.4,193.8 57.1,180 57.8,179.3 70.9,166.3 71.6,165.6 85.3,151.8
		99.8,166.3 114.2,151.8 107,144.6 121.5,130.1 135.9,144.6 150.4,130.1 164.8,144.6 179.3,130.1 	"/>
	<polygon style="fill:#F29321;" points="164.8,57.8 150.4,43.4 135.9,57.8 121.5,43.4 107,57.8 121.5,72.3 107,86.8 121.5,101.2
		135.9,115.7 150.4,101.2 135.9,86.8 150.4,72.3 164.8,86.8 179.3,72.3 	"/>
</g>
</svg>
