<svg width="28" height="28" viewBox="0 0 28 28" fill="none" xmlns="http://www.w3.org/2000/svg">
<path d="M14 28C21.732 28 28 21.732 28 14C28 6.26801 21.732 0 14 0C6.26801 0 0 6.26801 0 14C0 21.732 6.26801 28 14 28Z" fill="#8A8A8A"/>
<path d="M20.9587 12.5826C21.2413 10.837 20.0057 10.0291 19.3124 9.58316C18.6221 9.13722 17.5668 8.8165 17.5668 8.8165L18.2418 6.09807L16.6841 5.7071L16.009 8.42554L14.7643 8.11093L15.4394 5.39249L13.8633 5L13.1883 7.71844L9.89407 6.89069L9.49394 8.50343C9.49394 8.50343 11.1204 8.90966 11.2991 8.95701C11.4824 9.0013 11.4579 9.09446 11.4427 9.15555C11.4274 9.21663 9.3962 17.4101 9.36565 17.5186C9.34122 17.6285 9.32289 17.6911 9.1717 17.656L7.44442 17.2223L7 19.0137L10.1888 19.8124L9.54281 22.4117L11.2426 22.8378L11.8886 20.237L12.947 20.5027L12.301 23.1036L13.9198 23.5098L14.5673 20.9105L15.7861 21.2159C16.5955 21.4191 19.6713 21.4572 20.3402 18.7556C21.0106 16.0524 18.7947 14.9086 18.7947 14.9086C18.7947 14.9086 20.6731 14.3282 20.9587 12.5826ZM17.2674 17.5949C16.9467 18.8885 15.5035 18.9877 15.1752 18.9037L12.2811 18.1798L13.1363 14.7253L16.1373 15.4767C16.7131 15.6233 17.5897 16.3014 17.2674 17.5949ZM17.802 12.3337C17.4599 13.7112 16.0854 13.6486 15.6517 13.5417L13.5365 13.0118L14.352 9.72367L16.2824 10.2063C16.6123 10.2887 18.1456 10.9577 17.802 12.3337Z" fill="white"/>
</svg>
