<svg width="32" height="32" viewBox="0 0 32 32" fill="none" xmlns="http://www.w3.org/2000/svg">
<path d="M16 32C24.8366 32 32 24.8366 32 16C32 7.16344 24.8366 0 16 0C7.16344 0 0 7.16344 0 16C0 24.8366 7.16344 32 16 32Z" fill="black"/>
<path d="M31.5 16C31.5 24.5604 24.5604 31.5 16 31.5C7.43959 31.5 0.5 24.5604 0.5 16C0.5 7.43959 7.43959 0.5 16 0.5C24.5604 0.5 31.5 7.43959 31.5 16Z" stroke="white" stroke-opacity="0.3"/>
<path d="M11.5717 19.216L6.6438 14.2881L5.00047 15.9314L9.92841 20.8593L11.5717 19.216Z" fill="#F39800"/>
<path d="M18.1408 19.215L13.2129 14.2871L11.5696 15.9304L16.4975 20.8584L18.1408 19.215Z" fill="#F39800"/>
<path d="M21.4262 15.9299L16.4983 11.002L14.855 12.6453L19.7829 17.5732L21.4262 15.9299Z" fill="#F39800"/>
<path d="M9.92793 11.0057L5 15.9336L6.64333 17.5769L11.5713 12.649L9.92793 11.0057Z" fill="#F39800"/>
<path d="M13.2133 14.2806L8.2854 19.2085L9.92873 20.8518L14.8567 15.9239L13.2133 14.2806Z" fill="#F39800"/>
<path d="M21.429 12.6453L26.3569 17.5732L28.0003 15.9299L23.0723 11.002L21.429 12.6453Z" fill="#F39800"/>
<path d="M23.0706 20.8557L27.9985 15.9277L26.3552 14.2844L21.4273 19.2123L23.0706 20.8557Z" fill="#F39800"/>
<path d="M19.7864 17.5754L24.7144 12.6475L23.071 11.0041L18.1431 15.9321L19.7864 17.5754Z" fill="#F39800"/>
<path d="M16.4992 10.9998L11.5713 15.9277L13.2146 17.5711L18.1426 12.6431L16.4992 10.9998Z" fill="#F39800"/>
<path d="M16.4992 10.9998L11.5713 15.9277L13.2146 17.5711L18.1426 12.6431L16.4992 10.9998Z" fill="#F39800"/>
<path d="M19.7849 14.2806L14.8569 19.2085L16.5003 20.8518L21.4282 15.9239L19.7849 14.2806Z" fill="#F39800"/>
</svg>
