<svg width="28" height="28" viewBox="0 0 28 28" fill="none" xmlns="http://www.w3.org/2000/svg">
<path d="M14 28C21.732 28 28 21.732 28 14C28 6.26801 21.732 0 14 0C6.26801 0 0 6.26801 0 14C0 21.732 6.26801 28 14 28Z" fill="#8A8A8A"/>
<path d="M9.71485 17.1445L5.42969 12.8594L4.00071 14.2884L8.28587 18.5735L9.71485 17.1445Z" fill="white"/>
<path d="M15.4268 17.1433L11.1416 12.8582L9.71262 14.2871L13.9978 18.5723L15.4268 17.1433Z" fill="white"/>
<path d="M18.2837 14.2869L13.9985 10.0017L12.5696 11.4307L16.8547 15.7158L18.2837 14.2869Z" fill="white"/>
<path d="M8.28516 10.0049L4 14.29L5.42898 15.719L9.71414 11.4339L8.28516 10.0049Z" fill="white"/>
<path d="M11.1416 12.8528L6.85645 17.1379L8.28543 18.5669L12.5706 14.2818L11.1416 12.8528Z" fill="white"/>
<path d="M18.2861 11.4307L22.5713 15.7158L24.0003 14.2868L19.7151 10.0017L18.2861 11.4307Z" fill="white"/>
<path d="M19.7134 18.5703L23.9985 14.2852L22.5696 12.8562L18.2844 17.1413L19.7134 18.5703Z" fill="white"/>
<path d="M16.8579 15.7175L21.1431 11.4324L19.7141 10.0034L15.4289 14.2886L16.8579 15.7175Z" fill="white"/>
<path d="M13.9995 10L9.71436 14.2852L11.1433 15.7141L15.4285 11.429L13.9995 10Z" fill="white"/>
<path d="M13.9995 10L9.71436 14.2852L11.1433 15.7141L15.4285 11.429L13.9995 10Z" fill="white"/>
<path d="M16.8564 12.8528L12.5713 17.1379L14.0003 18.5669L18.2854 14.2818L16.8564 12.8528Z" fill="white"/>
</svg>
