<svg width="32" height="32" viewBox="0 0 32 32" fill="none" xmlns="http://www.w3.org/2000/svg">
<g id="About US">
<circle id="Ellipse 11" cx="16" cy="16" r="16" fill="white" fill-opacity="0.08"/>
<path id="Vector" d="M16.5 9C20.6421 9 24 12.3579 24 16.5C24 20.6421 20.6421 24 16.5 24C12.3579 24 9 20.6421 9 16.5C9 12.3579 12.3579 9 16.5 9ZM16.6389 15.8518C16.2554 15.8518 15.9444 16.1628 15.9444 16.5463V19.463C15.9444 19.8465 16.2554 20.1574 16.6389 20.1574C17.0224 20.1574 17.3333 19.8465 17.3333 19.463V16.5463C17.3333 16.1628 17.0224 15.8518 16.6389 15.8518ZM16.6389 13.4444C16.2554 13.4444 15.9444 13.7554 15.9444 14.1389C15.9444 14.5224 16.2554 14.8333 16.6389 14.8333C17.0224 14.8333 17.3333 14.5224 17.3333 14.1389C17.3333 13.7554 17.0224 13.4444 16.6389 13.4444Z" fill="white"/>
</g>
</svg>
