<svg width="105" height="101" viewBox="0 0 105 101" fill="none" xmlns="http://www.w3.org/2000/svg">
<g id="Group 1485">
<g id="Group">
<path id="Vector" d="M54.0445 101C80.9562 101 102.773 79.1838 102.773 52.272C102.773 25.3602 80.9562 3.54395 54.0445 3.54395C27.1327 3.54395 5.31641 25.3602 5.31641 52.272C5.31641 79.1838 27.1327 101 54.0445 101Z" fill="#373D4D"/>
</g>
<g id="Group_2">
<path id="Vector_2" d="M15.7803 12.2373C20.3616 12.2373 24.0765 15.9455 24.0765 20.5186V29.2663V77.8524C24.0765 82.4256 27.7913 86.1337 32.3726 86.1337H86.6683V20.5186C86.6683 15.9455 82.9535 12.2373 78.3721 12.2373H15.7803Z" fill="url(#paint0_linear_16429_9921)"/>
<g id="Group_3">
<g id="Group_4">
<g id="Group_5">
<path id="Vector_3" d="M24.0758 20.5186C24.0758 15.9455 20.3609 12.2373 15.7796 12.2373C11.1982 12.2373 7.4834 15.9455 7.4834 20.5186V24.5312H24.0758V20.5186Z" fill="url(#paint1_linear_16429_9921)"/>
</g>
</g>
</g>
<path id="Vector_4" d="M40.8099 69.1055V77.8532C40.8099 82.4263 37.095 86.1345 32.5137 86.1345H86.7386C91.32 86.1345 95.0348 82.4263 95.0348 77.8532V69.1055H40.8099Z" fill="url(#paint2_linear_16429_9921)"/>
<g id="Group_6">
<g id="Group_7">
<path id="Vector_5" d="M53.842 54.1113H36.2142C34.6697 54.1113 33.417 55.3617 33.417 56.9035C33.417 58.4453 34.6697 59.6958 36.2142 59.6958H53.8433C55.3879 59.6958 56.6406 58.4453 56.6406 56.9035C56.6392 55.3617 55.3879 54.1113 53.842 54.1113Z" fill="#C9CFDB"/>
<path id="Vector_6" d="M76.8234 40.4492H36.2142C34.6697 40.4492 33.417 41.6996 33.417 43.2414C33.417 44.7832 34.6697 46.0337 36.2142 46.0337H76.8234C78.368 46.0337 79.6207 44.7832 79.6207 43.2414C79.6207 41.6996 78.368 40.4492 76.8234 40.4492Z" fill="#C9CFDB"/>
<path id="Vector_7" d="M76.8234 26.7886H36.2142C34.6697 26.7886 33.417 28.039 33.417 29.5808C33.417 31.1226 34.6697 32.373 36.2142 32.373H76.8234C78.368 32.373 79.6207 31.1226 79.6207 29.5808C79.6207 28.039 78.368 26.7886 76.8234 26.7886Z" fill="#C9CFDB"/>
</g>
</g>
<g id="Group_8">
<g id="Group_9">
<path id="Vector_8" d="M58.1135 62.7206C52.5884 62.7206 47.3931 60.5725 43.4859 56.6723C35.4201 48.621 35.4201 35.521 43.4859 27.4697C47.3931 23.5694 52.5884 21.4214 58.1135 21.4214C63.6386 21.4214 68.8339 23.5694 72.7411 27.4697C80.8069 35.521 80.8069 48.621 72.7411 56.6723C68.8339 60.5725 63.6386 62.7206 58.1135 62.7206ZM58.1135 27.045C54.0924 27.045 50.3121 28.6077 47.469 31.447C41.5997 37.3058 41.5997 46.8388 47.469 52.6989C50.3121 55.5369 54.0924 57.1009 58.1135 57.1009C62.1346 57.1009 65.9149 55.5382 68.758 52.6989C74.6273 46.8401 74.6273 37.3071 68.758 31.447C65.9149 28.6077 62.1346 27.045 58.1135 27.045Z" fill="#707686"/>
<path id="Vector_9" d="M58.1129 27.0454C54.0918 27.0454 50.3115 28.6081 47.4684 31.4474C41.5991 37.3062 41.5991 46.8392 47.4684 52.6993C50.3115 55.5373 54.0918 57.1013 58.1129 57.1013C62.134 57.1013 65.9143 55.5386 68.7574 52.6993C74.6267 46.8405 74.6267 37.3075 68.7574 31.4474C65.9143 28.6081 62.134 27.0454 58.1129 27.0454Z" fill="url(#paint3_linear_16429_9921)"/>
</g>
<path id="Vector_10" d="M73.1094 53.5561L69.6182 57.041L76.5895 63.9998L80.0808 60.5149L73.1094 53.5561Z" fill="#707686"/>
<path id="Vector_11" d="M98.7065 82.4261L98.5416 82.5908C96.6711 84.4579 93.6395 84.4579 91.769 82.5908L74.081 64.9359C73.5876 64.4433 73.5876 63.645 74.081 63.1524L79.2331 58.0096C79.7266 57.517 80.5264 57.517 81.0198 58.0096L98.7065 75.6657C100.576 77.5329 100.576 80.559 98.7065 82.4261Z" fill="#707686"/>
</g>
<g id="Group_10">
<path id="Vector_12" d="M0.00757096 43.6069C-0.0212261 45.1108 0.0114978 47.2079 0.478796 49.4906C1.2681 53.3477 3.2996 57.7366 8.38229 60.7052C10.2279 61.7831 12.4767 62.6742 15.2151 63.2831C14.4899 60.7052 14.5357 55.0972 15.2779 52.4135C11.3654 52.2593 4.04309 47.6365 0.00757096 43.6069Z" fill="url(#paint4_linear_16429_9921)"/>
<path id="Vector_13" d="M8.38104 60.7068C3.29835 57.7382 1.26684 53.3493 0.477539 49.4922C1.01683 52.0949 2.619 54.0091 4.63741 54.29C4.26305 56.4133 6.1257 59.1833 8.38104 60.7068Z" fill="#C9CFDB"/>
</g>
<path id="Vector_14" d="M90.5703 36.1187L98.5065 36.7629C98.5065 36.7629 104.085 34.1026 104.513 25.4189L95.9449 26.0827C95.9004 28.6058 94.0626 33.2181 90.5703 36.1187Z" fill="url(#paint5_linear_16429_9921)"/>
<path id="Vector_15" d="M92.4415 6.33442C94.1938 6.33442 95.6144 4.91642 95.6144 3.16721C95.6144 1.41801 94.1938 0 92.4415 0C90.6891 0 89.2686 1.41801 89.2686 3.16721C89.2686 4.91642 90.6891 6.33442 92.4415 6.33442Z" fill="#BCC3CE"/>
<path id="Vector_16" d="M8.55984 91.7271C10.1278 91.7271 11.399 90.4583 11.399 88.8931C11.399 87.3279 10.1278 86.0591 8.55984 86.0591C6.99183 86.0591 5.7207 87.3279 5.7207 88.8931C5.7207 90.4583 6.99183 91.7271 8.55984 91.7271Z" fill="#BCC3CE"/>
</g>
</g>
<defs>
<linearGradient id="paint0_linear_16429_9921" x1="51.224" y1="86.134" x2="51.224" y2="12.2371" gradientUnits="userSpaceOnUse">
<stop offset="0.5642" stop-color="white"/>
<stop offset="1" stop-color="#DAE0E8"/>
</linearGradient>
<linearGradient id="paint1_linear_16429_9921" x1="15.7792" y1="24.5315" x2="15.7792" y2="12.2371" gradientUnits="userSpaceOnUse">
<stop offset="0.0251" stop-color="#F0F2FC"/>
<stop offset="0.7374" stop-color="#C9CFDB"/>
</linearGradient>
<linearGradient id="paint2_linear_16429_9921" x1="63.7738" y1="86.1348" x2="63.7738" y2="69.1054" gradientUnits="userSpaceOnUse">
<stop offset="0.0251" stop-color="#F0F2FC"/>
<stop offset="0.7374" stop-color="#DAE0E8"/>
</linearGradient>
<linearGradient id="paint3_linear_16429_9921" x1="58.1128" y1="57.099" x2="58.1128" y2="27.0448" gradientUnits="userSpaceOnUse">
<stop offset="0.2123" stop-color="white" stop-opacity="0"/>
<stop offset="1" stop-color="#C9CFDB"/>
</linearGradient>
<linearGradient id="paint4_linear_16429_9921" x1="14.6439" y1="63.6127" x2="2.33991" y2="42.2632" gradientUnits="userSpaceOnUse">
<stop offset="0.3268" stop-color="#F5F6F9"/>
<stop offset="0.7374" stop-color="#DAE0E8"/>
</linearGradient>
<linearGradient id="paint5_linear_16429_9921" x1="91.6694" y1="37.2167" x2="103.978" y2="24.8863" gradientUnits="userSpaceOnUse">
<stop offset="0.3268" stop-color="#F5F6F9"/>
<stop offset="0.7374" stop-color="#DAE0E8"/>
</linearGradient>
</defs>
</svg>
