<svg width="32" height="33" viewBox="0 0 32 33" fill="none" xmlns="http://www.w3.org/2000/svg">
<circle cx="16" cy="16.375" r="16" fill="white" fill-opacity="0.08"/>
<path d="M6 24.375C6 22.8595 6.61299 21.406 7.70411 20.3344C8.79523 19.2628 10.2751 18.6607 11.8182 18.6607C13.3613 18.6607 14.8411 19.2628 15.9323 20.3344C17.0234 21.406 17.6364 22.8595 17.6364 24.375H6ZM11.8182 17.9464C9.40727 17.9464 7.45455 16.0286 7.45455 13.6607C7.45455 11.2929 9.40727 9.375 11.8182 9.375C14.2291 9.375 16.1818 11.2929 16.1818 13.6607C16.1818 16.0286 14.2291 17.9464 11.8182 17.9464ZM19.0909 20.8036H22V22.2321H19.0909V20.8036ZM16.9091 17.2321H22V18.6607H16.9091V17.2321ZM18.3636 13.6607H22V15.0893H18.3636V13.6607Z" fill="white"/>
</svg>
