<svg width="32" height="32" viewBox="0 0 32 32" fill="none" xmlns="http://www.w3.org/2000/svg">
<g id="Group 1469">
<circle id="Ellipse 11" cx="16" cy="16" r="16" fill="white" fill-opacity="0.08"/>
<path id="Vector" d="M14.9925 10C15.1384 10 15.2625 10.0882 15.3146 10.2099L15.3336 10.273L15.5894 11.9955C15.921 12.1283 16.2346 12.2936 16.5264 12.4867L16.7405 12.6353L18.4382 11.9825C18.5021 11.9583 18.5719 11.9533 18.6386 11.9684C18.7053 11.9835 18.7659 12.0178 18.8125 12.067L18.8541 12.1227L20.2175 14.3745C20.2522 14.4317 20.2677 14.4981 20.2619 14.5644C20.2561 14.6306 20.2293 14.6935 20.1853 14.7441L20.135 14.7905L18.694 15.8658C18.7215 16.0747 18.7414 16.2855 18.7414 16.5C18.7414 16.643 18.7319 16.7841 18.7187 16.9244L18.694 17.1342L20.1322 18.2095C20.1856 18.2501 20.225 18.3058 20.2448 18.3692C20.2647 18.4325 20.264 18.5003 20.2431 18.5633L20.2146 18.6255L18.8504 20.8773C18.8149 20.9346 18.7627 20.9802 18.7006 21.0084C18.6385 21.0365 18.5693 21.0458 18.5017 21.0351L18.4354 21.0175L16.7376 20.3638C16.4554 20.573 16.1515 20.7526 15.831 20.8996L15.5856 21.0045L15.3298 22.727C15.3173 22.7922 15.2853 22.8522 15.2379 22.8995C15.1905 22.9468 15.1298 22.9792 15.0636 22.9926L14.9925 23H12.2668C12.1984 23.0001 12.1316 22.9802 12.0749 22.9428C12.0182 22.9054 11.9742 22.8522 11.9485 22.7901L11.9295 22.727L11.6737 21.0045C11.345 20.8728 11.031 20.7082 10.7367 20.5133L10.5226 20.3647L8.82486 21.0175C8.76102 21.0417 8.69123 21.0467 8.62451 21.0316C8.55779 21.0165 8.49722 20.9822 8.45064 20.933L8.40895 20.8773L7.04563 18.6255C7.01095 18.5683 6.9954 18.5019 7.00118 18.4356C7.00696 18.3694 7.03376 18.3065 7.07784 18.2559L7.12805 18.2095L8.56622 17.1342C8.53662 16.924 8.5208 16.7122 8.51885 16.5C8.51885 16.357 8.52738 16.2159 8.54159 16.0756L8.56622 15.8658L7.12805 14.7905C7.07461 14.7499 7.03528 14.6942 7.01543 14.6308C6.99559 14.5675 6.99621 14.4997 7.0172 14.4367L7.04563 14.3745L8.4099 12.1227C8.4454 12.0654 8.49754 12.0198 8.55964 11.9916C8.62175 11.9635 8.691 11.9542 8.75854 11.9649L8.82486 11.9825L10.5226 12.6362C10.8031 12.4273 11.1053 12.249 11.4283 12.1004L11.6747 11.9955L11.9305 10.273C11.9429 10.208 11.9748 10.148 12.022 10.1008C12.0692 10.0535 12.1297 10.021 12.1957 10.0074L12.2668 10H14.9935H14.9925ZM13.6311 14.3336C13.3408 14.3335 13.0533 14.3895 12.7851 14.4983C12.5169 14.6071 12.2731 14.7667 12.0679 14.9679C11.8626 15.1691 11.6998 15.4079 11.5888 15.6708C11.4777 15.9337 11.4206 16.2155 11.4208 16.5C11.4206 16.7845 11.4777 17.0663 11.5888 17.3292C11.6998 17.5921 11.8626 17.8309 12.0679 18.0321C12.2731 18.2333 12.5169 18.3929 12.7851 18.5017C13.0533 18.6105 13.3408 18.6665 13.6311 18.6664C13.9214 18.6665 14.2088 18.6105 14.4771 18.5017C14.7453 18.3929 14.989 18.2333 15.1943 18.0321C15.3995 17.8309 15.5624 17.5921 15.6734 17.3292C15.7844 17.0663 15.8415 16.7845 15.8414 16.5C15.8415 16.2155 15.7844 15.9337 15.6734 15.6708C15.5624 15.4079 15.3995 15.1691 15.1943 14.9679C14.989 14.7667 14.7453 14.6071 14.4771 14.4983C14.2088 14.3895 13.9214 14.3335 13.6311 14.3336ZM24.0526 15.5714C24.3039 15.5714 24.5448 15.6693 24.7225 15.8434C24.9002 16.0175 25 16.2537 25 16.5C25 16.7463 24.9002 16.9825 24.7225 17.1566C24.5448 17.3307 24.3039 17.4286 24.0526 17.4286H23.1052C22.8539 17.4286 22.6129 17.3307 22.4353 17.1566C22.2576 16.9825 22.1578 16.7463 22.1578 16.5C22.1578 16.2537 22.2576 16.0175 22.4353 15.8434C22.6129 15.6693 22.8539 15.5714 23.1052 15.5714H24.0526ZM24.0526 12.7857C24.3039 12.7857 24.5448 12.8835 24.7225 13.0577C24.9002 13.2318 25 13.468 25 13.7143C25 13.9606 24.9002 14.1967 24.7225 14.3709C24.5448 14.545 24.3039 14.6429 24.0526 14.6429H22.1578C21.9065 14.6429 21.6655 14.545 21.4878 14.3709C21.3102 14.1967 21.2104 13.9606 21.2104 13.7143C21.2104 13.468 21.3102 13.2318 21.4878 13.0577C21.6655 12.8835 21.9065 12.7857 22.1578 12.7857H24.0526ZM24.0526 10C24.3039 10 24.5448 10.0978 24.7225 10.272C24.9002 10.4461 25 10.6823 25 10.9286C25 11.1748 24.9002 11.411 24.7225 11.5852C24.5448 11.7593 24.3039 11.8571 24.0526 11.8571H20.2629C20.0117 11.8571 19.7707 11.7593 19.593 11.5852C19.4154 11.411 19.3155 11.1748 19.3155 10.9286C19.3155 10.6823 19.4154 10.4461 19.593 10.272C19.7707 10.0978 20.0117 10 20.2629 10H24.0526Z" fill="white"/>
</g>
</svg>
