<?xml version="1.0" standalone="no"?>
<!DOCTYPE svg PUBLIC "-//W3C//DTD SVG 20010904//EN"
 "http://www.w3.org/TR/2001/REC-SVG-20010904/DTD/svg10.dtd">
<svg version="1.0" xmlns="http://www.w3.org/2000/svg"
 width="512.000000pt" height="512.000000pt" viewBox="0 0 512.000000 512.000000"
 preserveAspectRatio="xMidYMid meet">

<g transform="translate(0.000000,512.000000) scale(0.100000,-0.100000)"
fill="#000000" stroke="none">
<path d="M1480 4830 c-233 -21 -433 -91 -630 -223 -96 -64 -273 -241 -337
-337 -105 -157 -179 -338 -208 -509 -8 -47 -16 -153 -18 -236 l-2 -150 2275 0
2275 0 -3 150 c-4 236 -42 407 -133 586 -89 179 -234 353 -390 469 -146 108
-351 198 -539 236 -76 15 -193 17 -1145 19 -583 2 -1098 -1 -1145 -5z"/>
<path d="M492 3040 c2 -5 175 -245 386 -532 l383 -523 2 -730 2 -730 28 -57
c33 -67 90 -121 166 -157 l56 -26 1000 -3 c704 -2 1019 0 1065 8 116 20 199
82 252 189 l23 46 2 734 3 733 378 517 c208 284 382 522 386 529 6 9 -35 12
-191 12 l-199 0 -304 -412 -303 -413 -201 3 c-110 2 -202 5 -205 7 -2 3 48
186 111 407 l115 403 -165 3 c-91 1 -167 0 -170 -2 -2 -3 -55 -183 -117 -400
-63 -218 -116 -400 -120 -406 -4 -6 -116 -10 -320 -10 -290 0 -314 1 -319 18
-3 9 -53 186 -111 392 -58 206 -108 383 -111 393 -5 15 -22 17 -176 17 -132 0
-169 -3 -165 -12 14 -40 228 -800 225 -803 -2 -2 -95 -5 -207 -7 l-203 -3
-301 412 -302 413 -198 0 c-124 0 -197 -4 -195 -10z m2314 -1309 c122 -55 124
-228 4 -288 -42 -22 -56 -23 -250 -23 -194 0 -208 1 -250 23 -120 60 -118 233
4 288 36 16 67 19 246 19 179 0 210 -3 246 -19z"/>
</g>
</svg>
