<svg width="16" height="21" viewBox="0 0 16 21" fill="none" xmlns="http://www.w3.org/2000/svg">
<path id="Vector" d="M14.2933 2.17933C14.6773 2.53489 14.9831 2.83 15.2107 3.06467C15.4382 3.29933 15.6124 3.49844 15.7333 3.662C15.8542 3.82556 15.9289 3.96422 15.9573 4.078C15.9858 4.19178 16 4.29133 16 4.37667V4.718H12.8427C12.7004 4.718 12.576 4.66467 12.4693 4.558C12.3627 4.45133 12.2738 4.32689 12.2027 4.18467C12.1316 4.04244 12.0782 3.89667 12.0427 3.74733C12.0071 3.598 11.9893 3.48067 11.9893 3.39533V0.75H12.0533C12.1671 0.75 12.2844 0.767778 12.4053 0.803333C12.5262 0.838889 12.6649 0.906444 12.8213 1.006C12.9778 1.10556 13.1733 1.24778 13.408 1.43267C13.6427 1.61756 13.9378 1.86644 14.2933 2.17933ZM10.6453 3.41667C10.6453 3.70111 10.688 3.99622 10.7733 4.302C10.8587 4.60778 10.9938 4.89222 11.1787 5.15533C11.3636 5.41844 11.5982 5.63533 11.8827 5.806C12.1671 5.97667 12.5013 6.062 12.8853 6.062H16V18.094C16 18.5064 15.9182 18.8762 15.7547 19.2033C15.5911 19.5304 15.3742 19.8078 15.104 20.0353C14.8338 20.2629 14.5351 20.4407 14.208 20.5687C13.8809 20.6967 13.5609 20.7607 13.248 20.7607H2.752C2.48178 20.7607 2.18667 20.6824 1.86667 20.526C1.54667 20.3696 1.248 20.1633 0.970667 19.9073C0.693333 19.6513 0.462222 19.3598 0.277333 19.0327C0.0924444 18.7056 0 18.3642 0 18.0087V3.502C0 3.20333 0.0675555 2.894 0.202667 2.574C0.337778 2.254 0.522667 1.95889 0.757333 1.68867C0.992 1.41844 1.25867 1.19444 1.55733 1.01667C1.856 0.838889 2.16889 0.75 2.496 0.75H10.6453V3.41667ZM11.9893 16.7287C12.3591 16.7287 12.672 16.5971 12.928 16.334C13.184 16.0709 13.312 15.7544 13.312 15.3847C13.312 15.0149 13.184 14.702 12.928 14.446C12.672 14.19 12.3591 14.062 11.9893 14.062H3.98933C3.61956 14.062 3.30667 14.19 3.05067 14.446C2.79467 14.702 2.66667 15.0149 2.66667 15.3847C2.66667 15.7544 2.79467 16.0709 3.05067 16.334C3.30667 16.5971 3.61956 16.7287 3.98933 16.7287H11.9893ZM13.312 10.0727C13.312 9.70289 13.184 9.38645 12.928 9.12333C12.672 8.86022 12.3591 8.72867 11.9893 8.72867H3.98933C3.61956 8.72867 3.30667 8.86022 3.05067 9.12333C2.79467 9.38645 2.66667 9.70289 2.66667 10.0727C2.66667 10.4424 2.79467 10.7553 3.05067 11.0113C3.30667 11.2673 3.61956 11.3953 3.98933 11.3953H11.9893C12.3591 11.3953 12.672 11.2673 12.928 11.0113C13.184 10.7553 13.312 10.4424 13.312 10.0727Z" fill="white"/>
</svg>
