<?xml version="1.0" standalone="no"?>
<!DOCTYPE svg PUBLIC "-//W3C//DTD SVG 20010904//EN"
 "http://www.w3.org/TR/2001/REC-SVG-20010904/DTD/svg10.dtd">
<svg version="1.0" xmlns="http://www.w3.org/2000/svg"
 width="512.000000pt" height="512.000000pt" viewBox="0 0 512.000000 512.000000"
 preserveAspectRatio="xMidYMid meet">

<g transform="translate(0.000000,512.000000) scale(0.100000,-0.100000)"
fill="#000000" stroke="none">
<path d="M841 4624 c-169 -45 -301 -180 -346 -351 -22 -85 -22 -1101 0 -1186
45 -173 178 -307 350 -352 88 -22 1102 -22 1190 0 172 45 305 179 350 352 22
85 22 1101 0 1186 -45 173 -178 307 -350 352 -85 22 -1112 21 -1194 -1z"/>
<path d="M3081 4624 c-169 -45 -301 -180 -346 -351 -22 -85 -22 -1101 0 -1186
45 -173 178 -307 350 -352 88 -22 1102 -22 1190 0 172 45 305 179 350 352 22
85 22 1101 0 1186 -45 173 -178 307 -350 352 -85 22 -1112 21 -1194 -1z"/>
<path d="M841 2384 c-169 -45 -301 -180 -346 -351 -22 -85 -22 -1101 0 -1186
45 -173 178 -307 350 -352 88 -22 1102 -22 1190 0 172 45 305 179 350 352 22
85 22 1101 0 1186 -45 173 -178 307 -350 352 -85 22 -1112 21 -1194 -1z"/>
<path d="M3513 2385 c-201 -36 -383 -134 -524 -283 -359 -375 -357 -956 5
-1330 169 -176 393 -276 641 -289 455 -23 853 273 977 726 31 110 31 352 0
462 -103 377 -397 649 -769 714 -102 18 -232 18 -330 0z"/>
</g>
</svg>
