<svg width="11" height="14" viewBox="0 0 11 14" fill="none" xmlns="http://www.w3.org/2000/svg">
<path id="Vector" d="M7.13053 11.0713H3.87109C3.31087 11.0713 2.85251 10.613 2.85251 10.0527V6.18553H0.713504C0.574252 6.18563 0.43802 6.14495 0.321623 6.06851C0.205226 5.99207 0.11376 5.88322 0.0585139 5.7554C0.00326812 5.62757 -0.0133385 5.48637 0.0107438 5.34922C0.034826 5.21207 0.0985429 5.08497 0.19403 4.98361L4.31927 0.634288C4.63163 0.304948 5.04925 0.125 5.50082 0.125C5.95239 0.125 6.3734 0.304948 6.68237 0.634288L10.8042 4.98361C11.0011 5.19072 11.0555 5.4929 10.94 5.75433C10.8246 6.01577 10.5699 6.18553 10.2847 6.18553H8.14572V10.0527C8.14911 10.6163 7.69415 11.0713 7.13053 11.0713ZM0.951171 5.37067H2.95437C3.34822 5.37067 3.66738 5.68982 3.66738 6.08367V10.0527C3.66738 10.1648 3.75905 10.2564 3.87109 10.2564H7.13053C7.24258 10.2564 7.33425 10.1648 7.33425 10.0527V6.08367C7.33425 5.68982 7.6534 5.37067 8.04725 5.37067H10.0505L6.09158 1.1945C5.77922 0.865165 5.219 0.865165 4.91004 1.1945L0.951171 5.37067ZM7.53796 12.4566H3.46366C3.23957 12.4566 3.05623 12.2732 3.05623 12.0491C3.05623 11.8251 3.23957 11.6417 3.46366 11.6417H7.53796C7.76205 11.6417 7.9454 11.8251 7.9454 12.0491C7.9454 12.2732 7.76205 12.4566 7.53796 12.4566ZM8.55654 13.8147H2.44508C2.221 13.8147 2.03765 13.6313 2.03765 13.4072C2.03765 13.1832 2.221 12.9998 2.44508 12.9998H8.55654C8.78063 12.9998 8.96397 13.1832 8.96397 13.4072C8.96397 13.6313 8.78063 13.8147 8.55654 13.8147Z" fill="#EBB94C" fill-opacity="0.8"/>
</svg>
