<svg width="28" height="28" viewBox="0 0 28 28" fill="none" xmlns="http://www.w3.org/2000/svg">
<rect width="28" height="28" rx="14" fill="#F4B62C" fill-opacity="0.2"/>
<path d="M8.6422 16.5963C8.47188 16.5963 8.30853 16.664 8.1881 16.7844C8.06766 16.9049 8 17.0682 8 17.2385V20.5229C8 20.6933 8.06766 20.8566 8.1881 20.977C8.30853 21.0975 8.47188 21.1651 8.6422 21.1651C8.81252 21.1651 8.97587 21.0975 9.09631 20.977C9.21674 20.8566 9.2844 20.6933 9.2844 20.5229V17.2385C9.2844 17.0682 9.21674 16.9049 9.09631 16.7844C8.97587 16.664 8.81252 16.5963 8.6422 16.5963ZM20.3119 18.2477H13.0183V16.6881C13.0194 16.6334 13.0042 16.5797 12.9746 16.5337C12.945 16.4878 12.9024 16.4517 12.8522 16.43C12.802 16.4084 12.7465 16.4022 12.6928 16.4122C12.639 16.4222 12.5895 16.448 12.5505 16.4862L10.2202 18.6881C10.1938 18.7137 10.1729 18.7444 10.1586 18.7783C10.1443 18.8121 10.1369 18.8485 10.1369 18.8853C10.1369 18.9221 10.1443 18.9585 10.1586 18.9924C10.1729 19.0263 10.1938 19.0569 10.2202 19.0826L12.5505 21.2844C12.5889 21.3221 12.6376 21.3477 12.6905 21.358C12.7434 21.3683 12.7981 21.3629 12.8479 21.3424C12.8978 21.3219 12.9405 21.2872 12.9707 21.2426C13.001 21.1981 13.0176 21.1456 13.0183 21.0917V19.5321H20.3578C20.5281 19.5321 20.6915 19.4644 20.8119 19.344C20.9323 19.2236 21 19.0602 21 18.8899C21 18.7196 20.9323 18.5562 20.8119 18.4358C20.6915 18.3154 20.5281 18.2477 20.3578 18.2477H20.3119ZM11.1009 15.4404L12.1009 13.4862H16.9174L17.8349 15.4128C17.903 15.5522 18.0087 15.6697 18.1399 15.7524C18.2712 15.835 18.4229 15.8795 18.578 15.8807C18.7049 15.8809 18.8303 15.8526 18.945 15.7982C19.1403 15.7014 19.2894 15.5314 19.3599 15.3252C19.4303 15.119 19.4164 14.8933 19.3211 14.6972L15.3945 6.46789C15.3254 6.33121 15.2208 6.21564 15.0917 6.13332C14.9625 6.05099 14.8136 6.00494 14.6606 6C14.51 6.00085 14.3627 6.04329 14.2348 6.12262C14.1069 6.20195 14.0034 6.31509 13.9358 6.44954L9.6789 14.7064C9.57792 14.9011 9.55841 15.1279 9.62465 15.3369C9.69089 15.546 9.83746 15.7201 10.0321 15.8211C10.2268 15.9221 10.4536 15.9416 10.6626 15.8754C10.8716 15.8091 11.0458 15.6625 11.1468 15.4679L11.1009 15.4404ZM14.5963 8.6789L16.1193 11.844H12.9541L14.5963 8.6789Z" fill="#F4B62C"/>
</svg>
