<svg width="28" height="28" viewBox="0 0 28 28" fill="none" xmlns="http://www.w3.org/2000/svg">
<rect width="28" height="28" rx="14" fill="#F4B62C" fill-opacity="0.2"/>
<path d="M14.5001 8C14.9815 8 15.2223 8.24074 15.2223 8.72222V15.9444C15.2223 16.4259 14.9815 16.6667 14.5001 16.6667C14.0186 16.6667 13.7778 16.4259 13.7778 15.9444V8.72222C13.7778 8.24074 14.0186 8 14.5001 8Z" fill="#F4B62C"/>
<path d="M14.9047 17.7067L17.1291 15.4822C17.2087 15.401 17.2626 15.2981 17.284 15.1865C17.3054 15.0748 17.2934 14.9593 17.2494 14.8544C17.2055 14.7496 17.1315 14.66 17.0369 14.597C16.9423 14.5339 16.8312 14.5002 16.7175 14.5H12.283C12.1718 14.5056 12.0645 14.5433 11.9742 14.6084C11.8838 14.6736 11.8143 14.7635 11.7738 14.8672C11.7334 14.971 11.7238 15.0843 11.7462 15.1934C11.7686 15.3025 11.8221 15.4028 11.9003 15.4822L14.0669 17.7067C14.1203 17.7644 14.1851 17.8105 14.2572 17.842C14.3293 17.8736 14.4071 17.8898 14.4858 17.8898C14.5645 17.8898 14.6423 17.8736 14.7144 17.842C14.7865 17.8105 14.8513 17.7644 14.9047 17.7067Z" fill="#F4B62C"/>
<path d="M19.5556 11.6113H18.1111V13.0558H19.5556V18.8336H9.44444V13.0558H10.8889V11.6113H9.44444C9.25476 11.6113 9.06693 11.6487 8.89168 11.7213C8.71643 11.7939 8.5572 11.9003 8.42307 12.0344C8.28894 12.1685 8.18254 12.3278 8.10995 12.503C8.03736 12.6783 8 12.8661 8 13.0558V18.8336C8 19.2166 8.15218 19.584 8.42307 19.8549C8.69395 20.1258 9.06135 20.278 9.44444 20.278H19.5556C19.9386 20.278 20.306 20.1258 20.5769 19.8549C20.8478 19.584 21 19.2166 21 18.8336V13.0558C21 12.8661 20.9626 12.6783 20.89 12.503C20.8175 12.3278 20.7111 12.1685 20.5769 12.0344C20.4428 11.9003 20.2836 11.7939 20.1083 11.7213C19.9331 11.6487 19.7452 11.6113 19.5556 11.6113Z" fill="#F4B62C"/>
</svg>
