<svg width="20" height="20" viewBox="0 0 20 20" fill="none" xmlns="http://www.w3.org/2000/svg">
<path d="M16.666 5.83333L16.666 6C16.666 7.40013 16.666 8.1002 16.3935 8.63498C16.1538 9.10538 15.7714 9.48783 15.301 9.72752C14.7662 10 14.0661 10 12.666 10L7.33268 10C5.93255 10 5.23249 10 4.69771 9.72752C4.2273 9.48783 3.84485 9.10538 3.60517 8.63498C3.33268 8.1002 3.33268 7.40013 3.33268 6L3.33268 5.83333M16.666 5.83333C17.5865 5.83333 18.3327 5.08714 18.3327 4.16667C18.3327 3.24619 17.5865 2.5 16.666 2.5C15.7455 2.5 14.9993 3.24619 14.9993 4.16667C14.9993 5.08714 15.7455 5.83333 16.666 5.83333ZM3.33268 5.83333C4.25316 5.83333 4.99935 5.08714 4.99935 4.16667C4.99935 3.24619 4.25316 2.5 3.33268 2.5C2.41221 2.5 1.66602 3.24619 1.66602 4.16667C1.66602 5.08714 2.41221 5.83333 3.33268 5.83333ZM9.99935 14.1667L9.99935 5.83333M9.99935 14.1667C10.9198 14.1667 11.666 14.9129 11.666 15.8333C11.666 16.7538 10.9198 17.5 9.99935 17.5C9.07887 17.5 8.33268 16.7538 8.33268 15.8333C8.33268 14.9129 9.07887 14.1667 9.99935 14.1667ZM9.99935 5.83333C10.9198 5.83333 11.666 5.08714 11.666 4.16667C11.666 3.24619 10.9198 2.5 9.99935 2.5C9.07887 2.5 8.33268 3.24619 8.33268 4.16667C8.33268 5.08714 9.07887 5.83333 9.99935 5.83333Z" stroke="#FF7C2A" stroke-width="1.5" stroke-linecap="round" stroke-linejoin="round"/>
</svg>
