<svg width="18" height="18" viewBox="0 0 18 18" fill="none" xmlns="http://www.w3.org/2000/svg">
<path d="M3.00049 8.99951L8.78583 11.9093C8.86454 11.9489 8.90389 11.9687 8.94517 11.9766C8.98174 11.9834 9.01926 11.9834 9.0558 11.9766C9.09711 11.9687 9.13644 11.9489 9.21519 11.9093L15.0005 8.99951M3.00049 12.0173L8.78583 14.9272C8.86454 14.9667 8.90389 14.9865 8.94517 14.9943C8.98174 15.0013 9.01926 15.0013 9.0558 14.9943C9.09711 14.9865 9.13644 14.9667 9.21519 14.9272L15.0005 12.0173M3.00049 5.9817L8.78583 3.07186C8.86454 3.03227 8.90389 3.01247 8.94517 3.00469C8.98174 2.99779 9.01926 2.99779 9.0558 3.00469C9.09711 3.01247 9.13644 3.03227 9.21519 3.07186L15.0005 5.9817L9.21519 8.89154C9.13644 8.93114 9.09711 8.95093 9.0558 8.95872C9.01926 8.96561 8.98174 8.96561 8.94517 8.95872C8.90389 8.95093 8.86454 8.93114 8.78583 8.89154L3.00049 5.9817Z" stroke="#FF7C2A" stroke-width="1.5" stroke-linecap="round" stroke-linejoin="round"/>
</svg>
