<svg width="18" height="18" viewBox="0 0 18 18" fill="none" xmlns="http://www.w3.org/2000/svg">
<path d="M12.7505 7.5V6C12.7505 3.92893 11.0715 2.25 9.00054 2.25C6.92942 2.25 5.25049 3.92893 5.25049 6V7.5M9.00054 10.875V12.375M6.60049 15.75H11.4005C12.6606 15.75 13.2907 15.75 13.772 15.5048C14.1953 15.289 14.5396 14.9449 14.7552 14.5215C15.0005 14.0402 15.0005 13.4101 15.0005 12.15V11.1C15.0005 9.83988 15.0005 9.20979 14.7552 8.72852C14.5396 8.30516 14.1953 7.96095 13.772 7.74524C13.2907 7.5 12.6606 7.5 11.4005 7.5H6.60049C5.34037 7.5 4.71032 7.5 4.22902 7.74524C3.80565 7.96095 3.46144 8.30516 3.24573 8.72852C3.00049 9.20979 3.00049 9.83988 3.00049 11.1V12.15C3.00049 13.4101 3.00049 14.0402 3.24573 14.5215C3.46144 14.9449 3.80565 15.289 4.22902 15.5048C4.71032 15.75 5.34037 15.75 6.60049 15.75Z" stroke="#FF7C2A" stroke-width="1.5" stroke-linecap="round" stroke-linejoin="round"/>
</svg>
