<svg width="18" height="18" viewBox="0 0 18 18" fill="none" xmlns="http://www.w3.org/2000/svg">
<path d="M16.4995 15.75V14.25C16.4995 12.8521 15.5435 11.6776 14.2495 11.3445M11.6245 2.46807C12.7239 2.91311 13.4995 3.99099 13.4995 5.25C13.4995 6.50902 12.7239 7.58689 11.6245 8.03193M12.7495 15.75C12.7495 14.3522 12.7495 13.6533 12.5212 13.1019C12.2167 12.3669 11.6327 11.7828 10.8976 11.4783C10.3462 11.25 9.64737 11.25 8.24951 11.25H5.99951C4.60169 11.25 3.90277 11.25 3.35146 11.4783C2.61638 11.7828 2.03235 12.3669 1.72787 13.1019C1.49951 13.6533 1.49951 14.3522 1.49951 15.75M10.1245 5.25C10.1245 6.90685 8.78137 8.25 7.12451 8.25C5.46766 8.25 4.12451 6.90685 4.12451 5.25C4.12451 3.59314 5.46766 2.25 7.12451 2.25C8.78137 2.25 10.1245 3.59314 10.1245 5.25Z" stroke="#FF7C2A" stroke-width="1.5" stroke-linecap="round" stroke-linejoin="round"/>
</svg>
