<svg xmlns="http://www.w3.org/2000/svg" width="16" height="16" viewBox="0 0 16 16" fill="none">
  <path d="M14.158 6L15 6.77667L14.8162 6.945L14.8204 6.94889C14.7483 7.01556 14.6756 7.08056 14.6017 7.14389L14.158 7.55278L14.1278 7.525C13.7951 7.77444 13.4447 8 13.0795 8.20111L14.1887 9.41945L13.2763 10.125L11.9887 8.71111C11.4739 8.912 10.9404 9.06766 10.395 9.17611L10.9558 10.5972L9.83664 10.9728L9.19077 9.33778C8.96327 9.35389 8.734 9.36167 8.50355 9.36111C8.16377 9.36167 7.82636 9.34444 7.49191 9.30944L6.82477 11L5.70559 10.6244L6.30359 9.10944C5.71074 8.97081 5.13441 8.77592 4.58345 8.52778L3.12982 10.125L2.21745 9.41945L3.53518 7.97167C3.30818 7.8314 3.08813 7.68143 2.87573 7.52222L2.84205 7.55278L2 6.77667L2.84205 6L3.02995 6.17333C4.49222 7.5181 6.45804 8.26872 8.50355 8.26333C10.5457 8.26333 12.4035 7.53444 13.7863 6.34333L14.158 6Z" fill="black" fill-opacity="0.55"/>
</svg>