<svg xmlns="http://www.w3.org/2000/svg" width="16" height="16" viewBox="0 0 16 16" fill="none">
  <path d="M7.35547 11.6473C7.35547 12.0023 7.64329 12.2901 7.99833 12.2901C8.35338 12.2901 8.64119 12.0023 8.64119 11.6473C8.64119 11.2922 8.35338 11.0044 7.99833 11.0044C7.64329 11.0044 7.35547 11.2922 7.35547 11.6473Z" fill="black" fill-opacity="0.65"/>
  <path d="M8 14C4.69144 14 2 11.3086 2 8C2 4.69144 4.69144 2 8 2C11.3086 2 14 4.69144 14 8C14 11.3086 11.3086 14 8 14ZM8 2.86099C5.16628 2.86099 2.86099 5.16628 2.86099 8C2.86099 10.8333 5.16628 13.139 8 13.139C10.8333 13.139 13.139 10.8333 13.139 8C13.139 5.16628 10.8333 2.86099 8 2.86099Z" fill="black" fill-opacity="0.65"/>
  <path d="M8.00029 10.165C7.76371 10.165 7.57171 9.97304 7.57171 9.73649V9.01177C7.57171 8.31062 8.10742 7.77491 8.58056 7.3022C8.92726 6.95506 9.28599 6.59677 9.28599 6.31091C9.28599 5.59649 8.70914 5.01535 8.00029 5.01535C7.27944 5.01535 6.71459 5.57163 6.71459 6.28177C6.71459 6.51835 6.52259 6.71033 6.286 6.71033C6.04942 6.71033 5.85742 6.51832 5.85742 6.28177C5.85742 5.11091 6.8187 4.1582 8.00029 4.1582C9.18188 4.1582 10.1432 5.12376 10.1432 6.31091C10.1432 6.95248 9.65673 7.43848 9.18658 7.90862C8.81373 8.28062 8.42887 8.66548 8.42887 9.01133V9.73605C8.42887 9.97263 8.23687 10.165 8.00029 10.165Z" fill="black" fill-opacity="0.65"/>
</svg>