<svg width="14" height="14" viewBox="0 0 14 14" fill="none" xmlns="http://www.w3.org/2000/svg">
<g id="&#229;&#143;&#179;&#231;&#174;&#173;&#229;&#164;&#180; (17) 1">
<path id="Vector" d="M12.1007 6.69048L8.59006 3.1799C8.41922 3.00904 8.1422 3.00904 7.97136 3.1799C7.8005 3.35076 7.8005 3.62776 7.97136 3.79862L10.7508 6.57811H2.16C1.92709 6.57811 1.73828 6.76694 1.73828 6.99984C1.73828 7.23275 1.9271 7.42156 2.16 7.42156H10.7509L7.97136 10.2011C7.8005 10.3719 7.8005 10.6489 7.97136 10.8198C8.05678 10.9052 8.16875 10.9479 8.28071 10.9479C8.39267 10.9479 8.50464 10.9052 8.59006 10.8198L12.1007 7.30919C12.1413 7.26857 12.1735 7.22034 12.1955 7.16726C12.2175 7.11418 12.2288 7.05729 12.2288 6.99984C12.2288 6.94238 12.2175 6.88549 12.1955 6.83242C12.1735 6.77934 12.1413 6.73111 12.1007 6.69048Z" fill="white"/>
</g>
</svg>
