<svg xmlns="http://www.w3.org/2000/svg" width="16" height="16" viewBox="0 0 16 16" fill="none">
  <path d="M8 13C5.4333 13 3.14344 11.4573 1.1355 8.44367C1.047 8.31104 1 8.15715 1 8C1 7.84285 1.047 7.68896 1.1355 7.55633C3.14344 4.54267 5.4333 3 8 3C10.5667 3 12.8566 4.54267 14.8645 7.55633C14.953 7.68896 15 7.84285 15 8C15 8.15715 14.953 8.31104 14.8645 8.44367C12.8566 11.4573 10.5667 13 8 13ZM8 4C5.87517 4 3.90731 5.31017 2.09187 8C3.90731 10.6898 5.87517 12 8 12C10.1248 12 12.0927 10.6898 13.9081 8C12.0927 5.31017 10.1248 4 8 4ZM8 10.3333C6.63484 10.3333 5.52814 9.28867 5.52814 8C5.52814 6.71133 6.63484 5.66667 8 5.66667C9.36516 5.66667 10.4719 6.71133 10.4719 8C10.4719 9.28867 9.36516 10.3333 8 10.3333ZM8 9.33333C8.78014 9.33333 9.41259 8.73633 9.41259 8C9.41259 7.26367 8.78014 6.66667 8 6.66667C7.21986 6.66667 6.58741 7.26367 6.58741 8C6.58741 8.73633 7.21986 9.33333 8 9.33333Z" fill="black" fill-opacity="0.55"/>
</svg>