<svg xmlns="http://www.w3.org/2000/svg" width="12" height="17" viewBox="0 0 12 17" fill="none">
  <path d="M7.1615 0.361556L7.14917 0.378228L0.179095 9.30271C-0.0205453 9.57928 -0.0658728 9.92547 0.107438 10.2318L0.146766 10.2952C0.315077 10.5763 0.611704 10.7313 0.945327 10.7313L4.65817 10.731L3.76295 15.9042L3.75062 15.9555C3.66396 16.3602 3.8706 16.7136 4.23556 16.8826L4.28188 16.9023L4.29221 16.9085C4.3922 16.9601 4.50119 16.9892 4.61317 16.9974L4.68083 17C4.94946 17 5.19576 16.8964 5.3854 16.7104C5.41215 16.6841 5.43657 16.6557 5.45839 16.6254L11.8609 7.74567C11.9151 7.67061 11.9526 7.58517 11.9709 7.49493C12.0109 7.29618 12.0109 7.10265 11.9635 6.91697C11.9516 6.86967 11.9342 6.82384 11.9119 6.78032L11.8799 6.72279C11.7109 6.44394 11.4156 6.28996 11.0833 6.28996L7.9034 6.28964L8.80495 1.0778C8.81117 1.04173 8.81429 1.0052 8.81428 0.968617L8.81295 0.909774C8.79495 0.559006 8.61797 0.254658 8.29035 0.11932L8.26802 0.111148L8.24836 0.0997058C7.86374 -0.102975 7.42847 0.0127493 7.16117 0.361556H7.1615ZM7.21683 2.44165L6.45726 6.83426L6.45059 6.88199C6.44182 6.97268 6.45246 7.06416 6.48184 7.15058C6.51121 7.237 6.55868 7.31644 6.62119 7.38381C6.6837 7.45119 6.75987 7.50501 6.84482 7.54182C6.92977 7.57863 7.02163 7.59762 7.11451 7.59758L10.3347 7.59725L5.35774 14.5002L6.10431 10.187L6.11097 10.1393C6.1198 10.0486 6.1092 9.95708 6.07987 9.87065C6.05053 9.78421 6.00311 9.70475 5.94063 9.63734C5.87815 9.56993 5.802 9.51608 5.71706 9.47923C5.63212 9.44237 5.54027 9.42334 5.4474 9.42334H1.76355L7.21683 2.44165Z" fill="black"/>
</svg>