<?xml version="1.0" standalone="no"?>
<!DOCTYPE svg PUBLIC "-//W3C//DTD SVG 20010904//EN"
 "http://www.w3.org/TR/2001/REC-SVG-20010904/DTD/svg10.dtd">
<svg version="1.0" xmlns="http://www.w3.org/2000/svg"
 width="512.000000pt" height="512.000000pt" viewBox="0 0 512.000000 512.000000"
 preserveAspectRatio="xMidYMid meet">

<g transform="translate(0.000000,512.000000) scale(0.100000,-0.100000)"
fill="#000000" stroke="none">
<path d="M2727 4570 c-3 -19 -9 -72 -12 -117 -11 -164 -87 -402 -178 -558 -84
-146 -143 -212 -572 -645 -291 -294 -460 -473 -498 -526 -123 -174 -218 -402
-252 -607 -19 -114 -22 -339 -5 -442 76 -478 389 -877 829 -1058 667 -275
1420 9 1744 658 97 196 138 379 138 620 0 326 -72 631 -207 882 -25 45 -48 84
-53 87 -4 3 -11 -32 -14 -77 -14 -187 -100 -386 -238 -548 -99 -115 -226 -146
-340 -83 -96 54 -151 169 -129 270 14 64 30 90 94 162 112 125 174 236 222
399 66 223 30 617 -83 923 -84 227 -228 461 -391 640 l-50 55 -5 -35z"/>
</g>
</svg>
