<svg width="18" height="18" viewBox="0 0 18 18" fill="none" xmlns="http://www.w3.org/2000/svg">
<path d="M11.8174 17.3183C21.8043 12.0076 14.2998 4.09852 12.9718 3.23296C13.4335 4.15643 13.4914 5.65748 12.5679 6.35009C11.0669 1.0393 7.37219 0 7.37219 0C7.83393 2.7133 5.81401 5.65748 3.85045 7.90904C3.79332 6.81183 3.73541 6.11922 3.10071 5.022C2.98488 6.98478 1.3688 8.60165 0.907057 10.5652C0.387405 13.3357 1.42671 15.2413 5.35227 17.377C8.91158 18.5815 11.8151 17.4201 11.8174 17.3191V17.3183Z" fill="#EFB13F"/>
<path d="M5.7561 12.2963C6.7954 10.8532 7.02627 9.46722 7.02627 9.46722C7.02627 9.46722 7.89184 10.4486 7.54593 12.0076C8.98906 10.5065 9.21993 8.082 9.04619 7.15852C12.2791 9.29426 13.7223 13.9124 11.8174 17.3183C21.8043 12.0076 14.2998 4.09852 12.9718 3.23296C13.4335 4.15644 13.4914 5.65748 12.5679 6.35009C11.0669 1.0393 7.37219 0 7.37219 0C7.83393 2.7133 5.81401 5.65748 3.85045 7.90904C3.79332 6.81183 3.73541 6.11922 3.10071 5.022C2.98488 6.98478 1.3688 8.60165 0.907057 10.5652C0.387405 13.3357 1.42671 15.2413 5.35227 17.377C4.13923 14.9525 4.77471 13.5665 5.7561 12.2971V12.2963Z" fill="#E91111"/>
</svg>
