<svg width="32" height="32" viewBox="0 0 32 32" fill="none" xmlns="http://www.w3.org/2000/svg">
<g id="Group 1472">
<circle id="Ellipse 11" cx="16" cy="16" r="16" fill="white" fill-opacity="0.08"/>
<path id="Vector" d="M20.8762 13.207H19.518C19.518 11.0255 17.8507 9.35822 15.7257 9.35822C13.5977 9.35822 11.9334 11.0255 11.9334 13.207H10.5722C10.5722 10.5886 12.8815 8 15.7227 8C18.564 8 20.8762 10.5886 20.8762 13.207ZM22.6 15.439C22.6 14.69 21.9907 14.0808 21.2418 14.0808H10.3582C9.60927 14.0808 9 14.69 9 15.439V21.8883C9 22.6372 9.60927 23.2465 10.3582 23.2465H21.2388C21.9878 23.2465 22.597 22.6372 22.597 21.8883V15.439H22.6ZM16.8759 20.4825C16.8759 21.0442 16.4212 21.5019 15.8565 21.5019H15.7108C15.1491 21.5019 14.6914 21.0472 14.6914 20.4825V17.7185C14.6914 17.1568 15.1462 16.6991 15.7108 16.6991H15.8565C16.4182 16.6991 16.8759 17.1538 16.8759 17.7185V20.4825Z" fill="white" fill-opacity="0.9"/>
</g>
</svg>
