<svg width="20" height="20" viewBox="0 0 20 20" fill="none" xmlns="http://www.w3.org/2000/svg">
<g id="&#229;&#139;&#190;&#233;&#128;&#137; (9) 1">
<path id="Vector" d="M10.5 2C15.1941 2 19 5.80587 19 10.5C19 15.1941 15.1941 19 10.5 19C5.80587 19 2 15.1941 2 10.5C2 5.80587 5.80587 2 10.5 2ZM15.1077 7.26221C15.0108 7.16179 14.8951 7.08144 14.7672 7.02574C14.6393 6.97005 14.5016 6.94009 14.3621 6.93759C14.2226 6.93509 14.084 6.9601 13.9541 7.01118C13.8243 7.06226 13.7057 7.13841 13.6053 7.23529L9.15346 11.5313L7.39325 9.88092L7.31038 9.81079C7.09373 9.64477 6.8215 9.56849 6.55014 9.59776C6.27877 9.62704 6.02907 9.75962 5.85282 9.96803C5.67657 10.1764 5.58728 10.4447 5.60346 10.7171C5.61965 10.9896 5.74006 11.2454 5.93975 11.4315L8.273 13.6188L8.35658 13.6896C8.59175 13.8688 8.88358 13.9361 9.16125 13.8936C9.47787 13.9425 9.81292 13.8476 10.0608 13.6082L15.0808 8.76458L15.1552 8.68525C15.3248 8.48424 15.4138 8.22747 15.4051 7.9646C15.3963 7.70174 15.2903 7.45147 15.1077 7.26221Z" fill="#EBB94C"/>
</g>
</svg>
