<svg width="18" height="18" viewBox="0 0 18 18" fill="none" xmlns="http://www.w3.org/2000/svg">
<path d="M17.2925 5.49687C16.8383 4.42564 16.1912 3.46293 15.3631 2.63689C14.5371 1.81085 13.5744 1.16168 12.5031 0.707459C11.3937 0.23716 10.2159 0 9 0C7.78406 0 6.6063 0.23716 5.49687 0.707459C4.42564 1.16168 3.46293 1.80884 2.63689 2.63689C1.81085 3.46293 1.16168 4.42564 0.707459 5.49687C0.237159 6.6063 0 7.78606 0 9C0 10.2139 0.237159 11.3937 0.707459 12.5031C1.16168 13.5744 1.80884 14.5371 2.63689 15.3631C3.46293 16.1891 4.42564 16.8383 5.49687 17.2925C6.6063 17.7628 7.78606 18 9 18C10.2139 18 11.3937 17.7628 12.5031 17.2925C13.5744 16.8383 14.5371 16.1912 15.3631 15.3631C16.1891 14.5371 16.8383 13.5744 17.2925 12.5031C17.7628 11.3937 18 10.2139 18 9C18 7.78606 17.7628 6.6063 17.2925 5.49687ZM9 16.3741C4.93412 16.3741 1.62595 13.0659 1.62595 9C1.62595 4.93412 4.93412 1.62595 9 1.62595C13.0659 1.62595 16.3741 4.93412 16.3741 9C16.3741 13.0659 13.0679 16.3741 9 16.3741Z" fill="white"/>
<path d="M11.7528 9.13199H8.87677V4.96964C8.87677 4.49532 8.48888 4.10742 8.01456 4.10742C7.54024 4.10742 7.15234 4.49532 7.15234 4.96964V9.9942C7.15234 10.4685 7.54024 10.8564 8.01456 10.8564H11.7528C12.2272 10.8564 12.6151 10.4685 12.6151 9.9942C12.613 9.51988 12.2251 9.13199 11.7528 9.13199Z" fill="#F4B62C"/>
</svg>
