<svg width="18" height="18" viewBox="0 0 18 18" fill="none" xmlns="http://www.w3.org/2000/svg">
<g id="Group 90">
<path id="Vector" d="M17.2925 5.49687C16.8383 4.42564 16.1912 3.46293 15.3631 2.63689C14.5371 1.81085 13.5744 1.16168 12.5031 0.707459C11.3937 0.23716 10.2159 0 9 0C7.78406 0 6.6063 0.23716 5.49687 0.707459C4.42564 1.16168 3.46293 1.80884 2.63689 2.63689C1.81085 3.46293 1.16168 4.42564 0.707459 5.49687C0.237159 6.6063 0 7.78606 0 9C0 10.2139 0.237159 11.3937 0.707459 12.5031C1.16168 13.5744 1.80884 14.5371 2.63689 15.3631C3.46293 16.1891 4.42564 16.8383 5.49687 17.2925C6.6063 17.7628 7.78606 18 9 18C10.2139 18 11.3937 17.7628 12.5031 17.2925C13.5744 16.8383 14.5371 16.1912 15.3631 15.3631C16.1891 14.5371 16.8383 13.5744 17.2925 12.5031C17.7628 11.3937 18 10.2139 18 9C18 7.78606 17.7628 6.6063 17.2925 5.49687ZM9 16.3741C4.93412 16.3741 1.62595 13.0659 1.62595 9C1.62595 4.93412 4.93412 1.62595 9 1.62595C13.0659 1.62595 16.3741 4.93412 16.3741 9C16.3741 13.0659 13.0679 16.3741 9 16.3741Z" fill="white"/>
<path id="Vector_2" d="M11.6005 10.0246H8.72443V5.86222C8.72443 5.3879 8.33653 5 7.86222 5C7.3879 5 7 5.3879 7 5.86222V10.8868C7 11.3611 7.3879 11.749 7.86222 11.749H11.6005C12.0748 11.749 12.4627 11.3611 12.4627 10.8868C12.4607 10.4125 12.0728 10.0246 11.6005 10.0246Z" fill="white"/>
</g>
</svg>
