<?xml version="1.0" standalone="no"?>
<!DOCTYPE svg PUBLIC "-//W3C//DTD SVG 20010904//EN"
 "http://www.w3.org/TR/2001/REC-SVG-20010904/DTD/svg10.dtd">
<svg version="1.0" xmlns="http://www.w3.org/2000/svg"
 width="512.000000pt" height="512.000000pt" viewBox="0 0 512.000000 512.000000"
 preserveAspectRatio="xMidYMid meet">

<g transform="translate(0.000000,512.000000) scale(0.100000,-0.100000)"
fill="#000000" stroke="none">
<path d="M4855 5113 c-65 -16 -4745 -1939 -4774 -1962 -110 -86 -102 -266 14
-340 38 -24 152 -47 1162 -231 l1120 -203 204 -1120 c230 -1266 208 -1180 315
-1233 63 -31 125 -29 191 4 50 26 66 45 102 122 78 170 1921 4694 1927 4729
23 141 -119 268 -261 234z"/>
</g>
</svg>
