<svg width="32" height="32" viewBox="0 0 32 32" fill="none" xmlns="http://www.w3.org/2000/svg">
<g id="Group 1470">
<circle id="Ellipse 11" cx="16" cy="16" r="16" fill="white" fill-opacity="0.08"/>
<path id="Vector" d="M23.7589 23.5477H20.382C19.7607 23.5477 19.2564 23.0434 19.2564 22.4221V20.1967C19.2564 19.5754 19.7607 19.0711 20.382 19.0711H21.5076V16.8333H11.3769V19.0711H12.5025C13.1239 19.0711 13.6282 19.5754 13.6282 20.1967V22.4221C13.6282 23.0434 13.1239 23.5477 12.5025 23.5477H9.12564C8.50429 23.5477 8 23.0434 8 22.4221V20.1967C8 19.5754 8.50429 19.0711 9.12564 19.0711H10.2513V16.2772C10.2513 16.2761 10.2513 16.2761 10.2513 16.275V16.2739C10.2513 15.9643 10.5023 15.7144 10.8107 15.7144H15.8795V13.4755H14.7538C14.1325 13.4755 13.6282 12.9724 13.6282 12.3499V10.1256C13.6282 9.50316 14.1325 9 14.7538 9H18.1307C18.7521 9 19.2564 9.50316 19.2564 10.1256V12.3499C19.2564 12.9724 18.7521 13.4755 18.1307 13.4755H17.0051V15.7144H22.0738C22.3823 15.7144 22.6333 15.9643 22.6333 16.2739V16.275C22.6333 16.2761 22.6333 16.2761 22.6333 16.2772V19.0711H23.7589C24.3803 19.0711 24.8846 19.5754 24.8846 20.1967V22.4221C24.8846 23.0434 24.3803 23.5477 23.7589 23.5477Z" fill="white" fill-opacity="0.9"/>
</g>
</svg>
