<svg width="14" height="14" viewBox="0 0 14 14" fill="none" xmlns="http://www.w3.org/2000/svg">
<path d="M9.4375 1.75H7.96422C7.60273 0.732812 6.64023 0 5.5 0C4.35977 0 3.39727 0.732812 3.03633 1.75H1.5625C0.837891 1.75 0.25 2.33734 0.25 3.0625V12.6875C0.25 13.4121 0.837891 14 1.5625 14H9.4375C10.1621 14 10.75 13.4127 10.75 12.6875V3.0625C10.75 2.33734 10.1621 1.75 9.4375 1.75ZM5.5 1.75C5.98316 1.75 6.375 2.14184 6.375 2.625C6.375 3.10816 5.98316 3.5 5.5 3.5C5.01684 3.5 4.625 3.10898 4.625 2.625C4.625 2.14184 5.01602 1.75 5.5 1.75ZM7.6875 6.125H3.3125C3.07188 6.125 2.875 5.92812 2.875 5.6875C2.875 5.44688 3.07188 5.25 3.3125 5.25H7.6875C7.92812 5.25 8.125 5.44688 8.125 5.6875C8.125 5.92812 7.92812 6.125 7.6875 6.125Z" fill="white"/>
</svg>
