<svg  viewBox="0 0 100 100"  xmlns="http://www.w3.org/2000/svg">
<rect width="100" height="100" rx="50" fill="#BB3333"/>
<path d="M44.45 35.1056C44.7875 34.428 45.4812 34 46.2375 34H53.7625C54.5188 34 55.2125 34.428 55.55 35.1056L56 36H62C63.1063 36 64 36.8956 64 38C64 39.1044 63.1063 40 62 40H38C36.8956 40 36 39.1044 36 38C36 36.8956 36.8956 36 38 36H44L44.45 35.1056ZM37.9438 42H62V62C62 64.2062 60.2062 66 58 66H41.9437C39.7906 66 37.9438 64.2062 37.9438 62V42ZM42.9437 47V61C42.9437 61.55 43.45 62 43.9437 62C44.55 62 44.9438 61.55 44.9438 61V47C44.9438 46.45 44.55 46 43.9437 46C43.45 46 42.9437 46.45 42.9437 47ZM48.9438 47V61C48.9438 61.55 49.45 62 49.9438 62C50.55 62 51 61.55 51 61V47C51 46.45 50.55 46 49.9438 46C49.45 46 48.9438 46.45 48.9438 47ZM55 47V61C55 61.55 55.45 62 56 62C56.55 62 57 61.55 57 61V47C57 46.45 56.55 46 56 46C55.45 46 55 46.45 55 47Z" fill="white"/>
</svg>
