<svg width="130" height="130" viewBox="0 0 130 130" fill="none" xmlns="http://www.w3.org/2000/svg">
<g id="Frame" clip-path="url(#clip0_15695_25474)">
<g id="Group">
<g id="Group_2">
<g id="Group_3">
<path id="Vector" d="M64.6961 128.716C99.8744 128.716 128.392 100.191 128.392 65.0026C128.392 29.8146 99.8744 1.28906 64.6961 1.28906C29.5177 1.28906 1 29.8146 1 65.0026C1 100.191 29.5177 128.716 64.6961 128.716Z" fill="#373D4D"/>
<path id="Vector_2" d="M8.90301 14.7007C10.4351 15.3949 12.2491 14.6943 12.9426 13.1621C13.6366 11.6299 12.9569 9.82476 11.4251 9.13064C9.89336 8.43652 8.06801 9.10706 7.37408 10.6393C6.68015 12.1715 7.37086 14.0066 8.90301 14.7007Z" fill="#949EB2"/>
<path id="Vector_3" d="M2.9101 19.2037C3.8851 19.6456 5.03974 19.1998 5.48117 18.2245C5.9226 17.2493 5.49046 16.1004 4.5151 15.6585C3.5401 15.2169 2.37832 15.6435 1.93689 16.6187C1.49546 17.594 1.9351 18.7618 2.9101 19.2037Z" fill="#949EB2"/>
<path id="Vector_4" d="M120.575 121.343C121.851 122.439 123.788 122.276 124.884 121C125.979 119.724 125.833 117.8 124.557 116.704C123.282 115.608 121.342 115.74 120.246 117.016C119.151 118.292 119.299 120.248 120.575 121.343Z" fill="#949EB2"/>
<path id="Vector_5" d="M113.56 123.985C114.372 124.682 115.605 124.578 116.303 123.766C117 122.953 116.907 121.73 116.095 121.032C115.283 120.334 114.048 120.418 113.351 121.23C112.654 122.043 112.748 123.287 113.56 123.985Z" fill="#949EB2"/>
<path id="Vector_6" d="M114.535 12.5303C115.811 13.6263 117.749 13.4627 118.844 12.1866C119.94 10.9105 119.794 8.98714 118.518 7.89112C117.242 6.79547 115.302 6.92693 114.206 8.20299C113.111 9.47906 113.26 11.4346 114.535 12.5303Z" fill="#949EB2"/>
</g>
<g id="Group_4">
<path id="Vector_7" d="M124.345 25.6656V101.514C124.345 107.136 119.787 111.696 114.158 111.696H106.226C111.846 111.696 116.405 107.136 116.405 101.514V25.6656C116.405 20.0437 111.846 15.4839 106.226 15.4839H114.158C119.787 15.4839 124.345 20.0437 124.345 25.6656Z" fill="url(#paint0_linear_15695_25474)"/>
<path id="Vector_8" d="M116.405 25.6691V101.513C116.405 107.137 111.847 111.696 106.225 111.696H22.0179C16.3957 111.696 11.8379 107.137 11.8379 101.513V25.6691C11.8379 20.0454 16.3957 15.4863 22.0179 15.4863H106.225C111.847 15.4863 116.405 20.0454 116.405 25.6691Z" fill="#EFF2FB"/>
<path id="Vector_9" d="M108.96 56.041V98.0118C108.96 100.511 106.934 102.538 104.435 102.538H24.6799C22.181 102.538 20.1553 100.511 20.1553 98.0118V56.041C20.1553 53.5414 22.181 51.5151 24.6799 51.5151H104.435C106.934 51.5151 108.96 53.5414 108.96 56.041Z" fill="url(#paint1_linear_15695_25474)"/>
<path id="Vector_10" d="M116.405 42.9821V25.6691C116.405 20.0454 111.847 15.4863 106.225 15.4863H22.0179C16.3957 15.4863 11.8379 20.0454 11.8379 25.6691V42.9825H116.405V42.9821Z" fill="url(#paint2_linear_15695_25474)"/>
<g id="Group_5">
<path id="Vector_11" d="M36.6718 29.2379C36.6718 31.6428 34.7225 33.5927 32.3111 33.5927C29.9068 33.5927 27.9575 31.6428 27.9575 29.2379C27.9575 26.8258 29.9068 24.876 32.3111 24.876C34.7222 24.876 36.6718 26.8258 36.6718 29.2379Z" fill="url(#paint3_linear_15695_25474)"/>
<path id="Vector_12" d="M82.4708 29.2343C82.4708 31.4599 80.6672 33.2639 78.4422 33.2639H49.989C47.764 33.2639 45.9604 31.4599 45.9604 29.2343C45.9604 27.0087 47.764 25.2046 49.989 25.2046H78.4422C80.6669 25.2042 82.4708 27.0087 82.4708 29.2343Z" fill="url(#paint4_linear_15695_25474)"/>
<path id="Vector_13" d="M100.286 29.2379C100.286 31.6428 98.3363 33.5927 95.9249 33.5927C93.5206 33.5927 91.5713 31.6428 91.5713 29.2379C91.5713 26.8258 93.5206 24.876 95.9249 24.876C98.3359 24.876 100.286 26.8258 100.286 29.2379Z" fill="url(#paint5_linear_15695_25474)"/>
</g>
<g id="Group_6">
<path id="Vector_14" d="M70.9148 90.5375H55.5987C53.8448 90.5375 52.5726 88.8099 53.1537 87.1391C54.6098 82.954 58.5787 79.9492 63.2601 79.9492C67.9355 79.9492 71.9044 82.9543 73.3601 87.1391C73.9412 88.8106 72.668 90.5375 70.9148 90.5375Z" fill="url(#paint6_linear_15695_25474)"/>
<path id="Vector_15" d="M68.002 89.1312C68.457 89.1312 68.6612 88.5714 68.3234 88.2667C66.9809 87.0546 65.2077 86.3154 63.2591 86.3154C61.3073 86.3154 59.533 87.0542 58.1905 88.2667C57.8527 88.5718 58.057 89.1316 58.512 89.1316H68.002V89.1312Z" fill="url(#paint7_linear_15695_25474)"/>
<g id="Group_7">
<g id="Group_8">
<path id="Vector_16" d="M82.698 74.5645L76.2834 70.2458C75.4066 69.6553 75.4041 68.3603 76.2845 67.7676L82.6991 63.4528C83.3834 62.9931 84.3105 63.1742 84.7713 63.859C85.2309 64.5431 85.0491 65.4712 84.3648 65.9314L79.792 69.0072L84.3659 72.0866C85.0491 72.5471 85.2309 73.4752 84.7702 74.1593C84.3105 74.8442 83.382 75.0249 82.698 74.5645Z" fill="url(#paint8_linear_15695_25474)"/>
</g>
<g id="Group_9">
<path id="Vector_17" d="M41.7432 74.1597C41.2825 73.4756 41.4642 72.5475 42.1475 72.087L46.7214 69.0076L42.1485 65.9317C41.4643 65.4712 41.2825 64.5435 41.7421 63.8593C42.2028 63.1745 43.13 62.9938 43.8143 63.4532L50.2289 67.7679C51.1093 68.3609 51.1064 69.6556 50.23 70.2461L43.8153 74.5648C43.131 75.0249 42.2028 74.8441 41.7432 74.1597Z" fill="url(#paint9_linear_15695_25474)"/>
</g>
</g>
<g id="Group_10">
<path id="Vector_18" d="M95.4647 84.1617C96.5429 86.3073 95.6769 88.9173 93.5347 89.994C91.3926 91.0708 88.7822 90.2095 87.704 88.0635C87.0047 86.6721 87.2369 83.0539 87.4854 80.6883C87.5965 79.6301 88.7626 79.0439 89.6779 79.5858C91.724 80.7979 94.7654 82.7703 95.4647 84.1617Z" fill="url(#paint10_linear_15695_25474)"/>
</g>
</g>
</g>
<path id="Vector_19" d="M35.5428 115.373C43.0763 107.838 43.0763 95.6202 35.5428 88.0845C28.0092 80.5489 15.7949 80.5489 8.26132 88.0845C0.727762 95.6202 0.72776 107.838 8.26132 115.373C15.7949 122.909 28.0092 122.909 35.5428 115.373Z" fill="#707686"/>
<g id="Group_11">
<g id="Group_12">
<path id="Vector_20" d="M30.3407 110.166C29.3196 111.187 27.7075 111.109 26.7807 110.166L21.9071 105.29L17.0246 110.165C16.0392 111.151 14.45 111.151 13.4646 110.165C12.4757 109.176 12.4896 107.58 13.4646 106.604L18.3382 101.729L13.4646 96.8544C12.4792 95.8688 12.4792 94.2705 13.4646 93.2934C14.3885 92.3521 16.0007 92.2692 17.0246 93.2934L21.9071 98.1683L26.7807 93.2934C27.766 92.3078 29.355 92.3078 30.3407 93.2934C31.3292 94.2644 31.3175 95.8945 30.3407 96.8544L25.4671 101.729L30.3407 106.604C31.326 107.59 31.326 109.189 30.3407 110.166Z" fill="#F1F3F9"/>
</g>
</g>
</g>
</g>
</g>
<defs>
<linearGradient id="paint0_linear_15695_25474" x1="124" y1="67.5" x2="115" y2="41" gradientUnits="userSpaceOnUse">
<stop stop-color="#8891A4"/>
<stop offset="1" stop-color="#9CA4B7"/>
</linearGradient>
<linearGradient id="paint1_linear_15695_25474" x1="20.1554" y1="77.0263" x2="108.96" y2="77.0263" gradientUnits="userSpaceOnUse">
<stop offset="1.1e-07" stop-color="#D6DCE8"/>
<stop offset="1" stop-color="#F1F3F9"/>
</linearGradient>
<linearGradient id="paint2_linear_15695_25474" x1="64.2443" y1="42.0321" x2="63.9303" y2="22.2549" gradientUnits="userSpaceOnUse">
<stop stop-color="#868D9E"/>
<stop offset="1" stop-color="#939BAE"/>
</linearGradient>
<linearGradient id="paint3_linear_15695_25474" x1="27.9571" y1="29.2342" x2="36.6716" y2="29.2342" gradientUnits="userSpaceOnUse">
<stop offset="1.1e-07" stop-color="#D6DCE8"/>
<stop offset="1" stop-color="#F1F3F9"/>
</linearGradient>
<linearGradient id="paint4_linear_15695_25474" x1="45.9601" y1="29.2342" x2="82.4707" y2="29.2342" gradientUnits="userSpaceOnUse">
<stop offset="1.1e-07" stop-color="#D6DCE8"/>
<stop offset="1" stop-color="#F1F3F9"/>
</linearGradient>
<linearGradient id="paint5_linear_15695_25474" x1="91.5709" y1="29.2342" x2="100.285" y2="29.2342" gradientUnits="userSpaceOnUse">
<stop offset="1.1e-07" stop-color="#D6DCE8"/>
<stop offset="1" stop-color="#F1F3F9"/>
</linearGradient>
<linearGradient id="paint6_linear_15695_25474" x1="53.0111" y1="85.2434" x2="73.5024" y2="85.2434" gradientUnits="userSpaceOnUse">
<stop stop-color="#989FB0"/>
<stop offset="1" stop-color="#AAB2C5"/>
</linearGradient>
<linearGradient id="paint7_linear_15695_25474" x1="57.9493" y1="87.7234" x2="68.565" y2="87.7234" gradientUnits="userSpaceOnUse">
<stop offset="1.1e-07" stop-color="#D6DCE8"/>
<stop offset="1" stop-color="#F1F3F9"/>
</linearGradient>
<linearGradient id="paint8_linear_15695_25474" x1="75.6252" y1="69.0092" x2="85.0252" y2="69.0092" gradientUnits="userSpaceOnUse">
<stop stop-color="#989FB0"/>
<stop offset="1" stop-color="#AAB2C5"/>
</linearGradient>
<linearGradient id="paint9_linear_15695_25474" x1="50.8882" y1="69.0092" x2="41.4881" y2="69.0092" gradientUnits="userSpaceOnUse">
<stop stop-color="#989FB0"/>
<stop offset="1" stop-color="#AAB2C5"/>
</linearGradient>
<linearGradient id="paint10_linear_15695_25474" x1="87.0269" y1="86.7166" x2="94.7885" y2="82.8164" gradientUnits="userSpaceOnUse">
<stop stop-color="#989FB0"/>
<stop offset="1" stop-color="#AAB2C5"/>
</linearGradient>
<clipPath id="clip0_15695_25474">
<rect width="130" height="130" fill="white"/>
</clipPath>
</defs>
</svg>
