<svg width="19" height="14" viewBox="0 0 19 14" fill="none" xmlns="http://www.w3.org/2000/svg">
<path d="M9.2375 4.0125C9.325 4.00312 9.4125 4 9.5 4C11.1563 4 12.5 5.31563 12.5 7C12.5 8.65625 11.1563 10 9.5 10C7.81563 10 6.5 8.65625 6.5 7C6.5 6.9125 6.50313 6.825 6.5125 6.7375C6.80313 6.87813 7.14063 7 7.5 7C8.60313 7 9.5 6.10313 9.5 5C9.5 4.64062 9.37813 4.30312 9.2375 4.0125ZM15.5188 2.51875C16.9813 3.875 17.9594 5.47188 18.4219 6.61562C18.525 6.8625 18.525 7.1375 18.4219 7.38437C17.9594 8.5 16.9813 10.0969 15.5188 11.4812C14.0469 12.85 12.025 14 9.5 14C6.975 14 4.95313 12.85 3.48188 11.4812C2.01938 10.0969 1.04188 8.5 0.57691 7.38437C0.474363 7.1375 0.474363 6.8625 0.57691 6.61562C1.04188 5.47188 2.01938 3.875 3.48188 2.51875C4.95313 1.15125 6.975 0 9.5 0C12.025 0 14.0469 1.15125 15.5188 2.51875ZM9.5 2.5C7.01563 2.5 5 4.51562 5 7C5 9.48438 7.01563 11.5 9.5 11.5C11.9844 11.5 14 9.48438 14 7C14 4.51562 11.9844 2.5 9.5 2.5Z" fill="#AAAAAA"/>
</svg>
