<?xml version="1.0" standalone="no"?>
<!DOCTYPE svg PUBLIC "-//W3C//DTD SVG 20010904//EN"
 "http://www.w3.org/TR/2001/REC-SVG-20010904/DTD/svg10.dtd">
<svg version="1.0" xmlns="http://www.w3.org/2000/svg"
 width="200.000000pt" height="200.000000pt" viewBox="0 0 200.000000 200.000000"
 preserveAspectRatio="xMidYMid meet">

<g transform="translate(0.000000,200.000000) scale(0.100000,-0.100000)"
fill="#000000" stroke="none">
<path d="M826 1976 c-21 -8 -53 -28 -70 -45 -29 -28 -33 -30 -76 -20 -25 6
-82 22 -128 36 -111 34 -163 29 -209 -21 -37 -41 -43 -87 -18 -136 35 -67 107
-75 284 -30 l119 30 36 -33 c36 -33 36 -34 36 -115 l0 -82 -44 0 -45 0 -3
-150 c-3 -127 -6 -152 -21 -167 -16 -16 -43 -18 -247 -21 l-230 -3 0 -179 0
-178 272 -7 c374 -9 526 -9 710 0 238 12 238 11 238 -146 l0 -109 28 -11 c36
-14 268 -13 322 1 l41 11 -3 263 c-4 374 23 349 -388 356 -162 3 -302 9 -311
13 -31 15 -39 56 -39 192 l0 135 -40 0 -40 0 0 82 c0 81 0 82 36 115 20 18 44
33 54 33 10 0 64 -13 121 -30 162 -47 228 -39 264 30 44 86 -17 180 -117 180
-18 0 -90 -14 -160 -32 l-127 -32 -28 26 c-16 14 -38 31 -49 37 -38 19 -126
22 -168 7z"/>
<path d="M1626 507 c-3 -13 -24 -52 -47 -87 -60 -93 -99 -180 -99 -221 0 -51
39 -118 80 -140 80 -43 187 -12 224 64 35 75 22 123 -83 296 -28 46 -51 90
-51 98 0 22 -17 15 -24 -10z"/>
</g>
</svg>
