<svg width="24" height="11" viewBox="0 0 24 11" fill="none" xmlns="http://www.w3.org/2000/svg">
<path d="M6.8577 8.57377L1.71558 3.43164L0.00082206 5.14639L5.14295 10.2885L6.8577 8.57377Z" fill="white"/>
<path d="M13.7119 8.57181L8.56982 3.42969L6.85507 5.14444L11.9972 10.2866L13.7119 8.57181Z" fill="white"/>
<path d="M17.1402 5.14408L11.9981 0.00195312L10.2834 1.71671L15.4255 6.85883L17.1402 5.14408Z" fill="white"/>
<path d="M5.14213 0.00582407L0 5.14795L1.71475 6.8627L6.85688 1.72058L5.14213 0.00582407Z" fill="white"/>
<path d="M8.56983 3.42379L3.4277 8.56592L5.14246 10.2807L10.2846 5.13855L8.56983 3.42379Z" fill="white"/>
<path d="M17.1431 1.71676L22.2852 6.85889L24 5.14413L18.8579 0.00200779L17.1431 1.71676Z" fill="white"/>
<path d="M18.8558 10.2842L23.998 5.14209L22.2832 3.42734L17.1411 8.56946L18.8558 10.2842Z" fill="white"/>
<path d="M15.4293 6.86087L20.5714 1.71875L18.8566 0.00399589L13.7145 5.14612L15.4293 6.86087Z" fill="white"/>
<path d="M11.9992 -3.53093e-05L6.85712 5.14209L8.57187 6.85684L13.714 1.71472L11.9992 -3.53093e-05Z" fill="white"/>
<path d="M11.9992 -3.53093e-05L6.85712 5.14209L8.57187 6.85684L13.714 1.71472L11.9992 -3.53093e-05Z" fill="white"/>
<path d="M15.4275 3.42379L10.2854 8.56592L12.0002 10.2807L17.1423 5.13855L15.4275 3.42379Z" fill="white"/>
</svg>
