<svg width="32" height="32" viewBox="0 0 32 32" fill="none" xmlns="http://www.w3.org/2000/svg">
<g id="icon">
<ellipse id="Ellipse 11" cx="15.9615" cy="15.7193" rx="15.9615" ry="15.7193" fill="white" fill-opacity="0.08"/>
<path id="Vector" d="M22.4137 8.58446C22.7943 8.96385 22.9897 9.43324 23 9.99377V18.8723C22.9897 19.4329 22.7943 19.9 22.4137 20.2737C22.0331 20.6473 21.5623 20.8444 21 20.8661H11L8.70286 22.8599C8.59886 22.9533 8.48686 23 8.36686 23C8.24686 23 8.15543 22.9533 8.09371 22.8599C8.05143 22.8075 8.02629 22.7562 8.016 22.7038C8.00571 22.6514 8 22.6001 8 22.5477V9.99377C8.01029 9.43324 8.20571 8.96385 8.58629 8.58446C8.96686 8.20507 9.43771 8.01025 10 8H21C21.5623 8.01025 22.0331 8.20507 22.4137 8.58446ZM19.5931 13.3194C19.7909 13.1485 19.8903 12.9354 19.8903 12.6802C19.8903 12.4262 19.8069 12.2154 19.64 12.0491C19.4731 11.8827 19.2594 11.795 18.9989 11.7847H12.0937C11.8434 11.795 11.6331 11.8839 11.4606 12.0491C11.2891 12.2154 11.2023 12.425 11.2023 12.6802C11.2023 12.9343 11.288 13.1473 11.4606 13.3194C11.6331 13.4914 11.8434 13.5769 12.0937 13.5769H18.9063C19.1657 13.5757 19.3954 13.4903 19.5931 13.3194ZM19.5931 16.6131C19.7909 16.4468 19.8903 16.2337 19.8903 15.9739C19.8903 15.7142 19.8069 15.5011 19.64 15.3348C19.4731 15.1685 19.2594 15.0807 18.9989 15.0705H12.0937C11.8434 15.0807 11.6331 15.1696 11.4606 15.3348C11.2891 15.5011 11.2023 15.7142 11.2023 15.9739C11.2023 16.2337 11.288 16.4468 11.4606 16.6131C11.632 16.7794 11.8434 16.8672 12.0937 16.8774H18.9063C19.1657 16.8683 19.3954 16.7794 19.5931 16.6131Z" fill="white"/>
</g>
</svg>
