<svg width="14" height="14" viewBox="0 0 14 14" fill="none" xmlns="http://www.w3.org/2000/svg">
<path d="M0.614703 10.5254H10.3887C10.7985 10.5254 11.0034 10.7303 11.0034 11.1401C11.0034 11.5499 10.7985 11.7548 10.3887 11.7548H0.614703C0.204901 11.7548 0 11.5499 0 11.1401C0 10.7303 0.204901 10.5254 0.614703 10.5254Z" fill="white" fill-opacity="0.8"/>
<path d="M4.58663 4.29761H6.51492C6.92472 4.29761 7.12962 4.50251 7.12962 4.91231C7.12962 5.32211 6.92472 5.52701 6.51492 5.52701H4.58663C4.17682 5.52701 3.97192 5.32211 3.97192 4.91231C3.97192 4.50251 4.17682 4.29761 4.58663 4.29761Z" fill="white" fill-opacity="0.8"/>
<path d="M9.49089 11.7548H1.60938V1.65543C1.60938 0.742596 2.35197 0 3.2648 0H7.83546C8.7483 0 9.49089 0.742596 9.49089 1.65543V11.7548ZM2.83878 10.5254H8.26149V1.65543C8.26149 1.42048 8.07042 1.22941 7.83546 1.22941H3.2648C3.02985 1.22941 2.83878 1.42048 2.83878 1.65543V10.5254Z" fill="white" fill-opacity="0.8"/>
<path d="M12.314 9.85819C11.3842 9.85819 10.628 9.10194 10.628 8.1722V5.5493H8.94112C8.60167 5.5493 8.32642 5.27405 8.32642 4.93459C8.32642 4.59514 8.60167 4.31989 8.94112 4.31989H10.8926C11.4247 4.31989 11.8574 4.75274 11.8574 5.28463V8.1722C11.8574 8.42389 12.0623 8.62879 12.314 8.62879C12.5656 8.62879 12.7705 8.42389 12.7705 8.1722V3.3922L11.613 2.08766C11.3876 1.83376 11.4109 1.4453 11.6648 1.21991C11.9187 0.994516 12.3071 1.01774 12.5325 1.27164L13.7575 2.65199C13.9138 2.82805 14.0001 3.05534 14 3.29077V8.1722C14 9.10177 13.2437 9.85819 12.314 9.85819Z" fill="white" fill-opacity="0.8"/>
</svg>
