<svg width="20" height="21" viewBox="0 0 20 21" fill="none" xmlns="http://www.w3.org/2000/svg">
<path id="Vector" d="M10 0.125C4.475 0.125 1.45953e-06 4.7133 1.45953e-06 10.3782C-0.00113276 12.5306 0.658815 14.6288 1.88622 16.3749C3.11362 18.1211 4.84615 19.4267 6.838 20.1064C7.338 20.1956 7.525 19.888 7.525 19.6184C7.525 19.3754 7.512 18.5684 7.512 17.7092C5 18.1839 4.35 17.0817 4.15 16.5045C4.037 16.2092 3.55 15.2997 3.125 15.0557C2.775 14.864 2.275 14.3892 3.112 14.3769C3.9 14.3636 4.462 15.1203 4.65 15.4279C5.55 16.9782 6.988 16.5424 7.562 16.2738C7.65 15.6073 7.912 15.1593 8.2 14.9029C5.975 14.6466 3.65 13.7617 3.65 9.8399C3.65 8.72435 4.037 7.80259 4.675 7.08384C4.575 6.82751 4.225 5.77656 4.775 4.36674C4.775 4.36674 5.612 4.09811 7.525 5.41872C8.33906 5.18706 9.18017 5.07046 10.025 5.07216C10.875 5.07216 11.725 5.187 12.525 5.4177C14.437 4.08478 15.275 4.36777 15.275 4.36777C15.825 5.77758 15.475 6.82853 15.375 7.08486C16.012 7.80259 16.4 8.71204 16.4 9.8399C16.4 13.7751 14.063 14.6466 11.838 14.9029C12.2 15.2228 12.513 15.838 12.513 16.7998C12.513 18.1706 12.5 19.2728 12.5 19.6194C12.5 19.888 12.688 20.2079 13.188 20.1054C15.173 19.4182 16.8979 18.1101 18.1199 16.3652C19.3419 14.6202 19.9994 12.5263 20 10.3782C20 4.7133 15.525 0.125 10 0.125Z" fill="white"/>
</svg>
