<svg width="25" height="23" viewBox="0 0 25 23" fill="none" xmlns="http://www.w3.org/2000/svg">
<path d="M14.4531 0.5625H23.8281C24.4753 0.5625 25 1.08716 25 1.73438V9.54688C25 10.1941 24.4753 10.7188 23.8281 10.7188H14.4531C13.8059 10.7188 13.2812 10.1941 13.2812 9.54688V1.73438C13.2812 1.08716 13.8059 0.5625 14.4531 0.5625ZM10.5469 0.5625H1.17188C0.524658 0.5625 0 1.08716 0 1.73438V9.54688C0 10.1941 0.524658 10.7188 1.17188 10.7188H10.5469C11.1941 10.7188 11.7188 10.1941 11.7188 9.54688V1.73438C11.7188 1.08716 11.1941 0.5625 10.5469 0.5625ZM0 13.4531V21.2656C0 21.9128 0.524658 22.4375 1.17188 22.4375H10.5469C11.1941 22.4375 11.7188 21.9128 11.7188 21.2656V13.4531C11.7188 12.8059 11.1941 12.2812 10.5469 12.2812H1.17188C0.524658 12.2812 0 12.8059 0 13.4531ZM14.4531 22.4375H23.8281C24.4753 22.4375 25 21.9128 25 21.2656V13.4531C25 12.8059 24.4753 12.2812 23.8281 12.2812H14.4531C13.8059 12.2812 13.2812 12.8059 13.2812 13.4531V21.2656C13.2812 21.9128 13.8059 22.4375 14.4531 22.4375Z" fill="#AAAAAA"/>
</svg>
