<svg width="32" height="32" viewBox="0 0 32 32" fill="none" xmlns="http://www.w3.org/2000/svg">
<circle cx="16" cy="16" r="16" fill="#F25A54"/>
<path d="M21.0998 9.74825L13.5276 9.74827C13.1591 9.74825 12.8604 10.047 12.8604 10.4155C12.8604 10.7841 13.1591 11.0828 13.5277 11.0828L19.5229 11.0828L10.2579 20.3478C10.0067 20.599 10.0067 21.0062 10.2579 21.2574C10.5091 21.5086 10.9163 21.5086 11.1675 21.2574L20.4325 11.9924L20.4325 17.9876C20.4325 18.3562 20.7312 18.6549 21.0998 18.6549C21.284 18.6549 21.4508 18.5802 21.5716 18.4595C21.6923 18.3387 21.767 18.1719 21.767 17.9877L21.767 10.4155C21.767 10.3279 21.7498 10.2411 21.7162 10.1602C21.6827 10.0792 21.6336 10.0056 21.5716 9.94369C21.5096 9.88173 21.4361 9.83258 21.3551 9.79904C21.2742 9.76551 21.1874 9.74825 21.0998 9.74825Z" fill="#070706"/>
</svg>
