<svg width="33" height="32" viewBox="0 0 33 32" fill="none" xmlns="http://www.w3.org/2000/svg">
<circle cx="16.5234" cy="16" r="16" fill="#3AC79C"/>
<path d="M16.9737 23.8046L22.328 18.4502C22.5886 18.1897 22.5886 17.7672 22.328 17.5066C22.0674 17.246 21.6449 17.246 21.3843 17.5066L17.1451 21.7458L17.1451 8.64321C17.1451 8.28797 16.8571 8 16.5019 8C16.1466 8 15.8587 8.28799 15.8587 8.64321L15.8587 21.7459L11.6194 17.5066C11.3588 17.246 10.9363 17.246 10.6757 17.5066C10.5455 17.6369 10.4803 17.8077 10.4803 17.9784C10.4803 18.1492 10.5455 18.32 10.6757 18.4502L16.0301 23.8046C16.092 23.8665 16.1656 23.9157 16.2465 23.9492C16.3275 23.9827 16.4143 24 16.5019 24C16.5895 24 16.6763 23.9827 16.7572 23.9492C16.8382 23.9157 16.9117 23.8665 16.9737 23.8046Z" fill="#070706"/>
</svg>
