<svg width="32" height="32" viewBox="0 0 32 32" fill="none" xmlns="http://www.w3.org/2000/svg">
<circle cx="16" cy="16" r="16" fill="#62B3ED"/>
<path d="M21.5054 16.7456V21.7834C21.5054 22.1976 21.1651 22.5324 20.7466 22.5324H10.6145C10.1949 22.5324 9.8557 22.1966 9.8557 21.7834V11.7821C9.8557 11.3679 10.1959 11.0331 10.6145 11.0331H15.8723L17.6074 9.20117H10.1134C8.94641 9.20015 8 10.1344 8 11.2875V22.278C8 23.4301 8.94641 24.3643 10.1134 24.3643H21.2476C22.4147 24.3643 23.3611 23.4301 23.3611 22.278V14.7865L21.5054 16.7456Z" fill="#070706"/>
<path d="M23.3612 9.7961V9.19971H22.7148L23.3612 9.7961Z" fill="#070706"/>
<path d="M23.4208 11.1723C23.561 11.0155 23.6713 10.8843 23.7517 10.7804C23.8507 10.6481 23.9187 10.5118 23.9559 10.3713C23.993 10.2309 24.0074 10.0945 23.9981 9.96015C23.9888 9.82683 23.9641 9.69758 23.9218 9.57443C23.8806 9.45129 23.8342 9.34341 23.7847 9.25283C23.6754 9.06252 23.4878 8.85286 23.2228 8.62591C22.9579 8.39896 22.6826 8.22492 22.3971 8.10483C22.3115 8.07023 22.2125 8.04377 22.0991 8.02443C21.9857 8.00509 21.8682 7.99695 21.7465 8.00102C21.6249 8.00509 21.5043 8.03155 21.3836 8.08244C21.263 8.13231 21.1486 8.21068 21.0403 8.3155C20.9321 8.4305 20.8372 8.53228 20.7558 8.62286C20.6744 8.71343 20.6022 8.7918 20.5393 8.85897C20.4671 8.9353 20.4032 9.00654 20.3496 9.07371L23.061 11.5794C23.161 11.4654 23.2806 11.329 23.4208 11.1723Z" fill="#070706"/>
<path d="M12.6893 20.4769C12.8203 20.4546 13.0079 20.4037 13.2533 20.3263C13.4986 20.249 13.7543 20.1665 14.0182 20.079C14.2821 19.9915 14.5255 19.908 14.7481 19.8266C14.9698 19.7452 15.1224 19.6801 15.2059 19.6312C15.3347 19.5712 15.4523 19.505 15.5574 19.4327C15.6626 19.3595 15.7791 19.2567 15.9059 19.1234C15.9605 19.0664 16.0894 18.932 16.2935 18.7224C16.4976 18.5127 16.7482 18.2501 17.0471 17.9346L18.0379 16.8894L19.1379 15.7302L22.0565 12.6526L19.3307 10.147L16.411 13.2256L15.31 14.3706C14.9574 14.7522 14.6337 15.0952 14.3399 15.4015C14.0461 15.7068 13.8038 15.9603 13.6131 16.1607C13.4234 16.3612 13.3141 16.4803 13.2873 16.518C13.2058 16.6126 13.1203 16.7225 13.0316 16.8457C12.9419 16.9688 12.8718 17.096 12.8192 17.2273C12.7584 17.3586 12.6852 17.551 12.5996 17.8034C12.5141 18.0558 12.4316 18.3194 12.3522 18.5952C12.2728 18.871 12.2038 19.1315 12.146 19.3788C12.0883 19.6261 12.0522 19.8093 12.0378 19.9304C12.0182 20.1808 12.0615 20.3457 12.1667 20.4261C12.2718 20.5065 12.4471 20.5227 12.6893 20.4769ZM16.9873 15.485L16.843 13.4577L18.8967 13.3152L19.041 15.3425L16.9873 15.485Z" fill="#070706"/>
</svg>
