<svg width="57" height="57" viewBox="0 0 57 57" fill="none" xmlns="http://www.w3.org/2000/svg">
    <circle cx="28.5" cy="28.5" r="28.5" fill="white" fill-opacity="0.03"/>
    <circle cx="28.2093" cy="29.2093" r="21.2093" fill="white" fill-opacity="0.04"/>
    <path d="M29 18C22.9341 18 18 22.9341 18 29C18 35.0659 22.9341 40 29 40C35.0659 40 40 35.0659 40 29C40 22.9341 35.0659 18 29 18ZM29.7892 34.5245C29.7892 34.9609 29.4365 35.3137 29 35.3137C28.5635 35.3137 28.2108 34.9609 28.2108 34.5245V27.4216C28.2108 26.9852 28.5635 26.6324 29 26.6324C29.4364 26.6324 29.7892 26.9851 29.7892 27.4216V34.5245ZM29 25.054C28.3465 25.054 27.8162 24.5228 27.8162 23.8702C27.8162 23.2159 28.3465 22.6863 29 22.6863C29.6535 22.6863 30.1838 23.2159 30.1838 23.8702C30.1838 24.5228 29.6535 25.054 29 25.054Z" fill="#FFBA33"/>
</svg>
