<svg width="28" height="28" viewBox="0 0 28 28" fill="none" xmlns="http://www.w3.org/2000/svg">
<g id="&#232;&#175;&#173;&#232;&#168;&#128; 1">
<path id="Vector" d="M14 4C19.5229 4 24 8.47708 24 14C24 19.5229 19.5229 24 14 24C8.47708 24 4 19.5229 4 14C4 8.47708 8.47708 4 14 4ZM17.3154 14.8333H10.6846C10.8688 19.0871 12.4388 22.3333 14 22.3333C15.5608 22.3333 17.1313 19.0871 17.3154 14.8333ZM9.01625 14.8333L5.70792 14.8337C6.01375 17.9112 7.99375 20.4963 10.7246 21.665C9.7425 19.9904 9.12167 17.5567 9.01625 14.8337V14.8333ZM22.2921 14.8337H18.9838C18.8783 17.5571 18.2575 19.9904 17.2754 21.6646C20.0063 20.4967 21.9862 17.9112 22.2921 14.8337ZM10.725 6.33542L10.6325 6.37542C7.94875 7.56208 6.01 10.1238 5.70833 13.1667H9.01667C9.12208 10.4433 9.74292 8.00958 10.725 6.33542ZM14 5.66667L13.9375 5.66833C12.3975 5.75333 10.8667 8.97 10.6846 13.1667H17.3154C17.1313 8.91333 15.5612 5.66667 14 5.66667ZM17.2754 6.335L17.3367 6.44125C18.2833 8.11125 18.8804 10.5 18.9833 13.1667H22.2917C21.9862 10.0887 20.0058 7.50375 17.275 6.335H17.2754Z" fill="white" fill-opacity="0.85"/>
</g>
</svg>
