<svg width="24" height="20" viewBox="0 0 24 20" fill="none" xmlns="http://www.w3.org/2000/svg">
<path d="M3.625 0.25C4.24844 0.25 4.75 0.753906 4.75 1.375V3.625C4.75 4.24844 4.24844 4.75 3.625 4.75H1.375C0.753906 4.75 0.25 4.24844 0.25 3.625V1.375C0.25 0.753906 0.753906 0.25 1.375 0.25H3.625ZM22 1C22.8297 1 23.5 1.67172 23.5 2.5C23.5 3.32969 22.8297 4 22 4H8.5C7.67031 4 7 3.32969 7 2.5C7 1.67172 7.67031 1 8.5 1H22ZM22 8.5C22.8297 8.5 23.5 9.17031 23.5 10C23.5 10.8297 22.8297 11.5 22 11.5H8.5C7.67031 11.5 7 10.8297 7 10C7 9.17031 7.67031 8.5 8.5 8.5H22ZM22 16C22.8297 16 23.5 16.6703 23.5 17.5C23.5 18.3297 22.8297 19 22 19H8.5C7.67031 19 7 18.3297 7 17.5C7 16.6703 7.67031 16 8.5 16H22ZM0.25 8.875C0.25 8.25156 0.753906 7.75 1.375 7.75H3.625C4.24844 7.75 4.75 8.25156 4.75 8.875V11.125C4.75 11.7484 4.24844 12.25 3.625 12.25H1.375C0.753906 12.25 0.25 11.7484 0.25 11.125V8.875ZM3.625 15.25C4.24844 15.25 4.75 15.7516 4.75 16.375V18.625C4.75 19.2484 4.24844 19.75 3.625 19.75H1.375C0.753906 19.75 0.25 19.2484 0.25 18.625V16.375C0.25 15.7516 0.753906 15.25 1.375 15.25H3.625Z" fill="#AAAAAA"/>
</svg>
