<?xml version="1.0" standalone="no"?>
<!DOCTYPE svg PUBLIC "-//W3C//DTD SVG 20010904//EN"
 "http://www.w3.org/TR/2001/REC-SVG-20010904/DTD/svg10.dtd">
<svg version="1.0" xmlns="http://www.w3.org/2000/svg"
 width="512.000000pt" height="512.000000pt" viewBox="0 0 512.000000 512.000000"
 preserveAspectRatio="xMidYMid meet">

<g transform="translate(0.000000,512.000000) scale(0.100000,-0.100000)"
fill="#000000" stroke="none">
<path d="M2405 5114 c-706 -76 -1274 -594 -1416 -1291 -19 -93 -23 -151 -27
-409 l-4 -301 -69 -52 c-117 -90 -204 -227 -235 -370 -11 -54 -14 -253 -14
-1091 0 -1144 -2 -1102 70 -1245 89 -176 248 -300 439 -341 100 -21 2724 -20
2826 1 215 45 409 223 478 440 l22 70 0 1080 0 1080 -27 73 c-15 41 -42 99
-60 129 -38 64 -128 160 -186 198 l-40 26 -4 302 c-4 259 -8 317 -27 410 -131
645 -625 1139 -1266 1267 -98 20 -368 34 -460 24z m386 -663 c176 -46 317
-127 445 -255 128 -127 208 -266 256 -445 18 -64 22 -114 26 -313 l4 -238
-962 0 -962 0 4 238 c4 199 8 249 26 313 49 182 129 319 261 449 154 153 303
227 551 274 59 11 277 -3 351 -23z m-116 -2226 c184 -48 326 -202 358 -390 22
-131 -22 -284 -113 -387 l-40 -46 0 -221 0 -221 -320 0 -320 0 0 221 0 221
-38 43 c-105 119 -145 281 -107 428 67 258 329 417 580 352z"/>
</g>
</svg>
