<svg width="24" height="15" viewBox="0 0 24 15" fill="none" xmlns="http://www.w3.org/2000/svg">
<path id="Vector" d="M13.54 7.56999C13.5453 9.37174 12.8354 11.1019 11.566 12.3807C10.2967 13.6594 8.57176 14.382 6.77002 14.39C4.96829 14.382 3.24335 13.6594 1.97401 12.3807C0.704677 11.1019 -0.00528713 9.37174 2.96483e-05 7.56999C-0.00528713 5.76825 0.704677 4.03804 1.97401 2.75933C3.24335 1.48062 4.96829 0.757941 6.77002 0.75C8.57176 0.757941 10.2967 1.48062 11.566 2.75933C12.8354 4.03804 13.5453 5.76825 13.54 7.56999ZM20.96 7.56999C20.96 11.11 19.45 13.99 17.58 13.99C15.71 13.99 14.19 11.11 14.19 7.56999C14.19 4.03 15.71 1.15 17.58 1.15C19.45 1.15 20.96 4.03 20.96 7.56999ZM24 7.56999C24 10.74 23.47 13.32 22.81 13.32C22.15 13.32 21.62 10.74 21.62 7.56999C21.62 4.4 22.15 1.82 22.81 1.82C23.47 1.82 24 4.4 24 7.56999Z" fill="white"/>
</svg>
