<svg width="13" height="15" viewBox="0 0 13 15" fill="none" xmlns="http://www.w3.org/2000/svg">
<path d="M10.5259 11.6454L9.40502 10.7135L7.29268 12.4693L7.29268 8.03147C8.2439 7.63692 10.1089 6.73317 10.8185 6.40267C12.2657 5.72901 13 4.7512 13 3.49692L13 0L11.4146 -6.92985e-08L11.4146 3.49665C11.4146 4.26994 10.9913 4.81155 10.043 5.25302C9.32671 5.58669 7.33739 6.50361 6.49873 6.88973C5.31692 6.34538 4.13593 5.79981 2.95576 5.25302C2.00771 4.81155 1.58537 4.26994 1.58537 3.49665L1.58537 -4.98949e-07L1.40071e-06 -5.68248e-07L1.24787e-06 3.49665C1.19304e-06 4.75094 0.733709 5.72874 2.18146 6.40293C2.89139 6.73317 4.7561 7.63692 5.70732 8.03147L5.70732 12.4854L3.57563 10.7135L2.45478 11.6454L6.49049 15L10.5259 11.6454Z" fill="white"/>
</svg>
