<svg width="18" height="18" viewBox="0 0 18 18" fill="none" xmlns="http://www.w3.org/2000/svg">
<path id="Vector" d="M6.11512 8.34989H1.21896C0.548533 8.34989 0 7.80135 0 7.13093V2.23476C0 1.56433 0.548533 1.0158 1.21896 1.0158H6.12528C6.79571 1.0158 7.34424 1.56433 7.34424 2.23476V7.14108C7.33409 7.81151 6.79571 8.34989 6.11512 8.34989ZM1.21896 2.23476V7.14108H6.12528V2.23476H1.21896ZM13.3172 9.36569C12.9921 9.36569 12.6874 9.24379 12.4537 9.01016L8.98984 5.54628C8.75621 5.31264 8.63431 5.0079 8.63431 4.68284C8.63431 4.35779 8.75621 4.05305 8.98984 3.81941L12.4537 0.35553C12.6874 0.121896 12.9921 0 13.3172 0C13.6422 0 13.947 0.121896 14.1806 0.35553L17.6445 3.81941C17.8781 4.05305 18 4.35779 18 4.68284C18 5.0079 17.8781 5.31264 17.6445 5.54628L14.1806 9.01016C13.947 9.24379 13.6422 9.36569 13.3172 9.36569ZM13.3172 1.2088L9.85327 4.67269L13.3172 8.13657L16.781 4.67269L13.3172 1.2088ZM6.11512 18H1.21896C0.548533 18 0 17.4515 0 16.781V11.8747C0 11.2043 0.548533 10.6558 1.21896 10.6558H6.12528C6.79571 10.6558 7.34424 11.2043 7.34424 11.8747V16.781C7.33409 17.4616 6.79571 18 6.11512 18ZM1.21896 11.8849V16.7912H6.12528V11.8849H1.21896ZM15.7652 18H10.8589C10.1885 18 9.63995 17.4515 9.63995 16.781V11.8747C9.63995 11.2043 10.1885 10.6558 10.8589 10.6558H15.7652C16.4357 10.6558 16.9842 11.2043 16.9842 11.8747V16.781C16.9842 17.4616 16.4458 18 15.7652 18ZM10.8691 11.8849V16.7912H15.7754V11.8849H10.8691Z" fill="white"/>
</svg>
