<svg width="24" height="25" viewBox="0 0 24 25" fill="none" xmlns="http://www.w3.org/2000/svg">
<g id="more info">
<path id="Vector" d="M6.75 6.91667C6.4 6.91667 6.16667 7.15 6.16667 7.5V10.4167C6.16667 10.7667 6.4 11 6.75 11H9.66667C10.0167 11 10.25 10.7667 10.25 10.4167V7.5C10.25 7.15 10.0167 6.91667 9.66667 6.91667H6.75ZM6.75 5.75H9.66667C10.6583 5.75 11.4167 6.50833 11.4167 7.5V10.4167C11.4167 11.4083 10.6583 12.1667 9.66667 12.1667H6.75C5.75833 12.1667 5 11.4083 5 10.4167V7.5C5 6.50833 5.75833 5.75 6.75 5.75ZM6.75 14.5C6.4 14.5 6.16667 14.7333 6.16667 15.0833V18C6.16667 18.35 6.4 18.5833 6.75 18.5833H9.66667C10.0167 18.5833 10.25 18.35 10.25 18V15.0833C10.25 14.7333 10.0167 14.5 9.66667 14.5H6.75ZM6.75 13.3333H9.66667C10.6583 13.3333 11.4167 14.0917 11.4167 15.0833V18C11.4167 18.9917 10.6583 19.75 9.66667 19.75H6.75C5.75833 19.75 5 18.9917 5 18V15.0833C5 14.0917 5.75833 13.3333 6.75 13.3333ZM14.3333 6.91667C13.9833 6.91667 13.75 7.15 13.75 7.5V10.4167C13.75 10.7667 13.9833 11 14.3333 11H17.25C17.6 11 17.8333 10.7667 17.8333 10.4167V7.5C17.8333 7.15 17.6 6.91667 17.25 6.91667H14.3333ZM14.3333 5.75H17.25C18.2417 5.75 19 6.50833 19 7.5V10.4167C19 11.4083 18.2417 12.1667 17.25 12.1667H14.3333C13.3417 12.1667 12.5833 11.4083 12.5833 10.4167V7.5C12.5833 6.50833 13.3417 5.75 14.3333 5.75ZM14.3333 14.5C13.9833 14.5 13.75 14.7333 13.75 15.0833V18C13.75 18.35 13.9833 18.5833 14.3333 18.5833H17.25C17.6 18.5833 17.8333 18.35 17.8333 18V15.0833C17.8333 14.7333 17.6 14.5 17.25 14.5H14.3333ZM14.3333 13.3333H17.25C18.2417 13.3333 19 14.0917 19 15.0833V18C19 18.9917 18.2417 19.75 17.25 19.75H14.3333C13.3417 19.75 12.5833 18.9917 12.5833 18V15.0833C12.5833 14.0917 13.3417 13.3333 14.3333 13.3333Z" fill="white" fill-opacity="0.8"/>
</g>
</svg>
