<svg width="19" height="18" viewBox="0 0 19 18" fill="none" xmlns="http://www.w3.org/2000/svg">
<path d="M6.11512 8.34971H1.21896C0.548533 8.34971 0 7.80118 0 7.13075V2.23459C0 1.56416 0.548533 1.01562 1.21896 1.01562H6.12528C6.79571 1.01562 7.34424 1.56416 7.34424 2.23459V7.14091C7.33409 7.81134 6.79571 8.34971 6.11512 8.34971ZM1.21896 2.23459V7.14091H6.12528V2.23459H1.21896ZM6.11512 17.9998H1.21896C0.548533 17.9998 0 17.4513 0 16.7809V11.8745C0 11.2041 0.548533 10.6556 1.21896 10.6556H6.12528C6.79571 10.6556 7.34424 11.2041 7.34424 11.8745V16.7809C7.33409 17.4614 6.79571 17.9998 6.11512 17.9998ZM1.21896 11.8847V16.791H6.12528V11.8847H1.21896ZM15.7652 17.9998H10.8589C10.1885 17.9998 9.63995 17.4513 9.63995 16.7809V11.8745C9.63995 11.2041 10.1885 10.6556 10.8589 10.6556H15.7652C16.4357 10.6556 16.9842 11.2041 16.9842 11.8745V16.7809C16.9842 17.4614 16.4458 17.9998 15.7652 17.9998ZM10.8691 11.8847V16.791H15.7754V11.8847H10.8691Z" fill="white"/>
<path d="M13.6828 9.36569C13.3578 9.36569 13.053 9.24379 12.8194 9.01016L9.35553 5.54628C9.1219 5.31264 9 5.0079 9 4.68284C9 4.35779 9.1219 4.05305 9.35553 3.81941L12.8194 0.35553C13.053 0.121896 13.3578 0 13.6828 0C14.0079 0 14.3126 0.121896 14.5463 0.35553L18.0102 3.81941C18.2438 4.05305 18.3657 4.35779 18.3657 4.68284C18.3657 5.0079 18.2438 5.31264 18.0102 5.54628L14.5463 9.01016C14.3126 9.24379 14.0079 9.36569 13.6828 9.36569ZM13.6828 1.2088L10.219 4.67269L13.6828 8.13657L17.1467 4.67269L13.6828 1.2088Z" fill="#F4B62C"/>
</svg>
