<svg width="32" height="32" viewBox="0 0 32 32" fill="none" xmlns="http://www.w3.org/2000/svg">
<g id="Group 1471">
<circle id="Ellipse 11" cx="16" cy="16" r="16" fill="white" fill-opacity="0.08"/>
<path id="Vector" d="M12.1073 15.1549H15.1641V12.3569H12.4579C12.2436 13.2748 12.1261 14.2126 12.1073 15.1549ZM12.474 18.643H15.1638V15.7727H12.1073C12.1262 16.7398 12.2491 17.7022 12.474 18.643ZM12.6199 11.7395H15.1638V8.01034C14.9416 8.023 14.7201 8.04532 14.4998 8.07722C13.6863 9.05214 13.0367 10.3055 12.6199 11.7395ZM11.8386 12.3569H8.72139C8.30657 13.2352 8.06494 14.1852 8.00973 15.1549H11.4881C11.5094 14.1782 11.631 13.2388 11.8386 12.3569ZM18.6038 12.3569H15.718V15.1549H18.9312C18.9197 14.2134 18.8099 13.2757 18.6038 12.3569ZM22.1503 11.7395C21.1118 9.98178 19.3866 8.67944 17.3431 8.20003C18.0888 9.16462 18.6832 10.3727 19.0662 11.7395H22.1503ZM16.619 8.06718C16.3203 8.02691 16.0194 8.00448 15.718 8V11.7395H18.4491C18.0481 10.3086 17.4146 9.05214 16.619 8.06718ZM11.4881 15.7727H8C8.0228 16.7917 8.24533 17.7608 8.6311 18.643H11.8562C11.6309 17.7022 11.5074 16.7399 11.4881 15.7727ZM8.9345 19.2608C9.98846 21.1748 11.8426 22.5862 14.0466 23.0437C13.1698 22.0597 12.4682 20.7598 12.0225 19.2608H8.9345ZM13.7611 8.22222C11.7593 8.71926 10.0718 10.0091 9.0491 11.7395H12.0006C12.3964 10.3764 13.0032 9.17526 13.7611 8.22222ZM16.8376 23.1012C19.1796 22.7176 21.1617 21.2653 22.2655 19.2608H18.9817C18.5084 20.7996 17.7642 22.1226 16.8376 23.1012ZM19.5505 15.1549H23.19C23.1347 14.1852 22.8932 13.2353 22.4786 12.3569H19.2234C19.4293 13.2757 19.5389 14.2134 19.5505 15.1549ZM15.718 19.2608V23.2C15.8589 23.1978 15.9999 23.1917 16.1405 23.1818C17.1036 22.1959 17.8757 20.8422 18.3621 19.2608H15.718ZM14.7695 23.1568C14.9007 23.1712 15.0323 23.1821 15.1641 23.1897V19.2608H12.6421C13.1051 20.8185 13.8438 22.1606 14.7695 23.1568ZM18.9276 15.7727H15.718V18.643H18.5351C18.7692 17.7032 18.9008 16.7408 18.9276 15.7727ZM20.9148 15.7727H19.5459C19.5192 16.7408 19.3878 17.7032 19.1541 18.643H22.5689C22.9547 17.7608 23.1769 16.7917 23.2 15.7727H20.9148Z" fill="white" fill-opacity="0.9"/>
</g>
</svg>
