<svg width="18" height="27" viewBox="0 0 18 27" fill="none" xmlns="http://www.w3.org/2000/svg">
<path d="M6.73438 21.6139V6.73438H8.08118V7.58463H8.97906V8.86002H10.3259V9.71028H11.2237V10.9857H12.5705V12.2611H13.9174V13.1113H15.2642V14.3867H16.611V16.0872H17.9578V17.7877H13.9174V19.0631H14.8152V20.7636H15.7131V22.8893H16.611V26.3753H13.9174V24.5898H13.0195V22.8893H12.1216V20.7636H11.2237V19.0631H10.3259V19.9134H9.42799V20.7636H8.53012V21.6139H6.73438Z" fill="white"/>
<path d="M5.28776 0.034576L5.3261 0C6.71873 0.00864399 8.11062 0.002161 9.50324 0.00360166C9.50251 0.348641 9.50177 0.6944 9.50324 1.03944C10.2073 1.038 10.9121 1.03872 11.6161 1.03944C11.6154 1.3816 11.6147 1.72448 11.6161 2.06735C10.9114 2.06879 10.2073 2.06663 9.50251 2.06879V1.03944C8.13494 1.03728 6.76738 1.0416 5.40056 1.03728C5.37771 1.04448 5.332 1.05961 5.30914 1.06753C5.21994 1.378 5.32315 1.71727 5.26049 2.03494C4.56823 2.0904 3.86344 2.05943 3.16602 2.06807C3.16602 1.7252 3.16675 1.38232 3.16602 1.03944C3.86344 1.02575 4.56675 1.06465 5.26049 1.02071C5.31135 0.695841 5.24795 0.361607 5.2885 0.034576H5.28776Z" fill="white"/>
<path d="M2.11364 2.07031C2.4653 2.07031 2.81696 2.07031 3.16861 2.07031C3.16861 2.41391 3.16861 2.75823 3.16935 3.10255H2.11364C2.11364 3.79047 2.1129 4.47838 2.11364 5.1663H1.05571C1.05645 6.19854 1.05571 7.23005 1.05571 8.26229C0.703317 8.26301 0.351659 8.26157 0 8.26373V5.1663C0.351659 5.16558 0.703317 5.1663 1.05571 5.1663V3.10255C1.40811 3.10255 1.76124 3.10327 2.11364 3.10111C2.1129 2.75751 2.11364 2.41391 2.11364 2.07031Z" fill="white"/>
<path d="M11.6152 2.07175C11.9684 2.06959 12.3208 2.07031 12.6739 2.07103C12.6724 2.41463 12.6739 2.75823 12.6732 3.10183C12.3208 3.10183 11.9691 3.10183 11.6174 3.10327C11.6174 2.75895 11.6189 2.41535 11.6152 2.07175Z" fill="white"/>
<path d="M5.28176 3.10156C6.68987 3.10228 8.09724 3.103 9.50535 3.10156C9.50535 3.44588 9.50535 3.79092 9.50609 4.13668C8.13558 4.1338 6.76507 4.14244 5.39456 4.13236C5.37539 4.12443 5.33632 4.10859 5.31715 4.10138C5.23458 3.78012 5.30388 3.4322 5.28176 3.10156Z" fill="white"/>
<path d="M12.6758 3.10156C13.0274 3.10156 13.3798 3.10156 13.7315 3.10156C13.7293 3.7513 13.7374 4.40104 13.7293 5.05078C13.7153 5.07239 13.688 5.11561 13.6747 5.1365C13.3481 5.20349 13.0075 5.14875 12.6758 5.16603V3.10156Z" fill="white"/>
<path d="M4.22173 4.14199C4.56749 4.1564 4.91694 4.10742 5.26049 4.15208C5.30619 4.48847 5.26565 4.83207 5.27965 5.17135C4.96264 5.17495 4.64637 5.16126 4.3301 5.17495C4.30946 5.18791 4.26891 5.21457 4.24827 5.22753C4.20993 5.34135 4.22247 5.46236 4.22025 5.58122C4.22394 6.47659 4.22173 7.37268 4.22173 8.26806C3.86933 8.26589 3.51767 8.26661 3.16602 8.26734V5.17063C3.5162 5.14758 3.88555 5.21961 4.22394 5.13245C4.22836 4.80254 4.21731 4.4719 4.22173 4.14199Z" fill="white"/>
<path d="M9.50195 4.14044C9.85509 4.13828 10.2075 4.12532 10.5606 4.139C10.5584 4.48188 10.5606 4.82476 10.5584 5.16764C10.2067 5.16764 9.85509 5.16692 9.50416 5.16764C9.50269 4.82476 9.50416 4.48188 9.50195 4.13972V4.14044Z" fill="white"/>
<path d="M10.5605 5.16478C10.9122 5.16478 11.2639 5.16478 11.6163 5.16406C11.6148 6.1963 11.6177 7.22853 11.6163 8.26077C11.2639 8.26005 10.9122 8.26005 10.5613 8.26077C10.5613 7.22853 10.562 6.19702 10.5605 5.16478Z" fill="white"/>
<path d="M13.7728 5.15629C14.1104 5.15557 14.4496 5.16493 14.7879 5.16061C14.7894 6.19213 14.7887 7.22436 14.7887 8.2566H13.7322C13.7322 8.94452 13.7322 9.63244 13.7322 10.3204C13.3798 10.3196 13.0274 10.3204 12.6758 10.3204C12.6765 9.63244 12.6758 8.94452 12.6758 8.25732C13.0274 8.25588 13.3798 8.2566 13.7322 8.25732C13.7322 7.33602 13.7344 6.41543 13.7308 5.49485C13.7389 5.38103 13.702 5.2557 13.7728 5.15629Z" fill="white"/>
<path d="M1.05542 8.26581C1.40782 8.26581 1.75948 8.26508 2.11261 8.26653V10.3288C1.75948 10.3296 1.40708 10.3296 1.05469 10.3296C1.05542 9.64164 1.05469 8.95372 1.05542 8.26581Z" fill="white"/>
<path d="M4.22535 9.29759C4.57774 9.29687 4.93014 9.2976 5.28327 9.29688C5.28253 9.64047 5.28253 9.98407 5.28327 10.3284C4.93014 10.3298 4.57701 10.3291 4.22461 10.3291C4.22608 9.98479 4.22608 9.64119 4.22461 9.29759H4.22535Z" fill="white"/>
<path d="M2.11402 10.3206C2.46568 10.3199 2.81734 10.3206 3.16899 10.3206V11.3536C3.87305 11.3529 4.5771 11.3529 5.2819 11.3536V12.3851C4.57784 12.3865 3.87305 12.3851 3.16899 12.3858V11.3529C2.8166 11.3529 2.46494 11.3529 2.11328 11.3536C2.11402 11.0093 2.11402 10.665 2.11402 10.3206Z" fill="white"/>
</svg>
