<svg width="149" height="16" viewBox="0 0 149 16" fill="none" xmlns="http://www.w3.org/2000/svg">
<path d="M7.24094 3.2C7.24094 3.50667 7.21427 3.77333 7.16094 4C7.21427 4.21333 7.24094 4.48 7.24094 4.8C7.24094 5.10667 7.21427 5.37333 7.16094 5.6H6.36094C6.41427 5.81333 6.44094 6.08 6.44094 6.4C6.44094 6.70667 6.41427 6.97333 6.36094 7.2H2.36094C2.41427 7.41333 2.44094 7.68 2.44094 8C2.44094 8.30667 2.41427 8.57333 2.36094 8.8C2.41427 9.01333 2.44094 9.28 2.44094 9.6C2.44094 9.90667 2.41427 10.1733 2.36094 10.4C2.41427 10.6133 2.44094 10.88 2.44094 11.2C2.44094 11.5067 2.41427 11.7733 2.36094 12H0.760938C0.707604 11.7733 0.680938 11.5067 0.680938 11.2C0.680938 10.88 0.707604 10.6133 0.760938 10.4C0.707604 10.1733 0.680938 9.90667 0.680938 9.6C0.680938 9.28 0.707604 9.01333 0.760938 8.8C0.707604 8.57333 0.680938 8.30667 0.680938 8C0.680938 7.68 0.707604 7.41333 0.760938 7.2C0.707604 6.97333 0.680938 6.70667 0.680938 6.4C0.680938 6.08 0.707604 5.81333 0.760938 5.6C0.707604 5.37333 0.680938 5.10667 0.680938 4.8C0.680938 4.48 0.707604 4.21333 0.760938 4C0.707604 3.77333 0.680938 3.50667 0.680938 3.2C0.680938 2.88 0.707604 2.61333 0.760938 2.4C0.707604 2.17333 0.680938 1.90667 0.680938 1.6C0.680938 1.28 0.707604 1.01333 0.760938 0.8H6.36094C6.41427 1.01333 6.44094 1.28 6.44094 1.6C6.44094 1.90667 6.41427 2.17333 6.36094 2.4H7.16094C7.21427 2.61333 7.24094 2.88 7.24094 3.2ZM5.56094 5.6C5.5076 5.37333 5.48094 5.10667 5.48094 4.8C5.48094 4.48 5.5076 4.21333 5.56094 4C5.5076 3.77333 5.48094 3.50667 5.48094 3.2C5.48094 2.88 5.5076 2.61333 5.56094 2.4H2.36094C2.41427 2.61333 2.44094 2.88 2.44094 3.2C2.44094 3.50667 2.41427 3.77333 2.36094 4C2.41427 4.21333 2.44094 4.48 2.44094 4.8C2.44094 5.10667 2.41427 5.37333 2.36094 5.6H5.56094ZM15.2488 8C15.2488 8.30667 15.2221 8.57333 15.1688 8.8H14.5688C14.6221 9.01333 14.6488 9.28 14.6488 9.6C14.6488 9.90667 14.6221 10.1733 14.5688 10.4H13.5688C13.6221 10.6133 13.6488 10.88 13.6488 11.2C13.6488 11.5067 13.6221 11.7733 13.5688 12H10.3688C10.3154 11.7733 10.2888 11.5067 10.2888 11.2C10.2888 10.88 10.3154 10.6133 10.3688 10.4H9.36875C9.31542 10.1733 9.28875 9.90667 9.28875 9.6C9.28875 9.28 9.31542 9.01333 9.36875 8.8H8.76875C8.71542 8.57333 8.68875 8.30667 8.68875 8C8.68875 7.68 8.71542 7.41333 8.76875 7.2H9.36875C9.31542 6.97333 9.28875 6.70667 9.28875 6.4C9.28875 6.08 9.31542 5.81333 9.36875 5.6H10.3688C10.3154 5.37333 10.2888 5.10667 10.2888 4.8C10.2888 4.48 10.3154 4.21333 10.3688 4H13.5688C13.6221 4.21333 13.6488 4.48 13.6488 4.8C13.6488 5.10667 13.6221 5.37333 13.5688 5.6H14.5688C14.6221 5.81333 14.6488 6.08 14.6488 6.4C14.6488 6.70667 14.6221 6.97333 14.5688 7.2H15.1688C15.2221 7.41333 15.2488 7.68 15.2488 8ZM13.5688 8.8C13.5154 8.57333 13.4888 8.30667 13.4888 8C13.4888 7.68 13.5154 7.41333 13.5688 7.2H12.9688C12.9154 6.97333 12.8888 6.70667 12.8888 6.4C12.8888 6.08 12.9154 5.81333 12.9688 5.6H10.9688C11.0221 5.81333 11.0488 6.08 11.0488 6.4C11.0488 6.70667 11.0221 6.97333 10.9688 7.2H10.3688C10.4221 7.41333 10.4488 7.68 10.4488 8C10.4488 8.30667 10.4221 8.57333 10.3688 8.8H10.9688C11.0221 9.01333 11.0488 9.28 11.0488 9.6C11.0488 9.90667 11.0221 10.1733 10.9688 10.4H12.9688C12.9154 10.1733 12.8888 9.90667 12.8888 9.6C12.8888 9.28 12.9154 9.01333 12.9688 8.8H13.5688ZM23.2566 4.8C23.2566 5.10667 23.2299 5.37333 23.1766 5.6C23.2299 5.81333 23.2566 6.08 23.2566 6.4C23.2566 6.70667 23.2299 6.97333 23.1766 7.2H22.5766C22.6299 7.41333 22.6566 7.68 22.6566 8C22.6566 8.30667 22.6299 8.57333 22.5766 8.8C22.6299 9.01333 22.6566 9.28 22.6566 9.6C22.6566 9.90667 22.6299 10.1733 22.5766 10.4H22.1766C22.2299 10.6133 22.2566 10.88 22.2566 11.2C22.2566 11.5067 22.2299 11.7733 22.1766 12H20.9766C20.9232 11.7733 20.8966 11.5067 20.8966 11.2C20.8966 10.88 20.9232 10.6133 20.9766 10.4H20.5766C20.5232 10.1733 20.4966 9.90667 20.4966 9.6C20.4966 9.28 20.5232 9.01333 20.5766 8.8H19.3766C19.4299 9.01333 19.4566 9.28 19.4566 9.6C19.4566 9.90667 19.4299 10.1733 19.3766 10.4H18.9766C19.0299 10.6133 19.0566 10.88 19.0566 11.2C19.0566 11.5067 19.0299 11.7733 18.9766 12H17.7766C17.7232 11.7733 17.6966 11.5067 17.6966 11.2C17.6966 10.88 17.7232 10.6133 17.7766 10.4H17.3766C17.3232 10.1733 17.2966 9.90667 17.2966 9.6C17.2966 9.28 17.3232 9.01333 17.3766 8.8C17.3232 8.57333 17.2966 8.30667 17.2966 8C17.2966 7.68 17.3232 7.41333 17.3766 7.2H16.7766C16.7232 6.97333 16.6966 6.70667 16.6966 6.4C16.6966 6.08 16.7232 5.81333 16.7766 5.6C16.7232 5.37333 16.6966 5.10667 16.6966 4.8C16.6966 4.48 16.7232 4.21333 16.7766 4H18.3766C18.4299 4.21333 18.4566 4.48 18.4566 4.8C18.4566 5.10667 18.4299 5.37333 18.3766 5.6C18.4299 5.81333 18.4566 6.08 18.4566 6.4C18.4566 6.70667 18.4299 6.97333 18.3766 7.2C18.4299 7.41333 18.4566 7.68 18.4566 8C18.4566 8.30667 18.4299 8.57333 18.3766 8.8H18.9766C18.9232 8.57333 18.8966 8.30667 18.8966 8C18.8966 7.68 18.9232 7.41333 18.9766 7.2H19.3766C19.3232 6.97333 19.2966 6.70667 19.2966 6.4C19.2966 6.08 19.3232 5.81333 19.3766 5.6C19.3232 5.37333 19.2966 5.10667 19.2966 4.8C19.2966 4.48 19.3232 4.21333 19.3766 4H20.5766C20.6299 4.21333 20.6566 4.48 20.6566 4.8C20.6566 5.10667 20.6299 5.37333 20.5766 5.6C20.6299 5.81333 20.6566 6.08 20.6566 6.4C20.6566 6.70667 20.6299 6.97333 20.5766 7.2H20.9766C21.0299 7.41333 21.0566 7.68 21.0566 8C21.0566 8.30667 21.0299 8.57333 20.9766 8.8H21.5766C21.5232 8.57333 21.4966 8.30667 21.4966 8C21.4966 7.68 21.5232 7.41333 21.5766 7.2C21.5232 6.97333 21.4966 6.70667 21.4966 6.4C21.4966 6.08 21.5232 5.81333 21.5766 5.6C21.5232 5.37333 21.4966 5.10667 21.4966 4.8C21.4966 4.48 21.5232 4.21333 21.5766 4H23.1766C23.2299 4.21333 23.2566 4.48 23.2566 4.8ZM31.2644 6.4C31.2644 6.70667 31.2377 6.97333 31.1844 7.2C31.2377 7.41333 31.2644 7.68 31.2644 8C31.2644 8.30667 31.2377 8.57333 31.1844 8.8H26.9844C27.0377 9.01333 27.0644 9.28 27.0644 9.6C27.0644 9.90667 27.0377 10.1733 26.9844 10.4H30.3844C30.4377 10.6133 30.4644 10.88 30.4644 11.2C30.4644 11.5067 30.4377 11.7733 30.3844 12H26.3844C26.331 11.7733 26.3044 11.5067 26.3044 11.2C26.3044 10.88 26.331 10.6133 26.3844 10.4H25.3844C25.331 10.1733 25.3044 9.90667 25.3044 9.6C25.3044 9.28 25.331 9.01333 25.3844 8.8H24.7844C24.731 8.57333 24.7044 8.30667 24.7044 8C24.7044 7.68 24.731 7.41333 24.7844 7.2H25.3844C25.331 6.97333 25.3044 6.70667 25.3044 6.4C25.3044 6.08 25.331 5.81333 25.3844 5.6H26.3844C26.331 5.37333 26.3044 5.10667 26.3044 4.8C26.3044 4.48 26.331 4.21333 26.3844 4H30.3844C30.4377 4.21333 30.4644 4.48 30.4644 4.8C30.4644 5.10667 30.4377 5.37333 30.3844 5.6H31.1844C31.2377 5.81333 31.2644 6.08 31.2644 6.4ZM29.5844 7.2C29.531 6.97333 29.5044 6.70667 29.5044 6.4C29.5044 6.08 29.531 5.81333 29.5844 5.6H26.9844C27.0377 5.81333 27.0644 6.08 27.0644 6.4C27.0644 6.70667 27.0377 6.97333 26.9844 7.2H29.5844ZM39.1922 5.6C39.2455 5.81333 39.2722 6.08 39.2722 6.4C39.2722 6.70667 39.2455 6.97333 39.1922 7.2H37.5922C37.5389 6.97333 37.5122 6.70667 37.5122 6.4C37.5122 6.08 37.5389 5.81333 37.5922 5.6H36.1922C36.2455 5.81333 36.2722 6.08 36.2722 6.4C36.2722 6.70667 36.2455 6.97333 36.1922 7.2H35.5922C35.6455 7.41333 35.6722 7.68 35.6722 8C35.6722 8.30667 35.6455 8.57333 35.5922 8.8C35.6455 9.01333 35.6722 9.28 35.6722 9.6C35.6722 9.90667 35.6455 10.1733 35.5922 10.4H36.7922C36.8455 10.6133 36.8722 10.88 36.8722 11.2C36.8722 11.5067 36.8455 11.7733 36.7922 12H32.7922C32.7389 11.7733 32.7122 11.5067 32.7122 11.2C32.7122 10.88 32.7389 10.6133 32.7922 10.4H33.9922C33.9389 10.1733 33.9122 9.90667 33.9122 9.6C33.9122 9.28 33.9389 9.01333 33.9922 8.8C33.9389 8.57333 33.9122 8.30667 33.9122 8C33.9122 7.68 33.9389 7.41333 33.9922 7.2C33.9389 6.97333 33.9122 6.70667 33.9122 6.4C33.9122 6.08 33.9389 5.81333 33.9922 5.6H32.7922C32.7389 5.37333 32.7122 5.10667 32.7122 4.8C32.7122 4.48 32.7389 4.21333 32.7922 4H34.7922C34.8455 4.21333 34.8722 4.48 34.8722 4.8C34.8722 5.10667 34.8455 5.37333 34.7922 5.6H35.5922C35.5389 5.37333 35.5122 5.10667 35.5122 4.8C35.5122 4.48 35.5389 4.21333 35.5922 4H38.5922C38.6455 4.21333 38.6722 4.48 38.6722 4.8C38.6722 5.10667 38.6455 5.37333 38.5922 5.6H39.1922ZM47.28 6.4C47.28 6.70667 47.2533 6.97333 47.2 7.2C47.2533 7.41333 47.28 7.68 47.28 8C47.28 8.30667 47.2533 8.57333 47.2 8.8H43C43.0533 9.01333 43.08 9.28 43.08 9.6C43.08 9.90667 43.0533 10.1733 43 10.4H46.4C46.4533 10.6133 46.48 10.88 46.48 11.2C46.48 11.5067 46.4533 11.7733 46.4 12H42.4C42.3467 11.7733 42.32 11.5067 42.32 11.2C42.32 10.88 42.3467 10.6133 42.4 10.4H41.4C41.3467 10.1733 41.32 9.90667 41.32 9.6C41.32 9.28 41.3467 9.01333 41.4 8.8H40.8C40.7467 8.57333 40.72 8.30667 40.72 8C40.72 7.68 40.7467 7.41333 40.8 7.2H41.4C41.3467 6.97333 41.32 6.70667 41.32 6.4C41.32 6.08 41.3467 5.81333 41.4 5.6H42.4C42.3467 5.37333 42.32 5.10667 42.32 4.8C42.32 4.48 42.3467 4.21333 42.4 4H46.4C46.4533 4.21333 46.48 4.48 46.48 4.8C46.48 5.10667 46.4533 5.37333 46.4 5.6H47.2C47.2533 5.81333 47.28 6.08 47.28 6.4ZM45.6 7.2C45.5467 6.97333 45.52 6.70667 45.52 6.4C45.52 6.08 45.5467 5.81333 45.6 5.6H43C43.0533 5.81333 43.08 6.08 43.08 6.4C43.08 6.70667 43.0533 6.97333 43 7.2H45.6ZM55.2078 2.4C55.2611 2.61333 55.2878 2.88 55.2878 3.2C55.2878 3.50667 55.2611 3.77333 55.2078 4C55.2611 4.21333 55.2878 4.48 55.2878 4.8C55.2878 5.10667 55.2611 5.37333 55.2078 5.6C55.2611 5.81333 55.2878 6.08 55.2878 6.4C55.2878 6.70667 55.2611 6.97333 55.2078 7.2C55.2611 7.41333 55.2878 7.68 55.2878 8C55.2878 8.30667 55.2611 8.57333 55.2078 8.8C55.2611 9.01333 55.2878 9.28 55.2878 9.6C55.2878 9.90667 55.2611 10.1733 55.2078 10.4C55.2611 10.6133 55.2878 10.88 55.2878 11.2C55.2878 11.5067 55.2611 11.7733 55.2078 12H53.6078C53.5545 11.7733 53.5278 11.5067 53.5278 11.2C53.5278 10.88 53.5545 10.6133 53.6078 10.4H53.0078C52.9545 10.1733 52.9278 9.90667 52.9278 9.6C52.9278 9.28 52.9545 9.01333 53.0078 8.8H53.6078C53.5545 8.57333 53.5278 8.30667 53.5278 8C53.5278 7.68 53.5545 7.41333 53.6078 7.2H53.0078C52.9545 6.97333 52.9278 6.70667 52.9278 6.4C52.9278 6.08 52.9545 5.81333 53.0078 5.6H53.6078C53.5545 5.37333 53.5278 5.10667 53.5278 4.8C53.5278 4.48 53.5545 4.21333 53.6078 4C53.5545 3.77333 53.5278 3.50667 53.5278 3.2C53.5278 2.88 53.5545 2.61333 53.6078 2.4C53.5545 2.17333 53.5278 1.90667 53.5278 1.6C53.5278 1.28 53.5545 1.01333 53.6078 0.8H55.2078C55.2611 1.01333 55.2878 1.28 55.2878 1.6C55.2878 1.90667 55.2611 2.17333 55.2078 2.4ZM52.6878 4.8C52.6878 5.10667 52.6611 5.37333 52.6078 5.6H50.6078C50.6611 5.81333 50.6878 6.08 50.6878 6.4C50.6878 6.70667 50.6611 6.97333 50.6078 7.2H50.0078C50.0611 7.41333 50.0878 7.68 50.0878 8C50.0878 8.30667 50.0611 8.57333 50.0078 8.8H50.6078C50.6611 9.01333 50.6878 9.28 50.6878 9.6C50.6878 9.90667 50.6611 10.1733 50.6078 10.4H52.6078C52.6611 10.6133 52.6878 10.88 52.6878 11.2C52.6878 11.5067 52.6611 11.7733 52.6078 12H50.4078C50.3545 11.7733 50.3278 11.5067 50.3278 11.2C50.3278 10.88 50.3545 10.6133 50.4078 10.4H49.4078C49.3545 10.1733 49.3278 9.90667 49.3278 9.6C49.3278 9.28 49.3545 9.01333 49.4078 8.8H48.8078C48.7545 8.57333 48.7278 8.30667 48.7278 8C48.7278 7.68 48.7545 7.41333 48.8078 7.2H49.4078C49.3545 6.97333 49.3278 6.70667 49.3278 6.4C49.3278 6.08 49.3545 5.81333 49.4078 5.6H50.4078C50.3545 5.37333 50.3278 5.10667 50.3278 4.8C50.3278 4.48 50.3545 4.21333 50.4078 4H52.6078C52.6611 4.21333 52.6878 4.48 52.6878 4.8ZM66.4234 8.8C66.4768 9.01333 66.5034 9.28 66.5034 9.6C66.5034 9.90667 66.4768 10.1733 66.4234 10.4H65.6234C65.6768 10.6133 65.7034 10.88 65.7034 11.2C65.7034 11.5067 65.6768 11.7733 65.6234 12H64.8234C64.7701 11.7733 64.7434 11.5067 64.7434 11.2C64.7434 10.88 64.7701 10.6133 64.8234 10.4C64.7701 10.1733 64.7434 9.90667 64.7434 9.6C64.7434 9.28 64.7701 9.01333 64.8234 8.8C64.7701 8.57333 64.7434 8.30667 64.7434 8C64.7434 7.68 64.7701 7.41333 64.8234 7.2C64.7701 6.97333 64.7434 6.70667 64.7434 6.4C64.7434 6.08 64.7701 5.81333 64.8234 5.6C64.7701 5.37333 64.7434 5.10667 64.7434 4.8C64.7434 4.48 64.7701 4.21333 64.8234 4C64.7701 3.77333 64.7434 3.50667 64.7434 3.2C64.7434 2.88 64.7701 2.61333 64.8234 2.4C64.7701 2.17333 64.7434 1.90667 64.7434 1.6C64.7434 1.28 64.7701 1.01333 64.8234 0.8H66.4234C66.4768 1.01333 66.5034 1.28 66.5034 1.6C66.5034 1.90667 66.4768 2.17333 66.4234 2.4C66.4768 2.61333 66.5034 2.88 66.5034 3.2C66.5034 3.50667 66.4768 3.77333 66.4234 4C66.4768 4.21333 66.5034 4.48 66.5034 4.8C66.5034 5.10667 66.4768 5.37333 66.4234 5.6H67.2234C67.2768 5.81333 67.3034 6.08 67.3034 6.4C67.3034 6.70667 67.2768 6.97333 67.2234 7.2H66.4234C66.4768 7.41333 66.5034 7.68 66.5034 8C66.5034 8.30667 66.4768 8.57333 66.4234 8.8ZM71.3034 8C71.3034 8.30667 71.2768 8.57333 71.2234 8.8H70.4234C70.4768 9.01333 70.5034 9.28 70.5034 9.6C70.5034 9.90667 70.4768 10.1733 70.4234 10.4H68.8234C68.7701 10.1733 68.7434 9.90667 68.7434 9.6C68.7434 9.28 68.7701 9.01333 68.8234 8.8H69.6234C69.5701 8.57333 69.5434 8.30667 69.5434 8C69.5434 7.68 69.5701 7.41333 69.6234 7.2H68.8234C68.7701 6.97333 68.7434 6.70667 68.7434 6.4C68.7434 6.08 68.7701 5.81333 68.8234 5.6H67.2234C67.1701 5.37333 67.1434 5.10667 67.1434 4.8C67.1434 4.48 67.1701 4.21333 67.2234 4H69.6234C69.6768 4.21333 69.7034 4.48 69.7034 4.8C69.7034 5.10667 69.6768 5.37333 69.6234 5.6H70.4234C70.4768 5.81333 70.5034 6.08 70.5034 6.4C70.5034 6.70667 70.4768 6.97333 70.4234 7.2H71.2234C71.2768 7.41333 71.3034 7.68 71.3034 8ZM66.3434 11.2C66.3434 10.88 66.3701 10.6133 66.4234 10.4H68.8234C68.8768 10.6133 68.9034 10.88 68.9034 11.2C68.9034 11.5067 68.8768 11.7733 68.8234 12H66.4234C66.3701 11.7733 66.3434 11.5067 66.3434 11.2ZM79.3113 4.8C79.3113 5.10667 79.2846 5.37333 79.2313 5.6H78.6313C78.6846 5.81333 78.7113 6.08 78.7113 6.4C78.7113 6.70667 78.6846 6.97333 78.6313 7.2H78.0313C78.0846 7.41333 78.1113 7.68 78.1113 8C78.1113 8.30667 78.0846 8.57333 78.0313 8.8H77.6313C77.6846 9.01333 77.7113 9.28 77.7113 9.6C77.7113 9.90667 77.6846 10.1733 77.6313 10.4H77.0312C77.0846 10.6133 77.1113 10.88 77.1113 11.2C77.1113 11.5067 77.0846 11.7733 77.0312 12H76.6313C76.6846 12.2133 76.7113 12.48 76.7113 12.8C76.7113 13.1067 76.6846 13.3733 76.6313 13.6H75.8313C75.8846 13.8133 75.9113 14.08 75.9113 14.4C75.9113 14.7067 75.8846 14.9733 75.8313 15.2H73.4313C73.3779 14.9733 73.3512 14.7067 73.3512 14.4C73.3512 14.08 73.3779 13.8133 73.4313 13.6H75.0313C74.9779 13.3733 74.9513 13.1067 74.9513 12.8C74.9513 12.48 74.9779 12.2133 75.0313 12C74.9779 11.7733 74.9513 11.5067 74.9513 11.2C74.9513 10.88 74.9779 10.6133 75.0313 10.4H74.2313C74.1779 10.1733 74.1513 9.90667 74.1513 9.6C74.1513 9.28 74.1779 9.01333 74.2313 8.8H73.8313C73.7779 8.57333 73.7513 8.30667 73.7513 8C73.7513 7.68 73.7779 7.41333 73.8313 7.2H73.2313C73.1779 6.97333 73.1513 6.70667 73.1513 6.4C73.1513 6.08 73.1779 5.81333 73.2313 5.6H72.6313C72.5779 5.37333 72.5513 5.10667 72.5513 4.8C72.5513 4.48 72.5779 4.21333 72.6313 4H74.2313C74.2846 4.21333 74.3113 4.48 74.3113 4.8C74.3113 5.10667 74.2846 5.37333 74.2313 5.6H74.8313C74.8846 5.81333 74.9113 6.08 74.9113 6.4C74.9113 6.70667 74.8846 6.97333 74.8313 7.2H75.4313C75.4846 7.41333 75.5113 7.68 75.5113 8C75.5113 8.30667 75.4846 8.57333 75.4313 8.8C75.4846 9.01333 75.5113 9.28 75.5113 9.6C75.5113 9.90667 75.4846 10.1733 75.4313 10.4H76.0313C75.9779 10.1733 75.9513 9.90667 75.9513 9.6C75.9513 9.28 75.9779 9.01333 76.0313 8.8H76.4313C76.3779 8.57333 76.3513 8.30667 76.3513 8C76.3513 7.68 76.3779 7.41333 76.4313 7.2H77.0312C76.9779 6.97333 76.9513 6.70667 76.9513 6.4C76.9513 6.08 76.9779 5.81333 77.0312 5.6H77.6313C77.5779 5.37333 77.5513 5.10667 77.5513 4.8C77.5513 4.48 77.5779 4.21333 77.6313 4H79.2313C79.2846 4.21333 79.3113 4.48 79.3113 4.8Z" fill="white"/>
<path d="M111.182 8.82738C110.984 8.60909 110.777 8.39309 110.559 8.17952C110.342 7.96596 110.129 7.75003 109.921 7.53175V9.01247C109.921 9.27827 109.929 9.60574 109.943 9.99487C109.958 10.384 109.976 10.7922 109.995 11.2193C110.015 11.6465 110.037 12.0736 110.062 12.5007C110.087 12.9278 110.109 13.317 110.129 13.6682C109.99 13.6302 109.854 13.5994 109.721 13.5756C109.587 13.5519 109.427 13.5401 109.239 13.5401C109.071 13.5401 108.907 13.5519 108.749 13.5756C108.591 13.5994 108.418 13.6302 108.23 13.6682C108.269 13.26 108.307 12.8282 108.341 12.3726C108.376 11.917 108.405 11.4566 108.43 10.9915C108.455 10.5264 108.475 10.0661 108.489 9.61045C108.504 9.15485 108.512 8.723 108.512 8.31482C108.512 7.47951 108.504 6.67276 108.489 5.89441C108.475 5.11605 108.442 4.3093 108.393 3.47399C108.601 3.51199 108.811 3.54282 109.024 3.5665C109.236 3.59026 109.446 3.60213 109.654 3.60213C109.852 3.60213 110.045 3.59026 110.233 3.5665C110.421 3.54282 110.609 3.51199 110.797 3.47399C111.073 3.82522 111.373 4.18588 111.694 4.55606C112.016 4.92624 112.335 5.28218 112.651 5.62389C112.968 5.9656 113.269 6.28835 113.556 6.59206C113.843 6.89577 114.095 7.16157 114.313 7.38937C114.52 7.59822 114.711 7.79274 114.884 7.97312C115.057 8.15349 115.225 8.33142 115.388 8.50699C115.552 8.68264 115.717 8.86057 115.885 9.04095C116.054 9.22132 116.236 9.41113 116.434 9.61045C116.434 9.18332 116.427 8.76807 116.412 8.36461C116.397 7.96124 116.385 7.54598 116.375 7.11885C116.365 6.76763 116.355 6.4378 116.345 6.12929C116.335 5.82086 116.323 5.51951 116.308 5.22523C116.293 4.93096 116.279 4.64149 116.264 4.35673C116.249 4.07198 116.232 3.77771 116.212 3.47399C116.41 3.52143 116.583 3.5547 116.731 3.57366C116.879 3.59262 117.043 3.60213 117.221 3.60213C117.389 3.60213 117.542 3.59262 117.681 3.57366C117.819 3.5547 117.962 3.52143 118.111 3.47399C118.091 3.83466 118.066 4.1954 118.037 4.55606C118.007 4.91672 117.982 5.27747 117.962 5.63813C117.923 6.61581 117.893 7.57446 117.873 8.51415C117.854 9.45384 117.844 10.4125 117.844 11.3902C117.844 11.7699 117.849 12.1495 117.859 12.5292C117.868 12.9089 117.883 13.2885 117.903 13.6682C117.745 13.6302 117.557 13.5994 117.339 13.5756C117.122 13.5519 116.904 13.5401 116.687 13.5401C116.459 13.5401 116.251 13.5543 116.063 13.5828C115.875 13.6113 115.702 13.6397 115.544 13.6682C115.208 13.2791 114.889 12.9136 114.587 12.5719C114.286 12.2302 113.989 11.9004 113.697 11.5823C113.405 11.2644 113.121 10.9535 112.844 10.6498C112.567 10.3461 112.285 10.0376 111.998 9.72436L111.182 8.82738Z" fill="white"/>
<path d="M119.995 9.1121C119.995 8.45716 119.997 7.90897 120.002 7.4676C120.007 7.02623 119.99 6.60626 119.951 6.2076C120.237 6.23608 120.527 6.26455 120.818 6.29303C121.11 6.3215 121.399 6.33574 121.686 6.33574C121.944 6.33574 122.196 6.32386 122.443 6.3001C122.69 6.27643 122.942 6.24559 123.2 6.2076C123.18 6.49236 123.163 6.75815 123.148 7.00491C123.133 7.25167 123.12 7.52219 123.111 7.81646C123.101 8.11074 123.093 8.44292 123.088 8.8131C123.083 9.18328 123.081 9.63889 123.081 10.1799C123.081 10.4077 123.086 10.6308 123.096 10.8491C123.106 11.0674 123.135 11.2573 123.185 11.4186C123.234 11.5799 123.316 11.7104 123.43 11.8101C123.543 11.9098 123.704 11.9596 123.912 11.9596C124.12 11.9596 124.28 11.898 124.394 11.7746C124.508 11.6511 124.589 11.4945 124.639 11.3047C124.688 11.1149 124.718 10.9037 124.728 10.6711C124.738 10.4386 124.743 10.2084 124.743 9.9806C124.743 9.35414 124.74 8.71108 124.735 8.05134C124.73 7.39169 124.703 6.77711 124.654 6.2076C124.94 6.24559 125.22 6.27643 125.492 6.3001C125.764 6.32386 126.043 6.33574 126.33 6.33574C126.854 6.33574 127.383 6.29303 127.918 6.2076C127.898 6.34998 127.878 6.53271 127.858 6.75571C127.838 6.9788 127.824 7.228 127.814 7.50323C127.804 7.77847 127.796 8.06558 127.791 8.36458C127.787 8.66357 127.784 8.965 127.784 9.26871V10.365C127.784 11.1054 127.791 11.7342 127.806 12.2515C127.821 12.7688 127.853 13.241 127.903 13.6682C127.675 13.6397 127.416 13.6112 127.124 13.5827C126.832 13.5543 126.553 13.54 126.286 13.54C126.038 13.54 125.789 13.5543 125.536 13.5827C125.284 13.6112 125.034 13.6397 124.787 13.6682C124.827 13.298 124.856 12.9325 124.876 12.5719C124.678 12.7712 124.493 12.942 124.32 13.0844C124.147 13.2268 123.969 13.3431 123.786 13.4332C123.603 13.5234 123.402 13.5851 123.185 13.6183C122.967 13.6516 122.71 13.6682 122.413 13.6682C121.602 13.6682 120.994 13.4593 120.588 13.0417C120.183 12.6241 119.98 12.0308 119.98 11.262C119.98 11.1101 119.98 10.944 119.98 10.7637C119.98 10.5739 119.983 10.3816 119.988 10.187C119.993 9.99248 119.995 9.80503 119.995 9.62465C119.995 9.43485 119.995 9.26399 119.995 9.1121Z" fill="white"/>
<path d="M132.576 10.1657C132.576 10.5548 132.586 10.9131 132.606 11.2406C132.626 11.5681 132.668 11.8481 132.732 12.0806C132.796 12.3132 132.895 12.496 133.029 12.6288C133.162 12.7617 133.338 12.8282 133.555 12.8282C133.813 12.8282 134.01 12.7332 134.149 12.5434C134.287 12.3536 134.389 12.1163 134.453 11.8315C134.517 11.5468 134.554 11.2335 134.564 10.8918C134.574 10.5501 134.579 10.2322 134.579 9.9379C134.579 9.40638 134.554 8.97925 134.505 8.6565C134.455 8.33375 134.389 8.08227 134.305 7.9019C134.221 7.72153 134.119 7.60291 134.001 7.54596C133.882 7.48901 133.753 7.46053 133.615 7.46053C133.397 7.46053 133.222 7.52456 133.088 7.6527C132.955 7.78084 132.851 7.96357 132.776 8.2009C132.702 8.43822 132.65 8.72297 132.621 9.05516C132.591 9.38735 132.576 9.75753 132.576 10.1657ZM137.873 9.71009C137.873 10.2701 137.789 10.7969 137.621 11.2905C137.452 11.7841 137.205 12.2136 136.879 12.579C136.552 12.9444 136.149 13.2268 135.67 13.4261C135.19 13.6255 134.643 13.7251 134.03 13.7251C133.714 13.7251 133.432 13.7085 133.185 13.6753C132.937 13.6421 132.715 13.5804 132.517 13.4902C132.319 13.4 132.139 13.2861 131.975 13.1485C131.812 13.0109 131.656 12.8519 131.508 12.6715C131.31 12.8424 131.13 13.0037 130.966 13.1556C130.803 13.3075 130.633 13.4784 130.455 13.6682C130.356 13.6587 130.264 13.6468 130.18 13.6325C130.096 13.6183 130.01 13.6112 129.921 13.6112C129.752 13.6112 129.594 13.6302 129.446 13.6682C129.495 12.7474 129.535 11.8339 129.564 10.9274C129.594 10.021 129.609 9.10739 129.609 8.18666C129.609 7.85447 129.604 7.47005 129.594 7.0334C129.584 6.59675 129.572 6.14114 129.557 5.66658C129.542 5.19202 129.527 4.71029 129.513 4.22141C129.498 3.73261 129.48 3.27464 129.461 2.84751C129.728 2.89494 129.995 2.92822 130.262 2.94717C130.529 2.96613 130.801 2.97565 131.078 2.97565C131.355 2.97565 131.651 2.96377 131.968 2.94001C132.284 2.91634 132.571 2.8855 132.828 2.84751C132.799 3.01836 132.774 3.21533 132.754 3.43833C132.734 3.66142 132.72 3.93193 132.71 4.24988C132.7 4.56791 132.69 4.9381 132.68 5.36043C132.67 5.78284 132.66 6.2788 132.65 6.84831C132.868 6.69642 133.123 6.5446 133.414 6.3927C133.706 6.24081 134.09 6.1649 134.564 6.1649C135.019 6.1649 135.447 6.24797 135.848 6.41402C136.248 6.58015 136.599 6.81748 136.901 7.12591C137.203 7.43442 137.44 7.80696 137.613 8.24361C137.786 8.68026 137.873 9.16906 137.873 9.71009Z" fill="white"/>
<path d="M139.223 4.10042C139.223 3.9011 139.265 3.71128 139.349 3.53091C139.433 3.35054 139.547 3.19157 139.69 3.05391C139.834 2.91633 139.999 2.80715 140.187 2.72644C140.375 2.64581 140.578 2.60546 140.796 2.60546C141.003 2.60546 141.201 2.64581 141.389 2.72644C141.577 2.80715 141.743 2.91397 141.886 3.04683C142.029 3.17969 142.143 3.33866 142.227 3.52375C142.311 3.70884 142.353 3.9011 142.353 4.10042C142.353 4.29975 142.311 4.49192 142.227 4.67701C142.143 4.8621 142.029 5.02116 141.886 5.15401C141.743 5.28687 141.577 5.3937 141.389 5.47432C141.201 5.55503 141.003 5.59538 140.796 5.59538C140.578 5.59538 140.375 5.55503 140.187 5.47432C139.999 5.3937 139.834 5.28451 139.69 5.14686C139.547 5.00928 139.433 4.8503 139.349 4.66993C139.265 4.48956 139.223 4.29975 139.223 4.10042ZM139.238 9.71009C139.238 9.16905 139.235 8.7324 139.23 8.40022C139.225 8.06803 139.218 7.78327 139.208 7.54595C139.198 7.30863 139.186 7.09271 139.171 6.8981C139.156 6.70357 139.139 6.4734 139.119 6.20761C139.396 6.25504 139.67 6.28832 139.942 6.30727C140.214 6.32623 140.494 6.33574 140.781 6.33574C141.354 6.33574 141.913 6.29303 142.457 6.20761C142.398 6.98596 142.361 7.70021 142.346 8.35035C142.331 9.00056 142.324 9.55347 142.324 10.0091V10.7779C142.324 10.9962 142.326 11.2335 142.331 11.4898C142.336 11.7461 142.341 12.0024 142.346 12.2586C142.351 12.5149 142.361 12.764 142.376 13.0061C142.39 13.2481 142.403 13.4688 142.413 13.6682C142.126 13.6302 141.837 13.5993 141.545 13.5756C141.253 13.5519 140.964 13.54 140.677 13.54C140.42 13.54 140.158 13.5543 139.89 13.5828C139.623 13.6112 139.361 13.6397 139.104 13.6682C139.134 13.3265 139.159 13.0322 139.178 12.7854C139.198 12.5387 139.21 12.28 139.215 12.0094C139.22 11.7389 139.225 11.4257 139.23 11.0698C139.235 10.7138 139.238 10.2606 139.238 9.71009Z" fill="white"/>
<path d="M147.383 11.7176C147.383 12.2967 147.68 12.5861 148.273 12.5861C148.402 12.5861 148.525 12.5695 148.644 12.5363C148.763 12.5031 148.881 12.4627 149 12.4153C148.96 12.5577 148.941 12.7048 148.941 12.8566C148.941 12.961 148.946 13.0488 148.955 13.12C148.965 13.1912 148.98 13.2648 149 13.3407C148.634 13.4641 148.261 13.5614 147.88 13.6326C147.499 13.7037 147.116 13.7394 146.73 13.7394C145.87 13.7394 145.244 13.5448 144.853 13.1556C144.463 12.7665 144.267 12.197 144.267 11.4471C144.267 11.1054 144.277 10.7542 144.297 10.3935C144.317 10.0329 144.327 9.67691 144.327 9.32569V7.43207C144.129 7.43207 143.933 7.43679 143.74 7.44631C143.548 7.45583 143.367 7.47007 143.199 7.48902C143.209 7.42255 143.221 7.33948 143.236 7.23982C143.251 7.14015 143.258 7.04293 143.258 6.94799C143.258 6.86256 143.253 6.76762 143.244 6.66323C143.234 6.55885 143.219 6.46862 143.199 6.39272C143.328 6.41167 143.506 6.42591 143.733 6.43543C143.961 6.44495 144.158 6.44967 144.327 6.44967V4.59876C144.841 4.39944 145.348 4.17635 145.847 3.92959C146.347 3.68283 146.834 3.40751 147.309 3.1038L147.576 3.27465C147.536 3.49294 147.504 3.75402 147.479 4.05773C147.455 4.36144 147.435 4.66523 147.42 4.96894C147.405 5.27265 147.395 5.55741 147.39 5.82321C147.385 6.089 147.383 6.29777 147.383 6.44967C147.63 6.44967 147.865 6.44495 148.088 6.43543C148.31 6.42591 148.52 6.41167 148.718 6.39272C148.679 6.55405 148.659 6.73914 148.659 6.94799C148.659 7.04293 148.666 7.1378 148.681 7.23274C148.696 7.32769 148.708 7.41311 148.718 7.48902C148.491 7.47007 148.268 7.45583 148.05 7.44631C147.833 7.43679 147.61 7.43207 147.383 7.43207V11.7176Z" fill="white"/>
<path d="M98.691 0.00927486C98.5326 0.02156 98.3655 0.042144 98.1899 0.0708635C98.0143 0.0996644 97.7808 0.155151 97.4896 0.237404C97.1983 0.319576 96.8984 0.428515 96.59 0.564221C96.2815 0.699845 95.9925 0.84987 95.7226 1.0143C95.4527 1.17872 95.1765 1.37398 94.8937 1.60008C94.611 1.82617 94.3561 2.05633 94.1291 2.29065C93.9021 2.52496 93.6922 2.76749 93.4994 3.01824C93.3067 3.26906 93.1547 3.48279 93.0433 3.6595C92.9319 3.83629 92.8377 3.99665 92.7605 4.1405C92.6835 4.28434 92.5999 4.45698 92.5099 4.65842C92.42 4.85987 92.3365 5.07359 92.2594 5.29969C92.1822 5.52578 92.1137 5.77246 92.0537 6.03964C91.9938 6.30683 91.951 6.55961 91.9253 6.79807C91.8995 7.03645 91.8867 7.26051 91.8867 7.47017C91.8867 7.67983 91.8995 7.89771 91.9253 8.12372C91.951 8.34982 91.9938 8.5821 92.0537 8.82056C92.1137 9.05894 92.1844 9.27267 92.2657 9.46183C92.3471 9.6509 92.3878 9.75569 92.3878 9.77628C92.3878 9.79678 92.1994 10.0537 91.8224 10.547C91.4455 11.0403 91.227 11.3445 91.1671 11.4596C91.1071 11.5747 91.0643 11.6857 91.0386 11.7926C91.0129 11.8994 91 12.0145 91 12.1379C91 12.2612 91.0064 12.3578 91.0192 12.4277C91.0321 12.4976 91.0685 12.6003 91.1285 12.7359C91.1885 12.8716 91.242 12.9702 91.2892 13.0319C91.3362 13.0936 91.3919 13.1553 91.4562 13.2169C91.5205 13.2786 91.6125 13.3464 91.7325 13.4204C91.8525 13.4944 91.9831 13.552 92.1244 13.593C92.2657 13.6341 92.4222 13.6547 92.5935 13.6547C92.7648 13.6547 92.9212 13.6341 93.0625 13.593C93.2039 13.552 93.3409 13.4883 93.4738 13.4019C93.6065 13.3156 93.7136 13.2272 93.795 13.1368C93.8764 13.0463 94.3261 12.4565 95.1443 11.3671C95.9624 10.2778 96.3629 9.72282 96.3458 9.70224C96.3287 9.68174 96.0545 9.49055 95.5234 9.12883C94.9922 8.76711 94.6838 8.54719 94.5982 8.46909C94.5125 8.39099 94.4418 8.31077 94.3861 8.22859C94.3304 8.14634 94.2854 8.06002 94.2512 7.96963C94.2169 7.87916 94.1934 7.79487 94.1805 7.71677C94.1677 7.63866 94.1633 7.55031 94.1677 7.4517C94.1719 7.35301 94.1912 7.24814 94.2255 7.13717C94.2597 7.0262 94.3048 6.92548 94.3605 6.83509C94.4161 6.74462 94.9665 6.00678 96.0117 4.62149C97.0569 3.23611 97.6244 2.50234 97.7144 2.42017C97.8043 2.33792 97.9007 2.27015 98.0036 2.21669C98.1063 2.16324 98.2242 2.12215 98.3569 2.09335C98.4897 2.06455 98.6311 2.05634 98.781 2.0687C98.931 2.08107 99.038 2.0975 99.1023 2.11801C99.1665 2.13859 99.2501 2.17764 99.3528 2.23516C99.4557 2.29276 99.7748 2.50853 100.31 2.88261C100.578 3.06965 100.846 3.2567 101.113 3.44374C101.216 3.30812 101.319 3.17241 101.422 3.03679C101.627 2.76546 101.758 2.5846 101.814 2.49413C101.869 2.40374 101.914 2.31123 101.949 2.21669C101.983 2.12215 102.006 2.0338 102.019 1.95155C102.032 1.86937 102.032 1.7501 102.019 1.59389C102.006 1.43769 101.97 1.28766 101.91 1.14382C101.85 0.999896 101.769 0.868338 101.666 0.749148C101.563 0.629958 101.467 0.539487 101.377 0.477899C101.287 0.416229 101.173 0.358628 101.036 0.305175C100.899 0.251804 100.775 0.218855 100.664 0.206569C100.552 0.194203 100.447 0.173701 100.349 0.1449C100.25 0.116099 100.13 0.0894135 99.9889 0.0647619C99.8476 0.0401103 99.6356 0.02156 99.3528 0.00927486C99.0702 -0.00309162 98.8496 -0.00309162 98.691 0.00927486ZM105.251 0.35456C105.14 0.375063 105.026 0.410046 104.911 0.45935C104.795 0.508653 104.694 0.564221 104.609 0.625809C104.523 0.687479 104.455 0.745081 104.403 0.798534C104.352 0.851905 103.932 1.40075 103.144 2.44482C102.356 3.48898 101.983 4.03156 102.026 4.07264C102.069 4.11381 102.381 4.33372 102.964 4.73246C103.546 5.1312 103.881 5.37373 103.966 5.46005C104.052 5.54637 104.123 5.63887 104.178 5.73748C104.234 5.83617 104.277 5.94917 104.307 6.07666C104.337 6.20407 104.347 6.32944 104.339 6.45278C104.33 6.57612 104.302 6.69938 104.255 6.82272C104.208 6.94606 103.649 7.72092 102.578 9.14729C101.507 10.5738 100.931 11.328 100.85 11.4103C100.769 11.4925 100.67 11.5665 100.554 11.6322C100.439 11.698 100.327 11.7453 100.22 11.774C100.113 11.8028 100.012 11.8193 99.9183 11.8234C99.824 11.8275 99.7426 11.8255 99.6741 11.8172C99.6055 11.809 99.5242 11.7905 99.43 11.7617C99.3357 11.7329 99.2479 11.6959 99.1665 11.6508C99.0851 11.6055 98.7403 11.3712 98.132 10.9478C97.8279 10.7361 97.5238 10.5244 97.2197 10.3127C97.0719 10.51 96.9241 10.7073 96.7763 10.9046C96.4808 11.2993 96.3137 11.5357 96.2752 11.6138C96.2366 11.6919 96.2024 11.7884 96.1724 11.9036C96.1423 12.0187 96.1295 12.1543 96.1338 12.3105C96.1381 12.4667 96.1595 12.6045 96.198 12.7236C96.2366 12.8428 96.2987 12.9662 96.3844 13.0936C96.47 13.221 96.575 13.3341 96.6993 13.4328C96.8235 13.5314 96.9477 13.6074 97.0719 13.6609C97.1961 13.7143 97.3974 13.7739 97.6759 13.8397C97.9543 13.9055 98.1835 13.9487 98.3634 13.9692C98.5433 13.9897 98.7424 14 98.9609 14C99.1794 14 99.3828 13.9897 99.5713 13.9692C99.7598 13.9487 99.9183 13.926 100.047 13.9013C100.175 13.8767 100.304 13.8479 100.432 13.815C100.561 13.7821 100.732 13.7287 100.946 13.6547C101.16 13.5807 101.338 13.5129 101.48 13.4512C101.621 13.3896 101.805 13.2971 102.032 13.1737C102.259 13.0505 102.456 12.9333 102.623 12.8223C102.79 12.7113 102.955 12.5921 103.118 12.4647C103.281 12.3372 103.467 12.1749 103.677 11.9775C103.887 11.7802 104.037 11.6322 104.127 11.5336C104.217 11.4349 104.328 11.3034 104.461 11.1389C104.594 10.9745 104.722 10.8019 104.846 10.621C104.971 10.4402 105.086 10.2572 105.193 10.0723C105.3 9.88725 105.42 9.64675 105.553 9.35077C105.686 9.05487 105.797 8.75889 105.887 8.46291C105.977 8.16692 106.046 7.87916 106.093 7.59961C106.14 7.32015 106.168 7.01595 106.176 6.6871C106.185 6.35825 106.179 6.09513 106.157 5.89784C106.136 5.70054 106.099 5.49088 106.048 5.26886C105.997 5.04691 105.928 4.82285 105.842 4.59675C105.757 4.37066 105.919 3.98632 106.331 3.44374C106.742 2.90108 106.969 2.5846 107.012 2.49413C107.055 2.40374 107.089 2.30505 107.115 2.19822C107.14 2.09132 107.153 1.9762 107.153 1.85286C107.153 1.7296 107.145 1.62676 107.127 1.54459C107.11 1.46234 107.076 1.36373 107.025 1.24861C106.973 1.13349 106.92 1.03895 106.864 0.964992C106.808 0.890956 106.733 0.812853 106.639 0.730681C106.545 0.648427 106.444 0.578539 106.337 0.521019C106.23 0.463499 106.114 0.418264 105.99 0.385395C105.866 0.352445 105.74 0.333976 105.611 0.329908C105.483 0.325759 105.363 0.333977 105.251 0.35456ZM98.6589 3.75201C98.5818 3.76844 98.5047 3.79724 98.4276 3.83833C98.3505 3.8795 98.2649 3.95142 98.1706 4.05417C98.0764 4.15693 97.693 4.65639 97.0205 5.55255C96.348 6.44863 95.9924 6.94606 95.9539 7.04467C95.9153 7.14335 95.8961 7.24611 95.8961 7.35301C95.8961 7.45992 95.9132 7.55853 95.9474 7.649C95.9818 7.73939 96.0331 7.82367 96.1016 7.90178C96.1702 7.97988 96.6564 8.33338 97.5602 8.96237C98.464 9.59127 98.9845 9.94689 99.1215 10.0291C99.2586 10.1113 99.3593 10.1606 99.4235 10.177C99.4878 10.1935 99.5671 10.2017 99.6613 10.2017C99.7555 10.2017 99.8562 10.1832 99.9632 10.1462C100.07 10.1092 100.16 10.0619 100.233 10.0044C100.306 9.94689 100.694 9.45361 101.396 8.52458C102.099 7.59554 102.476 7.08169 102.527 6.98308C102.578 6.88439 102.608 6.76927 102.617 6.63771C102.625 6.50623 102.613 6.39315 102.578 6.29861C102.544 6.20407 102.514 6.13833 102.488 6.10131C102.463 6.0643 102.416 6.01499 102.347 5.95332C102.278 5.89165 101.76 5.52578 100.792 4.85572C99.824 4.18573 99.2993 3.83426 99.2179 3.80139C99.1366 3.76844 99.0423 3.74794 98.9352 3.73972C98.8281 3.7315 98.7361 3.73557 98.6589 3.75201Z" fill="white"/>
</svg>
