<svg width="24" height="25" viewBox="0 0 24 25" fill="none" xmlns="http://www.w3.org/2000/svg">
<path d="M14.3258 19.8859H14.317L9.64395 19.8741C8.45835 19.8712 7.35583 19.231 6.76645 18.2028L4.44021 14.1504C3.84986 13.1222 3.85377 11.8476 4.44901 10.8223L6.79578 6.78171C7.39004 5.75934 8.49158 5.125 9.67425 5.125H9.68305L14.3561 5.13673C15.5416 5.13966 16.6442 5.77987 17.2335 6.8081L19.5598 10.8614C20.1501 11.8897 20.1462 13.1642 19.551 14.1895L17.2042 18.2301C16.61 19.2515 15.5074 19.8859 14.3258 19.8859ZM9.67327 6.29692C8.90796 6.29692 8.19445 6.70743 7.80935 7.37011L5.46259 11.4107C5.07749 12.0744 5.07553 12.9003 5.45672 13.5659L7.78296 17.6192C7.97176 17.947 8.24328 18.2194 8.57038 18.4092C8.89747 18.5991 9.26868 18.6998 9.64688 18.7012L14.3199 18.713C15.0872 18.7188 15.8036 18.3034 16.1887 17.6398L18.5355 13.5992C18.9206 12.9355 18.9235 12.1096 18.5413 11.444L16.2151 7.39064C16.0263 7.06293 15.7548 6.79051 15.4277 6.60064C15.1006 6.41076 14.7294 6.31008 14.3512 6.30865L9.67816 6.29692H9.67327Z" fill="white" fill-opacity="0.8"/>
<path d="M11.5511 15.3005C11.4054 15.3005 11.2637 15.2457 11.1542 15.1461L8.71167 12.9058C8.47318 12.6869 8.45657 12.3155 8.67551 12.077C8.78067 11.9623 8.92703 11.8941 9.08245 11.8874C9.23786 11.8806 9.38961 11.9358 9.50435 12.0408L11.4533 13.8285L13.9682 10.2326C14.0123 10.1694 14.0685 10.1156 14.1334 10.0741C14.1984 10.0326 14.2709 10.0043 14.3468 9.99091C14.4227 9.97748 14.5004 9.97913 14.5757 9.99578C14.6509 10.0124 14.7222 10.0438 14.7853 10.0879C14.8485 10.1321 14.9024 10.1882 14.9438 10.2532C14.9853 10.3181 15.0136 10.3906 15.027 10.4665C15.0404 10.5424 15.0388 10.6202 15.0221 10.6955C15.0055 10.7707 14.9742 10.8419 14.93 10.9051L12.0319 15.0493C11.9842 15.1178 11.9223 15.1753 11.8505 15.218C11.7787 15.2606 11.6986 15.2874 11.6156 15.2966C11.5931 15.2995 11.5716 15.3005 11.5511 15.3005Z" fill="white" fill-opacity="0.8"/>
</svg>
