<svg width="15" height="15" viewBox="0 0 15 15" fill="none" xmlns="http://www.w3.org/2000/svg">
<path d="M7.49995 15C5.51084 15 3.6032 14.2098 2.19668 12.8033C0.790171 11.3968 5.5459e-09 9.48916 5.5459e-09 7.50005C-6.13512e-05 5.90382 0.508991 4.34917 1.45315 3.06211C2.39732 1.77506 3.72737 0.822679 5.24996 0.343437V1.93676C3.96103 2.46057 2.89409 3.41587 2.23158 4.6393C1.56907 5.86274 1.35213 7.27833 1.61787 8.64402C1.88361 10.0097 2.61551 11.2407 3.68843 12.1264C4.76135 13.0122 6.10865 13.4977 7.49995 13.5C8.69524 13.4999 9.86328 13.1429 10.8544 12.4749C11.8456 11.8068 12.6147 10.858 13.0632 9.75004H14.6566C14.1773 11.2726 13.2249 12.6027 11.9379 13.5468C10.6508 14.491 9.09618 15.0001 7.49995 15ZM14.9624 8.25005H6.74995V0.0376055C7.85589 -0.0735611 8.97271 0.0624796 10.0196 0.435886C11.0665 0.809292 12.0174 1.41073 12.8033 2.19668C13.5893 2.98264 14.1907 3.93347 14.5641 4.98038C14.9375 6.02729 15.0736 7.14411 14.9624 8.25005ZM8.24994 1.54676V6.75006H13.4532C13.2862 5.42835 12.6843 4.19974 11.7423 3.25772C10.8003 2.3157 9.57165 1.71378 8.24994 1.54676Z" fill="white"/>
</svg>
