<svg width="18" height="18" viewBox="0 0 18 18" fill="none" xmlns="http://www.w3.org/2000/svg">
<path fill-rule="evenodd" clip-rule="evenodd" d="M9.85166 2.00825C11.7132 2.09562 13.4756 2.87292 14.7954 4.18871C15.4827 4.87467 16.0306 5.68727 16.409 6.5816C17.1341 8.29835 17.1942 10.2236 16.5774 11.9822C15.9606 13.7408 14.7112 15.2067 13.0726 16.0945C11.434 16.9822 9.52356 17.228 7.71358 16.7841C5.9036 16.3402 4.32373 15.2383 3.28179 13.6932C2.23986 12.148 1.8105 10.2703 2.07739 8.42593C2.34428 6.58152 3.28829 4.90253 4.72548 3.71613C6.16267 2.52972 7.99009 1.92089 9.85166 2.00825ZM7.65951 6.29222C7.77465 6.18141 7.92903 6.12078 8.08881 6.12363C8.24876 6.12077 8.40333 6.18135 8.51875 6.29211C8.63417 6.40288 8.70106 6.55483 8.70478 6.71476V12.3775C8.69632 12.5349 8.62783 12.6831 8.51341 12.7915C8.39899 12.8999 8.24734 12.9604 8.0897 12.9604C7.93205 12.9604 7.78041 12.8999 7.66598 12.7915C7.55156 12.6831 7.48307 12.5349 7.47461 12.3775V6.71476C7.47787 6.55499 7.54437 6.40303 7.65951 6.29222ZM10.4252 6.29222C10.5403 6.18141 10.6947 6.12078 10.8545 6.12363C11.0144 6.12077 11.169 6.18135 11.2844 6.29211C11.3998 6.40288 11.4667 6.55483 11.4705 6.71476V12.3775C11.462 12.5349 11.3935 12.6831 11.2791 12.7915C11.1647 12.8999 11.013 12.9604 10.8554 12.9604C10.6977 12.9604 10.5461 12.8999 10.4317 12.7915C10.3172 12.6831 10.2487 12.5349 10.2403 12.3775V6.71476C10.2436 6.55499 10.31 6.40303 10.4252 6.29222Z" fill="#F4B62C"/>
</svg>
