<?xml version="1.0" standalone="no"?>
<!DOCTYPE svg PUBLIC "-//W3C//DTD SVG 20010904//EN"
 "http://www.w3.org/TR/2001/REC-SVG-20010904/DTD/svg10.dtd">
<svg version="1.0" xmlns="http://www.w3.org/2000/svg"
 width="512.000000pt" height="512.000000pt" viewBox="0 0 512.000000 512.000000"
 preserveAspectRatio="xMidYMid meet">

<g transform="translate(0.000000,512.000000) scale(0.100000,-0.100000)"
fill="#000000" stroke="none">
<path d="M4375 5109 c-76 -11 -114 -24 -200 -66 -66 -33 -132 -97 -1043 -1006
-600 -600 -981 -987 -994 -1012 -17 -32 -30 -114 -64 -390 -24 -192 -44 -370
-44 -395 1 -110 96 -214 195 -213 35 0 536 59 701 82 34 5 79 18 100 29 24 12
424 406 1010 994 l972 973 40 85 c50 106 66 172 66 275 0 158 -59 303 -169
423 -158 170 -368 252 -570 221z"/>
<path d="M502 4465 c-188 -41 -361 -183 -444 -364 -61 -133 -59 -43 -56 -1894
l3 -1692 27 -73 c38 -105 83 -176 158 -252 76 -75 147 -120 252 -158 l73 -27
1615 0 1615 0 85 31 c101 36 177 84 249 157 60 61 81 90 121 168 68 132 64 57
67 1282 2 609 0 1107 -4 1107 -4 0 -223 -215 -488 -478 -500 -498 -511 -507
-642 -553 -57 -20 -797 -119 -891 -119 -76 0 -195 30 -281 72 -119 57 -231
169 -290 288 -42 87 -71 202 -71 286 0 92 99 829 119 887 45 130 56 143 551
642 261 264 524 531 585 593 l110 112 -1200 -1 c-973 0 -1212 -3 -1263 -14z"/>
</g>
</svg>
