<svg width="16" height="18" viewBox="0 0 16 18" fill="none" xmlns="http://www.w3.org/2000/svg">
<path d="M5.14286 0C6.08929 0 6.85714 0.863438 6.85714 1.92857V5.78571C6.85714 6.85045 6.08929 7.71429 5.14286 7.71429H1.71429C0.7675 7.71429 0 6.85045 0 5.78571V1.92857C0 0.863438 0.7675 0 1.71429 0H5.14286ZM4.57143 2.57143H2.28571V5.14286H4.57143V2.57143ZM5.14286 10.2857C6.08929 10.2857 6.85714 11.1496 6.85714 12.2143V16.0714C6.85714 17.1362 6.08929 18 5.14286 18H1.71429C0.7675 18 0 17.1362 0 16.0714V12.2143C0 11.1496 0.7675 10.2857 1.71429 10.2857H5.14286ZM4.57143 12.8571H2.28571V15.4286H4.57143V12.8571ZM9.14286 1.92857C9.14286 0.863438 9.91072 0 10.8571 0H14.2857C15.2321 0 16 0.863438 16 1.92857V5.78571C16 6.85045 15.2321 7.71429 14.2857 7.71429H10.8571C9.91072 7.71429 9.14286 6.85045 9.14286 5.78571V1.92857ZM11.4286 5.14286H13.7143V2.57143H11.4286V5.14286Z" fill="white"/>
<path d="M12.4286 16.7142H13.5714V17.9999H12.4286V16.7142ZM15.8571 17.9999H14.7143V16.7142H15.8571V17.9999ZM14.7143 10.2856H15.8571V15.4285H12.4286V14.1428H11.2857V17.9999H9V10.2856H12.4286V11.5714H14.7143V10.2856Z" fill="#F4B62C"/>
</svg>
