<svg width="32" height="32" viewBox="0 0 32 32" fill="none" xmlns="http://www.w3.org/2000/svg">
<g id="icon">
<ellipse id="Ellipse 11" cx="15.9615" cy="15.7193" rx="15.9615" ry="15.7193" fill="white" fill-opacity="0.08"/>
<path id="Vector" d="M11.7688 22.7519C11.3332 22.4159 11.1458 22.0278 11.2166 21.5837V21.5685L11.9006 18.0693C11.9092 18.0389 11.8921 18.0071 11.8773 17.9837L9.41168 15.9308C9.39613 15.9156 9.38057 15.9074 9.37279 15.8919C9.20685 15.7231 9.09017 15.5121 9.03534 15.2819C8.98051 15.0516 8.98962 14.8107 9.06168 14.5852C9.20168 14.1197 9.57502 13.7837 10.0429 13.7145L13.3022 13.1156H13.3178C13.3477 13.1067 13.38 13.0915 13.3956 13.053L14.8967 9.72411V9.71556C15.0989 9.28 15.5349 9 16.0012 9C16.4671 9 16.896 9.27183 17.0986 9.71556C17.0986 9.72411 17.1072 9.72411 17.1072 9.73111L18.5461 13.0511C18.5613 13.0814 18.5932 13.1055 18.6239 13.1055H18.6391L21.9606 13.7059C22.4199 13.7752 22.8018 14.1182 22.9418 14.5771C23.0818 15.0429 22.9656 15.5407 22.6311 15.8837L22.6008 15.9141L20.2417 18.0374C20.218 18.0607 20.211 18.0996 20.218 18.1385L20.7788 21.5841C20.8566 22.0818 20.7162 22.4785 20.358 22.7503C20.152 22.9122 19.8974 22.9996 19.6354 22.9984C19.4328 22.9984 19.2387 22.944 19.0595 22.8499L16.0482 21.1481C16.0179 21.1329 15.986 21.1329 15.9623 21.1481L13.0829 22.8448C13.0743 22.8448 13.0743 22.853 13.0673 22.853C12.8884 22.9526 12.694 23 12.4918 23C12.2265 23 11.9784 22.9141 11.7688 22.7519Z" fill="white"/>
</g>
</svg>
