<?xml version="1.0" standalone="no"?>
<!DOCTYPE svg PUBLIC "-//W3C//DTD SVG 20010904//EN"
 "http://www.w3.org/TR/2001/REC-SVG-20010904/DTD/svg10.dtd">
<svg version="1.0" xmlns="http://www.w3.org/2000/svg"
 width="512.000000pt" height="512.000000pt" viewBox="0 0 512.000000 512.000000"
 preserveAspectRatio="xMidYMid meet">

<g transform="translate(0.000000,512.000000) scale(0.100000,-0.100000)"
fill="#000000" stroke="none">
<path d="M2380 4954 c-537 -51 -997 -242 -1386 -578 -441 -380 -716 -881 -811
-1478 -24 -157 -24 -517 1 -676 74 -472 259 -879 561 -1230 382 -445 916 -731
1515 -814 123 -17 478 -16 600 1 697 96 1288 457 1678 1024 426 619 535 1399
296 2116 -302 906 -1105 1542 -2059 1631 -102 9 -313 11 -395 4z m260 -1126
c67 -46 75 -66 78 -202 l4 -123 41 -14 c108 -35 238 -153 298 -271 57 -112
-16 -241 -136 -241 -59 0 -103 28 -150 97 -71 105 -150 147 -246 132 -121 -18
-213 -146 -195 -270 15 -97 109 -190 205 -200 191 -22 294 -64 399 -162 121
-112 181 -244 182 -400 0 -54 -6 -112 -16 -145 -46 -157 -164 -295 -306 -359
l-76 -34 -4 -117 c-3 -101 -6 -122 -24 -146 -73 -98 -195 -98 -268 0 -18 24
-21 45 -24 147 l-4 118 -46 18 c-110 41 -227 145 -286 254 -50 92 -36 180 36
232 26 18 46 23 93 23 74 0 115 -26 150 -95 109 -214 410 -170 450 67 15 92
-47 208 -132 248 -21 10 -76 22 -123 27 -197 19 -359 114 -449 263 -79 130
-106 277 -77 415 39 186 155 327 323 395 l58 24 5 120 c4 101 8 124 26 148 35
48 82 73 134 73 32 0 57 -7 80 -22z"/>
</g>
</svg>
