<svg width="18" height="16" viewBox="0 0 18 16" fill="none" xmlns="http://www.w3.org/2000/svg">
<path d="M17.0328 0.0386527C17.5567 -0.1362 18.0787 0.307911 17.9901 0.85304L15.7861 14.4445C15.7672 14.5614 15.7203 14.6719 15.6495 14.7667C15.5786 14.8615 15.4859 14.9378 15.3793 14.9891C15.2726 15.0404 15.1551 15.0652 15.0369 15.0613C14.9186 15.0574 14.803 15.025 14.6999 14.9669L8.83277 11.6572L6.16663 12.7985C6.05897 12.8446 5.94184 12.8643 5.82502 12.8559C5.70821 12.8475 5.59508 12.8114 5.49508 12.7504C5.39508 12.6894 5.31111 12.6054 5.25016 12.5054C5.18921 12.4054 5.15305 12.2923 5.1447 12.1755L5.14286 12.1219L5.14727 9.57804L0.373717 6.88546C-0.162963 6.5824 -0.106393 5.80255 0.445716 5.57002L0.502653 5.54872L17.0328 0.0386527ZM16.3452 1.8162L2.53734 6.41894L6.24377 8.50946C6.34834 8.56851 6.43684 8.65229 6.50152 8.75348C6.5662 8.85466 6.60509 8.97015 6.61478 9.08985L6.61735 9.15083L6.61405 11.0085L8.58849 10.1636C8.68171 10.1237 8.78219 10.1035 8.88359 10.1043C8.985 10.1051 9.08513 10.1269 9.1777 10.1684L9.23868 10.1992L14.5041 13.1695L16.3452 1.8162ZM14.1559 3.93868C14.2739 4.08032 14.3343 4.26115 14.3252 4.44529C14.3161 4.62942 14.2381 4.8034 14.1066 4.93269L14.0618 4.9731L9.65377 8.64647C9.50799 8.76682 9.32143 8.82633 9.13289 8.81265C8.94436 8.79897 8.76834 8.71315 8.64147 8.57302C8.51458 8.4329 8.4466 8.24926 8.45165 8.06029C8.4567 7.87132 8.53439 7.69157 8.66857 7.55842L8.71338 7.51801L13.1214 3.84464C13.2711 3.71999 13.4641 3.65987 13.6581 3.67751C13.8521 3.69514 14.0311 3.78908 14.1559 3.93868Z" fill="black"/>
</svg>
