<svg width="18" height="15" viewBox="0 0 18 15" fill="none" xmlns="http://www.w3.org/2000/svg">
<path d="M17.0328 0.0384943C17.5567 -0.135642 18.0787 0.30665 17.9901 0.849546L15.7861 14.3854C15.7672 14.5017 15.7203 14.6118 15.6495 14.7062C15.5786 14.8006 15.4859 14.8766 15.3793 14.9277C15.2726 14.9788 15.1551 15.0035 15.0369 14.9996C14.9186 14.9958 14.803 14.9635 14.6999 14.9056L8.83277 11.6094L6.16663 12.7461C6.05897 12.792 5.94184 12.8116 5.82502 12.8032C5.70821 12.7949 5.59508 12.7589 5.49508 12.6982C5.39508 12.6375 5.31111 12.5538 5.25016 12.4542C5.18921 12.3546 5.15305 12.242 5.1447 12.1256L5.14286 12.0722L5.14727 9.53881L0.373717 6.85725C-0.162963 6.55544 -0.106393 5.77878 0.445716 5.54721L0.502653 5.52599L17.0328 0.0384943ZM16.3452 1.80876L2.53734 6.39265L6.24377 8.4746C6.34834 8.53341 6.43684 8.61685 6.50152 8.71762C6.5662 8.81839 6.60509 8.93341 6.61478 9.05262L6.61735 9.11335L6.61405 10.9634L8.58849 10.1219C8.68171 10.0822 8.78219 10.0621 8.88359 10.0629C8.985 10.0637 9.08513 10.0855 9.1777 10.1267L9.23868 10.1574L14.5041 13.1156L16.3452 1.80876Z" fill="white"/>
<path d="M14.7045 4.26311C14.8225 4.40417 14.8829 4.58426 14.8738 4.76764C14.8647 4.95102 14.7867 5.12429 14.6552 5.25305L14.6104 5.29329L10.2024 8.95162C10.0566 9.07147 9.87005 9.13074 9.68151 9.11712C9.49297 9.10349 9.31696 9.01802 9.19008 8.87847C9.0632 8.73892 8.99521 8.55603 9.00026 8.36783C9.00531 8.17964 9.083 8.00063 9.21718 7.86802L9.262 7.82778L13.67 4.16945C13.8197 4.04531 14.0128 3.98545 14.2067 4.00301C14.4007 4.02057 14.5797 4.11412 14.7045 4.26311Z" fill="#F4B62C"/>
</svg>
