<?xml version="1.0" standalone="no"?><!DOCTYPE svg PUBLIC "-//W3C//DTD SVG 1.1//EN" "http://www.w3.org/Graphics/SVG/1.1/DTD/svg11.dtd"><svg t="1747039969758" class="icon" viewBox="0 0 1024 1024" version="1.1" xmlns="http://www.w3.org/2000/svg" p-id="11688" xmlns:xlink="http://www.w3.org/1999/xlink" width="200" height="200"><path d="M910.102437 1023.946097H113.84366A114.005369 114.005369 0 0 1 0 910.048534V113.897563C0 51.208085 50.992472 0 113.84366 0h796.420487C972.953624 0 1024.16171 50.992472 1024.16171 113.84366v796.420487a114.167079 114.167079 0 0 1-114.059273 113.68195zM113.84366 65.923672c-26.358688 0-47.919987 21.561299-47.919988 47.973891v796.366584c0 26.412591 21.561299 47.973891 47.973891 47.973891h796.366584c26.412591 0 47.973891-21.561299 47.973891-47.973891V113.84366c0-26.358688-21.561299-47.919987-47.973891-47.919988H113.84366z m395.919355 71.044481H181.114913a35.252724 35.252724 0 0 0-35.144918 35.144917v684.732958c0 19.405169 15.793652 35.198821 35.144918 35.198821h328.648102a35.252724 35.252724 0 0 0 35.198821-35.144917V172.059167a35.252724 35.252724 0 0 0-35.198821-35.144917z m-101.553719 454.134863c12.936779 12.936779 12.936779 33.85124 0 46.62631a33.150497 33.150497 0 0 1-23.286203 9.648681 33.150497 33.150497 0 0 1-23.286203-9.702585L260.89172 537.091962a32.773175 32.773175 0 0 1 0-46.62631L361.63689 389.720482c12.936779-12.936779 33.85124-12.936779 46.572406 0 12.936779 12.990683 12.936779 33.905143 0 46.62631L330.858135 513.751856l77.351161 77.35116z" p-id="11689"></path></svg>