<svg width="200" height="200" viewBox="0 0 200 200" fill="none" xmlns="http://www.w3.org/2000/svg">
<path d="M158.333 16.666C164.964 16.666 171.322 19.2999 176.011 23.9883C180.699 28.6768 183.333 35.0356 183.333 41.666V158.333C183.333 164.963 180.699 171.322 176.011 176.01C171.322 180.699 164.964 183.333 158.333 183.333H41.6665C35.0361 183.333 28.6772 180.699 23.9888 176.01C19.3004 171.322 16.6665 164.963 16.6665 158.333V41.666C16.6665 35.0356 19.3004 28.6768 23.9888 23.9883C28.6772 19.2999 35.0361 16.666 41.6665 16.666H158.333ZM66.6665 33.3327H41.6665L40.5332 33.416C38.7302 33.6586 37.0567 34.4862 35.7696 35.7718C34.4824 37.0575 33.6529 38.73 33.4082 40.5327L33.3332 41.666V158.333L33.4165 159.466C33.6591 161.269 34.4867 162.942 35.7723 164.23C37.058 165.517 38.7305 166.346 40.5332 166.591L41.6665 166.666H66.6665V33.3327ZM158.333 33.3327H83.3332V166.666H158.333L159.467 166.583C161.269 166.34 162.943 165.512 164.23 164.227C165.517 162.941 166.347 161.269 166.592 159.466L166.667 158.333V41.666L166.583 40.5327C166.314 38.5364 165.33 36.7057 163.812 35.3813C162.295 34.0568 160.347 33.3288 158.333 33.3327Z" fill="white"/>
</svg>
