<?xml version="1.0" standalone="no"?><!DOCTYPE svg PUBLIC "-//W3C//DTD SVG 1.1//EN" "http://www.w3.org/Graphics/SVG/1.1/DTD/svg11.dtd"><svg t="1746517463329" class="icon" viewBox="0 0 1024 1024" version="1.1" xmlns="http://www.w3.org/2000/svg" p-id="39799" xmlns:xlink="http://www.w3.org/1999/xlink" width="200" height="200"><path d="M983.779031 312.718444a510.292766 510.292766 0 0 0-109.738544-162.758931A510.292766 510.292766 0 0 0 512 0.000569a510.292766 510.292766 0 0 0-362.040487 149.958944A510.292766 510.292766 0 0 0 0.000569 512a510.292766 510.292766 0 0 0 149.958944 362.040487A510.292766 510.292766 0 0 0 512 1023.999431a510.292766 510.292766 0 0 0 362.040487-149.958944A510.292766 510.292766 0 0 0 1023.999431 512a508.813657 508.813657 0 0 0-40.2204-199.281556zM512 951.40929c-242.289509 0-439.40929-197.119781-439.40929-439.40929S269.710491 72.59071 512 72.59071 951.40929 269.710491 951.40929 512 754.289509 951.40929 512 951.40929z" p-id="39800" fill="#ffffff"></path><path d="M693.020243 330.979757c-12.515542-12.515542-31.516409-13.767096-42.439064-2.844442L512 466.716495 373.418821 328.135315c-10.922655-10.922655-29.923522-9.6711-42.439064 2.844442-12.515542 12.515542-13.767096 31.516409-2.844442 42.439064L466.716495 512l-138.58118 138.581179c-10.922655 10.922655-9.6711 29.923522 2.844442 42.439064 12.515542 12.515542 31.516409 13.767096 42.439064 2.844442L512 557.226616l138.581179 138.638069c10.922655 10.922655 29.923522 9.6711 42.439064-2.844442 12.515542-12.515542 13.767096-31.516409 2.844442-42.439064L557.226616 512l138.638069-138.581179c10.922655-10.922655 9.6711-29.923522-2.844442-42.439064z" p-id="39801" fill="#ffffff"></path></svg>