<svg preserveAspectRatio="none" width="100%" height="100%" overflow="visible" style="display: block;" viewBox="0 0 38 49" fill="none" xmlns="http://www.w3.org/2000/svg">
<g id="Group 1">
<path id="Vector" d="M26.8022 4.34632L36.7522 14.1639C37.5985 14.9975 38.0143 15.8408 37.9996 16.6939C37.9849 17.5421 37.623 18.322 36.9087 19.024C36.1651 19.7601 35.3629 20.1354 34.5019 20.15C33.641 20.1646 32.7898 19.7503 31.9386 18.9167L21.7636 8.87487C20.6091 7.73421 19.4938 6.92503 18.4176 6.45218C17.3462 5.97934 16.2162 5.90622 15.0324 6.22795C13.8486 6.54967 12.5767 7.38325 11.2168 8.72869C9.33829 10.5811 8.44314 12.3213 8.53603 13.9494C8.62899 15.5776 9.55847 17.2593 11.3293 19.0093L21.5875 29.134C22.4436 29.9773 22.8643 30.8207 22.8496 31.6591C22.8349 32.4975 22.4681 33.2775 21.744 33.9892C21.02 34.7009 20.2275 35.0763 19.3568 35.1055C18.4909 35.1348 17.63 34.7253 16.7739 33.882L6.82881 24.0644C5.20962 22.4655 4.04046 20.9543 3.32136 19.5309C2.60226 18.1076 2.33321 16.494 2.5191 14.6953C2.68543 13.1549 3.1844 11.6632 4.00622 10.2155C4.83294 8.76765 6.01188 7.29063 7.54302 5.77461C9.36765 3.97097 11.1092 2.59144 12.7724 1.63113C14.4356 0.670821 16.0451 0.134606 17.5958 0.0224888C19.1465 -0.089629 20.6776 0.217476 22.1941 0.943799C23.7056 1.67013 25.2417 2.80105 26.8071 4.34632H26.8022Z" fill="url(#paint0_linear_22938_5501)"/>
<path id="Vector_2" d="M11.1978 43.9667L1.2478 34.1491C0.401506 33.3155 -0.0143003 32.4722 0.000375226 31.6192C0.0150507 30.7661 0.377046 29.991 1.09126 29.2891C1.83481 28.553 2.63708 28.1776 3.49804 28.163C4.359 28.1484 5.21018 28.5579 6.06136 29.3963L16.2364 39.4382C17.3957 40.5788 18.5062 41.388 19.5824 41.8608C20.6586 42.3337 21.7837 42.4068 22.9675 42.0851C24.1513 41.7633 25.4232 40.9298 26.7832 39.5843C28.6616 37.732 29.5569 35.9917 29.4639 34.3636C29.3709 32.7354 28.4415 31.0488 26.6707 29.3037L21.2065 23.9561C20.3504 23.1128 19.9297 22.2695 19.9444 21.4311C19.9591 20.5926 20.326 19.8127 21.0499 19.101C21.7739 18.3893 22.5664 18.014 23.4372 17.9847C24.303 17.9555 25.164 18.3649 26.0201 19.2082L31.1712 24.2487C32.7904 25.8475 33.9595 27.3587 34.6786 28.7821C35.3977 30.2055 35.6668 31.819 35.4809 33.6178C35.3145 35.1582 34.8156 36.6498 33.9938 38.0976C33.167 39.5454 31.9881 41.0224 30.457 42.5384C28.6323 44.3421 26.8908 45.7216 25.2276 46.6819C23.5644 47.6422 21.9598 48.1784 20.4091 48.2905C18.8584 48.4027 17.3272 48.0956 15.8108 47.3692C14.2992 46.6429 12.7583 45.5119 11.1978 43.9667Z" fill="url(#paint1_linear_22938_5501)"/>
<path id="Vector_3" d="M17.4013 18.6347C19.4195 18.6347 21.0555 17.0045 21.0555 14.9934C21.0555 12.9823 19.4195 11.3521 17.4013 11.3521C15.3832 11.3521 13.7471 12.9823 13.7471 14.9934C13.7471 17.0045 15.3832 18.6347 17.4013 18.6347Z" fill="url(#paint2_radial_22938_5501)"/>
</g>
<defs>
<linearGradient id="paint0_linear_22938_5501" x1="35.0981" y1="10.0665" x2="4.30427" y2="23.7968" gradientUnits="userSpaceOnUse">
<stop stop-color="#070100"/>
<stop offset="0.36" stop-color="#77390D"/>
<stop offset="0.67" stop-color="#EA8101"/>
<stop offset="1" stop-color="#F4B852"/>
</linearGradient>
<linearGradient id="paint1_linear_22938_5501" x1="3.72107" y1="38.6451" x2="39.4243" y2="27.9794" gradientUnits="userSpaceOnUse">
<stop stop-color="#070100"/>
<stop offset="0.37" stop-color="#77390D"/>
<stop offset="0.67" stop-color="#EA8101"/>
<stop offset="1" stop-color="#F4FB52"/>
</linearGradient>
<radialGradient id="paint2_radial_22938_5501" cx="0" cy="0" r="1" gradientUnits="userSpaceOnUse" gradientTransform="translate(17.4013 14.9983) scale(3.6542 3.64138)">
<stop stop-color="#F4B852"/>
<stop offset="0.33" stop-color="#EA8101"/>
<stop offset="0.64" stop-color="#77390D"/>
<stop offset="1" stop-color="#070100"/>
</radialGradient>
</defs>
</svg>
