<svg preserveAspectRatio="none" width="100%" height="100%" overflow="visible" style="display: block;" viewBox="0 0 13 15" fill="none" xmlns="http://www.w3.org/2000/svg">
<g id="Group 366">
<path id="Vector" d="M11.1929 14.413H1.80713C1.31099 14.413 0.850966 14.2168 0.513406 13.862C0.182126 13.515 0 13.0455 0 12.54V1.87307C0 1.36908 0.182126 0.899638 0.513406 0.551087C0.850966 0.196256 1.31099 0 1.80713 0H11.1913C11.6874 0 12.1475 0.196256 12.485 0.551087C12.8179 0.898068 13 1.36751 13 1.87307V12.54C13 13.5731 12.1883 14.413 11.1929 14.413ZM1.80713 1.06763C1.3785 1.06763 1.06763 1.40676 1.06763 1.87307V12.54C1.06763 13.0063 1.3785 13.3454 1.80713 13.3454H11.1913C11.3797 13.3454 11.5603 13.2653 11.7 13.1225C11.8492 12.9702 11.9308 12.7629 11.9308 12.5415V1.87307C11.9308 1.40676 11.6199 1.06763 11.1913 1.06763H1.80713Z" fill="var(--fill-0, white)" fill-opacity="0.65"/>
<path id="Vector_2" d="M3.14684 10.0171H6.63078C6.96363 10.0171 7.23368 10.2871 7.23368 10.62C7.23368 10.9528 6.96363 11.2229 6.63078 11.2229H3.14684C2.81399 11.2229 2.54395 10.9528 2.54395 10.62C2.54395 10.2871 2.81399 10.0171 3.14684 10.0171ZM3.14684 6.65719H7.97003C8.30288 6.65719 8.57293 6.92724 8.57293 7.26009C8.57293 7.59294 8.30288 7.86299 7.97003 7.86299H3.14684C2.81399 7.86299 2.54395 7.59294 2.54395 7.26009C2.54395 6.92724 2.81399 6.65719 3.14684 6.65719ZM3.14684 3.31299H9.97969C10.3125 3.31299 10.5826 3.58304 10.5826 3.91589C10.5826 4.24874 10.3125 4.51879 9.97969 4.51879H3.14684C2.81399 4.51879 2.54395 4.24874 2.54395 3.91589C2.54395 3.58304 2.81399 3.31299 3.14684 3.31299Z" fill="var(--fill-0, white)" fill-opacity="0.65"/>
</g>
</svg>
