<svg width="15" height="14" viewBox="0 0 15 14" fill="none" xmlns="http://www.w3.org/2000/svg">
<path id="&#230;&#142;&#146;&#229;&#186;&#143;" d="M12.2368 3.96681C12.3415 3.96681 12.4419 4.0086 12.516 4.08299C12.59 4.15739 12.6316 4.25828 12.6316 4.36349V11.5716L13.768 10.4299C13.8421 10.3556 13.9424 10.3138 14.0471 10.3138C14.1518 10.3138 14.2522 10.3556 14.3262 10.4299L14.8843 10.9908C14.9583 11.0652 14.9999 11.1661 14.9999 11.2713C14.9999 11.3765 14.9583 11.4774 14.8843 11.5517L12.737 13.7097C12.6028 13.8444 12.4329 13.9375 12.2476 13.9777C12.0622 14.0179 11.8692 14.0036 11.6917 13.9364C11.5142 13.8693 11.3598 13.7522 11.2468 13.5992C11.1338 13.4461 11.0671 13.2636 11.0546 13.0734L11.0526 13.0084V4.36349C11.0526 4.25828 11.0942 4.15739 11.1682 4.08299C11.2423 4.0086 11.3427 3.96681 11.4474 3.96681H12.2368ZM8.28947 11.9004C8.34131 11.9004 8.39264 11.9107 8.44053 11.9306C8.48842 11.9506 8.53194 11.9798 8.56859 12.0166C8.60525 12.0534 8.63433 12.0972 8.65416 12.1453C8.674 12.1934 8.68421 12.245 8.68421 12.2971V13.0905C8.68421 13.1426 8.674 13.1941 8.65416 13.2423C8.63433 13.2904 8.60525 13.3341 8.56859 13.371C8.53194 13.4078 8.48842 13.437 8.44053 13.457C8.39264 13.4769 8.34131 13.4871 8.28947 13.4871H0.394737C0.342899 13.4871 0.291569 13.4769 0.243678 13.457C0.195786 13.437 0.15227 13.4078 0.115616 13.371C0.0789611 13.3341 0.049885 13.2904 0.0300477 13.2423C0.0102103 13.1941 -2.42989e-09 13.1426 0 13.0905V12.2971C-2.42989e-09 12.245 0.0102103 12.1934 0.0300477 12.1453C0.049885 12.0972 0.0789611 12.0534 0.115616 12.0166C0.15227 11.9798 0.195786 11.9506 0.243678 11.9306C0.291569 11.9107 0.342899 11.9004 0.394737 11.9004H8.28947ZM8.28947 5.95021C8.34131 5.95021 8.39264 5.96047 8.44053 5.98041C8.48842 6.00034 8.53194 6.02956 8.56859 6.0664C8.60525 6.10323 8.63433 6.14696 8.65416 6.19509C8.674 6.24322 8.68421 6.2948 8.68421 6.34689V7.14025C8.68421 7.19235 8.674 7.24393 8.65416 7.29206C8.63433 7.34019 8.60525 7.38391 8.56859 7.42075C8.53194 7.45759 8.48842 7.48681 8.44053 7.50674C8.39264 7.52668 8.34131 7.53694 8.28947 7.53694H0.394737C0.342899 7.53694 0.291569 7.52668 0.243678 7.50674C0.195786 7.48681 0.15227 7.45759 0.115616 7.42075C0.0789611 7.38391 0.049885 7.34019 0.0300477 7.29206C0.0102103 7.24393 -2.42989e-09 7.19235 0 7.14025V6.34689C-2.42989e-09 6.2948 0.0102103 6.24322 0.0300477 6.19509C0.049885 6.14696 0.0789611 6.10323 0.115616 6.0664C0.15227 6.02956 0.195786 6.00034 0.243678 5.98041C0.291569 5.96047 0.342899 5.95021 0.394737 5.95021H8.28947ZM14.6053 0C14.6571 0 14.7084 0.0102604 14.7563 0.0301955C14.8042 0.0501306 14.8477 0.0793501 14.8844 0.116185C14.921 0.153021 14.9501 0.19675 14.97 0.244878C14.9898 0.293005 15 0.344588 15 0.396681V1.19004C15 1.24214 14.9898 1.29372 14.97 1.34185C14.9501 1.38997 14.921 1.4337 14.8844 1.47054C14.8477 1.50737 14.8042 1.53659 14.7563 1.55653C14.7084 1.57646 14.6571 1.58672 14.6053 1.58672H0.394737C0.342899 1.58672 0.291569 1.57646 0.243678 1.55653C0.195786 1.53659 0.15227 1.50737 0.115616 1.47054C0.0789611 1.4337 0.049885 1.38997 0.0300477 1.34185C0.0102103 1.29372 -2.42989e-09 1.24214 0 1.19004V0.396681C-2.42989e-09 0.344588 0.0102103 0.293005 0.0300477 0.244878C0.049885 0.19675 0.0789611 0.153021 0.115616 0.116185C0.15227 0.0793501 0.195786 0.0501306 0.243678 0.0301955C0.291569 0.0102604 0.342899 0 0.394737 0H14.6053Z" fill="white"/>
</svg>
