<svg width="20" height="20" viewBox="0 0 20 20" fill="none" xmlns="http://www.w3.org/2000/svg">
<g id="&#231;&#189;&#174;&#233;&#161;&#182; 2">
<path id="Vector" d="M15.8721 3.71146C15.8721 3.90016 15.7957 4.08112 15.6598 4.21455C15.5239 4.34797 15.3396 4.42293 15.1474 4.42293H4.73673C4.54452 4.42293 4.36017 4.34797 4.22426 4.21455C4.08834 4.08112 4.01198 3.90016 4.01198 3.71146C4.01198 3.52277 4.08834 3.34181 4.22426 3.20838C4.36017 3.07496 4.54452 3 4.73673 3H15.1474C15.3396 3 15.5239 3.07496 15.6598 3.20838C15.7957 3.34181 15.8721 3.52277 15.8721 3.71146ZM10.0001 6.35734C9.80786 6.35734 9.62351 6.4323 9.4876 6.56572C9.35168 6.69915 9.27532 6.88011 9.27532 7.06881V17.2885C9.27532 17.4772 9.35168 17.6582 9.4876 17.7916C9.62351 17.925 9.80786 18 10.0001 18C10.1923 18 10.3766 17.925 10.5126 17.7916C10.6485 17.6582 10.7248 17.4772 10.7248 17.2885V7.06881C10.7248 6.88011 10.6485 6.69915 10.5126 6.56572C10.3766 6.4323 10.1923 6.35734 10.0001 6.35734ZM10.5146 5.83245C10.2314 5.55473 9.78871 5.53865 9.52601 5.7968L4.18702 11.0374C3.92405 11.2955 3.94043 11.7301 4.22334 12.0078C4.50653 12.2858 4.94892 12.3016 5.21189 12.0434L10.5506 6.80288C10.8133 6.54472 10.7972 6.11018 10.5143 5.83245H10.5146ZM9.48586 5.83245C9.20295 6.11018 9.18657 6.54472 9.44954 6.80288L14.7883 12.0437C15.051 12.3016 15.4936 12.2858 15.7768 12.0078C16.0597 11.7301 16.0758 11.2955 15.8128 11.0374L10.4744 5.7968C10.2114 5.53865 9.76877 5.55473 9.48586 5.83245Z" fill="white" fill-opacity="0.45"/>
</g>
</svg>
