<svg width="20" height="20" viewBox="0 0 20 20" fill="none" xmlns="http://www.w3.org/2000/svg">
<g id="&#230;&#155;&#180;&#229;&#164;&#154; (9) 1">
<path id="Vector" d="M3.77011 5.4923H17.2299C17.6559 5.4923 18 5.15809 18 4.74615C18 4.33441 17.6561 4 17.2299 4H3.77011C3.34492 4 3 4.33421 3 4.74615C3 5.15809 3.34492 5.4923 3.77011 5.4923ZM17.2297 9.22305H3.77011C3.34394 9.22305 3 9.55726 3 9.9692C3 10.3811 3.34394 10.7154 3.77011 10.7154H17.2299C17.6559 10.7154 18 10.3811 18 9.9692C17.9998 9.55726 17.6537 9.22305 17.2297 9.22305ZM17.2297 14.5077H3.77011C3.34511 14.5077 3 14.8419 3 15.2538C3 15.6658 3.34492 16 3.77011 16H17.2299C17.6559 16 18 15.6658 18 15.2538C17.9998 14.8421 17.6559 14.5077 17.2297 14.5077Z" fill="white" fill-opacity="0.45"/>
</g>
</svg>
