<svg width="36" height="36" viewBox="0 0 36 36" fill="none" xmlns="http://www.w3.org/2000/svg">
<circle cx="16" cy="16" r="16" fill="#E9983D"/>
<path d="M22.9587 14.5826C23.2413 12.837 22.0057 12.0291 21.3124 11.5832C20.6221 11.1372 19.5668 10.8165 19.5668 10.8165L20.2418 8.09807L18.6841 7.7071L18.009 10.4255L16.7643 10.1109L17.4394 7.39249L15.8633 7L15.1883 9.71844L11.8941 8.89069L11.4939 10.5034C11.4939 10.5034 13.1204 10.9097 13.2991 10.957C13.4824 11.0013 13.4579 11.0945 13.4427 11.1555C13.4274 11.2166 11.3962 19.4101 11.3657 19.5186C11.3412 19.6285 11.3229 19.6911 11.1717 19.656L9.44442 19.2223L9 21.0137L12.1888 21.8124L11.5428 24.4117L13.2426 24.8378L13.8886 22.237L14.947 22.5027L14.301 25.1036L15.9198 25.5098L16.5673 22.9105L17.7861 23.2159C18.5955 23.4191 21.6713 23.4572 22.3402 20.7556C23.0106 18.0524 20.7947 16.9086 20.7947 16.9086C20.7947 16.9086 22.6731 16.3282 22.9587 14.5826ZM19.2674 19.5949C18.9467 20.8885 17.5035 20.9877 17.1752 20.9037L14.2811 20.1798L15.1363 16.7253L18.1373 17.4767C18.7131 17.6233 19.5897 18.3014 19.2674 19.5949ZM19.802 14.3337C19.4599 15.7112 18.0854 15.6486 17.6517 15.5417L15.5365 15.0118L16.352 11.7237L18.2824 12.2063C18.6123 12.2887 20.1456 12.9577 19.802 14.3337Z" fill="white"/>
<circle cx="28" cy="28" r="8" fill="black"/>
<circle cx="28" cy="28" r="7.5" stroke="#FB7302" stroke-opacity="0.3"/>
<path d="M31 27.1668V31.1668H25V27.1668H31ZM31.4133 26.1668H24.5867C24.2626 26.1668 24 26.4294 24 26.7534V31.5801C24 31.9042 24.2626 32.1668 24.5867 32.1668H31.4133C31.7374 32.1668 32 31.9042 32 31.5801V26.7534C32 26.4294 31.7374 26.1668 31.4133 26.1668ZM30.5002 26.1667H29.5002V25.5C29.5002 24.6728 28.8271 24 28.0002 24C27.1733 24 26.5002 24.6728 26.5002 25.5V26.1667H25.5002V25.5C25.5002 24.1215 26.622 23 28.0002 23C29.3784 23 30.5002 24.1215 30.5002 25.5V26.1667Z" fill="#FB7302"/>
<path d="M28.0002 30.3333C27.7242 30.3333 27.5002 30.1094 27.5002 29.8333V28.5C27.5002 28.224 27.7242 28 28.0002 28C28.2763 28 28.5002 28.224 28.5002 28.5V29.8333C28.5002 30.1094 28.2763 30.3333 28.0002 30.3333Z" fill="#FB7302"/>
</svg>
