<?xml version="1.0" encoding="UTF-8"?>
<svg version="1.1" viewBox="0 0 2048 1100" width="1280" height="1280" xmlns="http://www.w3.org/2000/svg">
<path transform="translate(0)" d="m0 0h2048v1100h-2048z" fill="#FEFEFE"/>
<path transform="translate(886)" d="m0 0h1162v575l-5 41-6 30-7 26-10 29-12 27-10 20-15 25-11 16-13 17-11 13-9 10-11 12-9 9-8 7-10 9-14 11-15 11-15 10-15 9-22 12-24 11-26 10-30 9-27 6-34 5-27 2h-103l-1-1v-94l1-5 108-1 27-3 25-5 25-7 19-7 20-9 21-11 20-13 16-12 13-11 13-12 11-11 9-11 12-15 10-15 12-20 11-22 9-23 6-19 6-25 4-26 1-12v-43l-2-21-4-23-8-30-8-22-9-20-11-21-16-24-10-13-12-14-14-15-12-11-14-11-13-10-19-12-22-12-23-10-19-7-26-7-22-4-16-2-15-1-765-1v138l-5-2-286-165-35-20 3-3 52-30 24-14 28-16 208-120z"/>
<path transform="translate(395,138)" d="m0 0h104v100l-108 1-29 3-28 6-27 8-24 10-24 12-21 13-19 14-13 11-12 11-14 14-9 11-14 18-11 17-12 21-11 24-9 25-8 32-4 26-1 11v48l3 26 5 24 7 25 11 28 13 26 14 22 10 14 11 13 7 8 9 10 8 8 11 9 9 8 18 13 21 13 23 12 25 10 25 8 27 6 23 3 14 1 766 1v-138l14 7 27 16 23 13 24 14 28 16 24 14 28 16 24 14 28 16 24 14 28 16 24 14 28 16 1 3-25 14-24 14-208 120-28 16-24 14-15 9h-1162v-576l5-41 6-30 8-29 9-25 10-23 14-28 13-21 11-16 13-17 9-11 11-12 7-8 15-15 8-7 14-12 20-15 21-14 24-14 22-11 19-8 25-9 24-7 26-6 26-4z"/>
<path transform="translate(887)" d="m0 0h1161v526h-1l-5-41-6-31-8-29-10-28-12-27-12-23-13-21-11-16-13-17-11-13-9-10-26-26-11-9-13-11-18-13-19-12-21-12-26-13-31-12-29-9-31-7-28-4-21-2-28-1-748-1z" fill="#FEFEFE"/>
<path transform="translate(0,575)" d="m0 0h1l4 35 6 33 8 29 9 26 11 26 11 22 13 22 12 18 12 16 8 10 12 14 10 10 7 8 8 7 13 12 14 11 13 10 21 14 17 10 23 12 17 8 26 10 26 8 24 6 30 5 29 3 17 1 759 1v138h-1161z" fill="#FEFEFE"/>
</svg>
