<svg width="12" height="10" viewBox="0 0 12 10" fill="none" xmlns="http://www.w3.org/2000/svg">
<path d="M11.3552 0.0256629C11.7044 -0.0904281 12.0524 0.204433 11.9934 0.566364L10.5241 9.59024C10.5114 9.66781 10.4802 9.74119 10.433 9.80414C10.3858 9.8671 10.324 9.91776 10.2529 9.95181C10.1817 9.98587 10.1034 10.0023 10.0246 9.99974C9.94571 9.99717 9.86864 9.97566 9.79992 9.93705L5.88851 7.73962L4.11109 8.49738C4.03931 8.52798 3.96123 8.54105 3.88335 8.53549C3.80547 8.52994 3.73005 8.50592 3.66339 8.46545C3.59672 8.42497 3.54074 8.36921 3.5001 8.30281C3.45947 8.23641 3.43537 8.1613 3.4298 8.08374L3.42857 8.04813L3.43151 6.35921L0.249145 4.5715C-0.108642 4.37029 -0.0709285 3.85252 0.297144 3.69814L0.335102 3.68399L11.3552 0.0256629ZM10.8968 1.20584L1.69156 4.26176L4.16251 5.64973C4.23223 5.68894 4.29122 5.74457 4.33434 5.81175C4.37746 5.87893 4.40339 5.95561 4.40986 6.03508L4.41157 6.07556L4.40937 7.30891L5.72566 6.74796C5.78781 6.72147 5.85479 6.70807 5.9224 6.70861C5.99 6.70916 6.05676 6.72364 6.11847 6.75113L6.15912 6.77162L9.6694 8.7437L10.8968 1.20584ZM9.43724 2.61503C9.51591 2.70907 9.55621 2.82913 9.55013 2.95139C9.54405 3.07364 9.49204 3.18915 9.40442 3.27499L9.37455 3.30182L6.43584 5.7407C6.33866 5.8206 6.21429 5.86012 6.0886 5.85104C5.9629 5.84195 5.84556 5.78497 5.76098 5.69194C5.67639 5.5989 5.63107 5.47698 5.63443 5.35151C5.6378 5.22605 5.68959 5.10671 5.77905 5.01831L5.80892 4.99148L8.74762 2.55259C8.8474 2.46983 8.97609 2.42992 9.10541 2.44163C9.23473 2.45334 9.35408 2.51571 9.43724 2.61503Z" fill="white"/>
</svg>
