<?xml version="1.0" encoding="UTF-8"?>
<svg version="1.1" viewBox="0 0 2048 1100" width="1280" height="1280" xmlns="http://www.w3.org/2000/svg">
<path transform="translate(393,139)" d="m0 0h105l1 1v96l-3 1-99 1-25 2-24 4-28 7-25 9-24 11-23 13-18 12-13 10-11 9-10 9-17 17-8 10-14 18-11 17-12 21-10 21-10 26-8 30-5 30-1 11v53l3 23 5 24 7 24 11 28 8 16 8 15 16 24 9 12 11 13 11 12 9 9 11 9 12 10 18 13 20 12 23 12 24 10 26 8 23 5 21 3 9 1 23 1 753 1v-123l1-14 6 2 26 15 53 31 25 14 24 14 26 15 28 16 17 10 23 13 17 10 26 15 28 16 20 12 2 4-16 10-28 16-24 14-25 14-24 14-78 45-29 17-28 16-52 30-16 10-2-4v-133l-81-1h-672l-26-1-30-3-28-5-31-8-29-10-28-12-20-10-27-16-16-11-13-10-16-13-13-12-8-7-9-9-7-8-10-11-13-17-12-16-12-19-10-18-8-15-12-28-12-35-7-28-4-23-2-18-2-31v-46l2-29 5-31 8-30 11-32 12-28 13-25 13-21 14-20 11-14 12-14 14-15 16-16 8-7 13-11 16-12 13-9 24-15 27-14 22-10 25-9 27-8 34-7 22-3z"/>
<path transform="translate(885,1)" d="m0 0h1v138h758l35 2 24 3 29 6 26 7 29 10 27 12 20 10 25 15 16 11 17 13 13 11 24 22 16 17 11 13 10 13 12 17 13 21 12 22 11 24 11 29 8 25 6 26 3 19 3 36v50l-3 36-4 27-8 32-13 37-11 25-14 27-15 24-14 19-13 16-12 14-24 24-8 7-17 14-19 14-22 14-25 14-19 9-27 11-28 9-24 6-36 6-33 3h-106l-1-4v-93l1-1 95-1 21-1 33-5 31-8 25-9 29-14 25-15 14-10 10-8 14-12 4-2v-2l8-7 13-14 9-11 12-16 11-17 9-16 11-22 10-27 7-25 4-19 3-24v-54l-3-24-6-29-7-23-9-22-12-25-14-23-10-14-11-14-11-12-7-8-8-8-8-7-16-13-17-12-25-15-24-12-26-10-30-8-29-5-27-2h-761l-1 137-10-5-24-14-52-30-28-16-26-15-27-16-23-13-24-14-23-13-24-14-26-15-24-14-11-7 1-3 25-14 17-10 26-15 24-14 52-30 24-14 26-15 24-14 28-16 23-13 24-14 26-15z"/>
</svg>
