<svg width="12" height="12" viewBox="0 0 12 12" fill="none" xmlns="http://www.w3.org/2000/svg">
<path d="M0.43339 4.19532C0.669331 4.19532 0.861214 4.38432 0.866664 4.61952L0.86678 4.62978V6.50772C0.86678 8.31817 2.23224 9.78033 3.91552 9.8094L3.96664 9.80983L9.10116 9.80982V8.75593C9.10116 8.60828 9.22056 8.48862 9.36782 8.48862C9.41798 8.48861 9.46712 8.50279 9.5096 8.52951L11.8751 10.0179C11.9998 10.0964 12.0374 10.2614 11.9592 10.3864C11.9378 10.4205 11.9091 10.4493 11.8751 10.4707L9.5096 11.9591C9.38486 12.0375 9.22027 11.9998 9.14197 11.8748C9.11531 11.8322 9.10117 11.7829 9.10117 11.7326L9.10116 10.6787H3.96664C1.79254 10.6787 0.0354492 8.84353 0.000536267 6.57654L0 6.50773V4.62978C0 4.38984 0.194028 4.19532 0.43339 4.19532ZM3.12628 0.12524C3.15294 0.167822 3.16708 0.217077 3.16708 0.267351L3.16706 1.32121H8.00156C10.1757 1.32121 11.9327 3.15644 11.9677 5.42343L11.9682 5.49225V7.37019C11.9682 7.61013 11.7742 7.80465 11.5348 7.80465C11.2989 7.80465 11.107 7.61565 11.1015 7.38045L11.1014 7.37019V5.49225C11.1014 3.6818 9.73595 2.21964 8.05267 2.19057L8.00156 2.19014H3.16706V3.24406C3.16706 3.39169 3.04768 3.51137 2.9004 3.51137C2.85025 3.51137 2.80112 3.49719 2.75864 3.47046L0.393172 1.98208C0.268434 1.9036 0.230782 1.73861 0.309071 1.61357C0.330418 1.57949 0.359166 1.55067 0.393172 1.52928L2.75864 0.0409348C2.88338 -0.0375445 3.04799 0.000198752 3.12628 0.12524Z" fill="white"/>
</svg>
