<svg width="12" height="11" viewBox="0 0 12 11" fill="none" xmlns="http://www.w3.org/2000/svg">
<path d="M11.3125 3.09326C11.4948 3.09326 11.6697 3.1657 11.7986 3.29463C11.9276 3.42357 12 3.59844 12 3.78078V9.62471C12 9.98939 11.8551 10.3391 11.5973 10.597C11.3394 10.8549 10.9896 10.9998 10.625 10.9998L1.68719 10.9998C1.3225 10.9998 0.972754 10.8549 0.714884 10.597C0.457014 10.3391 0.312143 9.98939 0.312143 9.62471V3.78078C0.312143 3.59844 0.384579 3.42357 0.513514 3.29463C0.642449 3.1657 0.817324 3.09326 0.999666 3.09326C1.18201 3.09326 1.35688 3.1657 1.48582 3.29463C1.61475 3.42357 1.68719 3.59844 1.68719 3.78078V9.62471L10.625 9.62471V3.78078C10.625 3.59844 10.6974 3.42357 10.8263 3.29463C10.9553 3.1657 11.1301 3.09326 11.3125 3.09326Z" fill="white"/>
<path d="M8.74507 2.84608C8.86172 2.70602 8.91797 2.52537 8.90147 2.34385C8.88497 2.16232 8.79706 1.99478 8.65707 1.87805L6.5945 0.159247C6.47096 0.0563482 6.31527 -1.1317e-07 6.15449 -1.20198e-07C5.99371 -1.27226e-07 5.83802 0.0563482 5.71448 0.159247L3.65191 1.87805C3.5801 1.93503 3.52041 2.0058 3.47634 2.08619C3.43228 2.16659 3.40475 2.25498 3.39535 2.34617C3.38596 2.43736 3.39489 2.52951 3.42164 2.6172C3.44838 2.70489 3.49239 2.78634 3.55108 2.85677C3.60977 2.9272 3.68195 2.98517 3.76338 3.02729C3.84481 3.06941 3.93384 3.09482 4.02523 3.10202C4.11662 3.10923 4.20853 3.09808 4.29555 3.06924C4.38257 3.0404 4.46294 2.99444 4.53194 2.93408L5.46697 2.15512L5.46697 7.21871C5.46697 7.309 5.48475 7.3984 5.5193 7.48181C5.55386 7.56523 5.6045 7.64102 5.66834 7.70486C5.73218 7.76871 5.80797 7.81935 5.89139 7.8539C5.9748 7.88845 6.0642 7.90623 6.15449 7.90623C6.24478 7.90623 6.33418 7.88845 6.41759 7.8539C6.50101 7.81935 6.5768 7.76871 6.64064 7.70486C6.70448 7.64102 6.75513 7.56523 6.78968 7.48181C6.82423 7.3984 6.84201 7.309 6.84201 7.21871L6.84201 2.15512L7.77704 2.93408C7.9171 3.05073 8.09775 3.10699 8.27927 3.09048C8.4608 3.07398 8.62834 2.98607 8.74507 2.84608Z" fill="white"/>
</svg>
