<svg width="30" height="30" viewBox="0 0 30 30" fill="none" xmlns="http://www.w3.org/2000/svg">
<path d="M27.4424 2.22081C27.4424 2.22081 30.2176 1.13817 29.9863 3.76742C29.9092 4.85006 29.2154 8.63924 28.6758 12.7378L26.8257 24.8787C26.8257 24.8787 26.6715 26.6572 25.2839 26.9666C23.8962 27.2759 21.8149 25.884 21.4294 25.5746C21.121 25.3427 15.6477 21.8628 13.7204 20.1615C13.1808 19.6975 12.5641 18.7695 13.7975 17.6869L21.8919 9.95388C22.817 9.02592 23.7421 6.86067 19.8876 9.48992L9.09509 16.8363C9.09509 16.8363 7.86165 17.6096 5.549 16.9136L0.538165 15.367C0.538165 15.367 -1.31199 14.2071 1.84866 13.0471C9.55765 9.41251 19.0396 5.70064 27.4424 2.22081Z" fill="#8A8A8A"/>
</svg>
