<svg width="20" height="18" viewBox="0 0 20 18" fill="none" xmlns="http://www.w3.org/2000/svg">
<path id="Vector" d="M18.2949 0.275086C18.2949 0.275086 20.1451 -0.460784 19.9909 1.32631C19.9395 2.06218 19.477 4.63767 19.1172 7.42344L17.8838 15.6756C17.8838 15.6756 17.781 16.8844 16.8559 17.0947C15.9308 17.3049 14.5433 16.3589 14.2863 16.1486C14.0807 15.9909 10.4318 13.6257 9.14697 12.4693C8.78719 12.1539 8.37605 11.5232 9.19835 10.7873L14.5946 5.53123C15.2114 4.9005 15.8281 3.42878 13.2584 5.21587L6.0634 10.2092C6.0634 10.2092 5.2411 10.7348 3.69933 10.2618L0.358777 9.21053C0.358777 9.21053 -0.874661 8.42211 1.23244 7.63365C6.37177 5.16326 12.6931 2.64032 18.2949 0.275086Z" fill="white"/>
</svg>
