<svg width="17" height="17" viewBox="0 0 17 17" fill="none" xmlns="http://www.w3.org/2000/svg">
<path d="M8.5 17C6.81886 17 5.17547 16.5015 3.77766 15.5675C2.37984 14.6335 1.29037 13.306 0.647028 11.7528C0.0036829 10.1996 -0.164645 8.49057 0.163329 6.84174C0.491303 5.1929 1.30085 3.67834 2.4896 2.4896C3.67834 1.30085 5.1929 0.491303 6.84173 0.163329C8.49057 -0.164645 10.1996 0.0036829 11.7528 0.647028C13.306 1.29037 14.6335 2.37984 15.5675 3.77766C16.5015 5.17547 17 6.81886 17 8.5C16.9971 10.7534 16.1006 12.9138 14.5072 14.5072C12.9138 16.1006 10.7534 16.9971 8.5 17ZM8.5 1.2C7.0562 1.2 5.64482 1.62814 4.44434 2.43027C3.24386 3.23241 2.3082 4.37251 1.75568 5.70641C1.20316 7.04031 1.0586 8.5081 1.34027 9.92416C1.62194 11.3402 2.3172 12.641 3.33812 13.6619C4.35905 14.6828 5.65978 15.3781 7.07584 15.6597C8.4919 15.9414 9.95969 15.7968 11.2936 15.2443C12.6275 14.6918 13.7676 13.7561 14.5697 12.5557C15.3719 11.3552 15.8 9.94381 15.8 8.5C15.7976 6.56465 15.0278 4.70925 13.6593 3.34075C12.2908 1.97225 10.4354 1.20239 8.5 1.2Z" fill="white"/>
<path d="M11.22 7.68765H5.78003C5.6209 7.68765 5.46828 7.62444 5.35576 7.51191C5.24324 7.39939 5.18003 7.24678 5.18003 7.08765C5.18003 6.92852 5.24324 6.77591 5.35576 6.66339C5.46828 6.55087 5.6209 6.48765 5.78003 6.48765H9.97202L9.55303 5.96365C9.46432 5.83881 9.4267 5.68477 9.4479 5.5331C9.46909 5.38142 9.54747 5.24359 9.667 5.14784C9.78653 5.05209 9.93815 5.00567 10.0908 5.01809C10.2434 5.03051 10.3856 5.10084 10.488 5.21465L11.688 6.71465C11.7584 6.80295 11.8024 6.90931 11.8151 7.02152C11.8277 7.13373 11.8084 7.24722 11.7594 7.34896C11.7105 7.45069 11.6338 7.53654 11.5382 7.59663C11.4426 7.65672 11.3319 7.68862 11.219 7.68865L11.22 7.68765ZM6.97903 12.0136C6.8889 12.0136 6.79993 11.9933 6.71874 11.9542C6.63754 11.915 6.56621 11.8581 6.51003 11.7876L5.31003 10.2877C5.2397 10.1994 5.19567 10.0931 5.183 9.98103C5.17032 9.86891 5.18952 9.7555 5.23839 9.65379C5.28726 9.55209 5.36381 9.46623 5.45926 9.40607C5.55471 9.3459 5.6652 9.31387 5.77803 9.31365H11.218C11.3772 9.31365 11.5298 9.37687 11.6423 9.48939C11.7548 9.60191 11.818 9.75452 11.818 9.91365C11.818 10.0728 11.7548 10.2254 11.6423 10.3379C11.5298 10.4504 11.3772 10.5137 11.218 10.5137H7.02803L7.44703 11.0377C7.51766 11.1259 7.56194 11.2322 7.57477 11.3445C7.5876 11.4568 7.56847 11.5704 7.51957 11.6723C7.47066 11.7742 7.39398 11.8602 7.29835 11.9204C7.20272 11.9806 7.09203 12.0126 6.97903 12.0127V12.0136Z" fill="white"/>
</svg>
