<svg width="21" height="21" viewBox="0 0 21 21" fill="none" xmlns="http://www.w3.org/2000/svg">
<path d="M11.2852 2.15886L15.4746 6.29253C15.831 6.6435 16.006 6.99858 15.9999 7.35775C15.9937 7.71489 15.8413 8.04326 15.5405 8.33883C15.2274 8.64876 14.8897 8.80679 14.5271 8.81296C14.1647 8.8191 13.8063 8.64466 13.4479 8.29368L9.16372 4.06559C8.67763 3.58532 8.20803 3.24461 7.75491 3.04552C7.30381 2.84644 6.82803 2.81565 6.32959 2.95111C5.83114 3.08657 5.29562 3.43755 4.72304 4.00404C3.9321 4.78397 3.5552 5.5167 3.59431 6.20221C3.63345 6.88775 4.0248 7.59584 4.77039 8.33266L9.08959 12.5956C9.45004 12.9507 9.62717 13.3058 9.62099 13.6588C9.61481 14.0118 9.46034 14.3402 9.15548 14.6399C8.85065 14.9396 8.51698 15.0976 8.15035 15.1099C7.78578 15.1222 7.4233 14.9498 7.06285 14.5948L2.87549 10.4611C2.19374 9.78787 1.70147 9.1516 1.3987 8.55227C1.09592 7.95298 0.982639 7.2736 1.06091 6.51624C1.13094 5.86767 1.34103 5.2396 1.68705 4.63004C2.03514 4.02044 2.53153 3.39855 3.17621 2.76023C3.94446 2.00082 4.67772 1.41997 5.37802 1.01564C6.07832 0.611304 6.75596 0.385533 7.40888 0.338326C8.0618 0.291119 8.70647 0.420425 9.34497 0.72624C9.98141 1.03206 10.6282 1.50823 11.2873 2.15886H11.2852Z" fill="#AAAAAA"/>
<path d="M4.71479 18.8411L0.52538 14.7075C0.169053 14.3565 -0.00602108 14.0014 0.000157988 13.6422C0.00633705 13.2831 0.158754 12.9567 0.45947 12.6612C0.772542 12.3512 1.11033 12.1932 1.47284 12.187C1.83534 12.1809 2.19373 12.3533 2.55211 12.7063L6.83626 16.9344C7.32441 17.4147 7.79198 17.7554 8.2451 17.9545C8.69823 18.1536 9.17195 18.1843 9.67039 18.0489C10.1688 17.9134 10.7044 17.5624 11.277 16.996C12.0679 16.216 12.4448 15.4833 12.4057 14.7978C12.3665 14.1122 11.9752 13.4021 11.2296 12.6673L8.92892 10.4158C8.56847 10.0607 8.39134 9.70561 8.39752 9.3526C8.4037 8.99956 8.55817 8.67119 8.863 8.37153C9.16783 8.07186 9.5015 7.91383 9.86813 7.90149C10.2327 7.88919 10.5952 8.06159 10.9557 8.41667L13.1245 10.5389C13.8063 11.2121 14.2985 11.8484 14.6013 12.4477C14.9041 13.047 15.0174 13.7264 14.9391 14.4838C14.8691 15.1323 14.659 15.7604 14.313 16.37C13.9649 16.9795 13.4685 17.6014 12.8238 18.2397C12.0555 18.9992 11.3223 19.58 10.622 19.9844C9.92169 20.3887 9.24611 20.6145 8.59319 20.6617C7.94028 20.7089 7.29557 20.5796 6.65707 20.2737C6.02063 19.9679 5.37183 19.4917 4.71479 18.8411Z" fill="#AAAAAA"/>
<path d="M7.32647 8.17475C8.17623 8.17475 8.86507 7.48835 8.86507 6.64156C8.86507 5.7948 8.17623 5.1084 7.32647 5.1084C6.47675 5.1084 5.78788 5.7948 5.78788 6.64156C5.78788 7.48835 6.47675 8.17475 7.32647 8.17475Z" fill="#AAAAAA"/>
</svg>
