<svg width="16" height="15" viewBox="0 0 16 15" fill="none" xmlns="http://www.w3.org/2000/svg">
<path id="icon-Address Book" d="M0 15C0 13.4845 0.612985 12.031 1.70411 10.9594C2.79523 9.88775 4.2751 9.28571 5.81818 9.28571C7.36126 9.28571 8.84114 9.88775 9.93226 10.9594C11.0234 12.031 11.6364 13.4845 11.6364 15H0ZM5.81818 8.57143C3.40727 8.57143 1.45455 6.65357 1.45455 4.28571C1.45455 1.91786 3.40727 0 5.81818 0C8.22909 0 10.1818 1.91786 10.1818 4.28571C10.1818 6.65357 8.22909 8.57143 5.81818 8.57143ZM13.0909 11.4286H16V12.8571H13.0909V11.4286ZM10.9091 7.85714H16V9.28571H10.9091V7.85714ZM12.3636 4.28571H16V5.71429H12.3636V4.28571Z" fill="#F4B62C"/>
</svg>
