<svg width="17" height="18" viewBox="0 0 17 18" fill="none" xmlns="http://www.w3.org/2000/svg">
<path id="UTXO" d="M2.75382 16.9054C2.3058 16.9054 1.92276 16.7505 1.60469 16.4408C1.28663 16.1303 1.12759 15.7564 1.12759 15.3191V4.29975C1.12759 3.8625 1.28625 3.489 1.60356 3.17925C1.92238 2.8695 2.30618 2.71463 2.75495 2.71463H4.10579L4.11939 2.8125C4.18814 3.2775 4.40346 3.66375 4.76535 3.97125C5.12799 4.27875 5.54805 4.43175 6.02553 4.43025H10.0339C10.5174 4.43025 10.9405 4.27463 11.3031 3.96338C11.6627 3.65513 11.8747 3.27113 11.9389 2.81138L11.9525 2.7135H13.3044C13.754 2.7135 14.1378 2.86838 14.4558 3.17813C14.7731 3.48863 14.9318 3.8625 14.9318 4.29975V8.6625C14.9318 8.81325 14.987 8.94225 15.0973 9.0495C15.2076 9.15675 15.3409 9.21038 15.4973 9.21038C15.6514 9.21038 15.7836 9.15713 15.8939 9.05063C16.0035 8.94338 16.0586 8.814 16.0594 8.6625V4.29863C16.0549 3.55538 15.784 2.92163 15.2469 2.39738C14.7089 1.87463 14.0615 1.61438 13.3044 1.61663H11.9423L11.9241 1.52438C11.8357 1.08188 11.6136 0.717003 11.2578 0.429753C10.9027 0.142503 10.4947 -0.00074707 10.0339 2.92969e-06H6.02893C5.56052 2.92969e-06 5.14839 0.145503 4.79255 0.436503C4.43973 0.724503 4.22063 1.08713 4.13526 1.52438L4.11826 1.61663H2.75382C1.99756 1.61438 1.35047 1.875 0.812546 2.3985C0.275382 2.922 0.00453303 3.555 0 4.2975V15.3169C0 16.0564 0.269338 16.6883 0.808013 17.2125C1.34669 17.7375 1.99529 18 2.75382 18H7.61323C7.7681 18 7.90032 17.9468 8.00987 17.8403C8.11941 17.733 8.17457 17.604 8.17532 17.4533C8.17457 17.301 8.11941 17.1713 8.00987 17.064C7.90032 16.9575 7.7681 16.9046 7.61323 16.9054H2.75382ZM6.02893 1.09575H10.035C10.2564 1.09575 10.4452 1.17188 10.6016 1.32413C10.758 1.47638 10.8362 1.65975 10.8362 1.87425V2.55488C10.8362 2.77013 10.7576 2.95388 10.6005 3.10613C10.4441 3.25763 10.2556 3.33338 10.035 3.33338H6.02893C5.80983 3.33338 5.62171 3.25763 5.46457 3.10613C5.30893 2.95463 5.22998 2.77088 5.22772 2.55488V1.87425C5.22772 1.659 5.30629 1.47525 5.46344 1.323C5.61983 1.1715 5.80832 1.09575 6.02893 1.09575ZM11.9309 8.72775C12.0412 8.62125 12.0968 8.49188 12.0975 8.33963C12.0968 8.18738 12.0412 8.05763 11.9309 7.95038C11.8214 7.84313 11.6892 7.78988 11.5343 7.79063H4.66902C4.51339 7.79063 4.3808 7.84388 4.27125 7.95038C4.16094 8.05763 4.10542 8.18738 4.10466 8.33963C4.10466 8.49038 4.15981 8.61938 4.27012 8.72663C4.38042 8.83388 4.51339 8.8875 4.66902 8.8875H11.5332C11.688 8.8875 11.8203 8.83425 11.9298 8.72775H11.9309ZM17 14.2234C17 13.9586 16.932 13.7111 16.796 13.4809L15.4429 11.1971C15.3054 10.9669 15.1188 10.7858 14.8831 10.6538C14.6474 10.521 14.3939 10.4546 14.1227 10.4546H11.4119C11.1407 10.4546 10.8868 10.521 10.6504 10.6538C10.4139 10.7873 10.228 10.968 10.0928 11.196L8.73742 13.4809C8.60143 13.7104 8.53343 13.9579 8.53343 14.2234C8.53343 14.4881 8.60143 14.7353 8.73742 14.9648L10.0917 17.2485C10.2269 17.478 10.4128 17.6591 10.6492 17.7919C10.8857 17.9246 11.1395 17.991 11.4108 17.991H14.1193C14.3912 17.991 14.6455 17.9246 14.8819 17.7919C15.1184 17.6584 15.3046 17.4776 15.4406 17.2496L16.7949 14.9648C16.9301 14.7353 16.9977 14.4878 16.9977 14.2223L17 14.2234ZM15.8214 14.4191L14.4672 16.7029C14.3894 16.8334 14.2741 16.8983 14.1215 16.8975H11.413C11.2619 16.8968 11.1475 16.8323 11.0697 16.704L9.71428 14.4169C9.63873 14.2879 9.63873 14.1589 9.71428 14.0299L11.0697 11.7428C11.146 11.6145 11.2604 11.5504 11.413 11.5504H14.1215C14.2734 11.5504 14.3882 11.6141 14.466 11.7416L15.8214 14.0299C15.8917 14.1499 15.897 14.2695 15.8373 14.3888V14.3921L15.8214 14.4191ZM4.78688 12.321V12.3188H6.5423C6.69642 12.3188 6.82863 12.3724 6.93894 12.4796C7.04849 12.5869 7.10326 12.7163 7.10326 12.8678C7.10326 13.02 7.04811 13.1494 6.9378 13.2559C6.82826 13.3631 6.69604 13.4164 6.54116 13.4156H4.66902C4.51339 13.4156 4.38042 13.362 4.27012 13.2548C4.15981 13.1475 4.10466 13.0189 4.10466 12.8689C4.10542 12.7166 4.16094 12.5869 4.27125 12.4796C4.3808 12.3724 4.51301 12.3195 4.66789 12.321H4.78575H4.78688ZM12.765 12.6686H12.8466C13.2516 12.6851 13.6002 12.8359 13.8926 13.1209C14.2054 13.4246 14.3629 13.7921 14.3652 14.2234C14.3622 14.6546 14.2046 15.0221 13.8926 15.3259C13.5806 15.6289 13.2051 15.7796 12.7661 15.7781C12.3257 15.7781 11.9494 15.6263 11.6374 15.3225C11.3246 15.0188 11.1683 14.6528 11.1683 14.2245C11.1713 13.7933 11.3288 13.4258 11.6408 13.122C11.9521 12.8183 12.3272 12.6671 12.7661 12.6686H12.765ZM13.1798 14.6273C13.0665 14.7383 12.9286 14.7941 12.7661 14.7949C12.6052 14.7949 12.4677 14.7394 12.3536 14.6284C12.2403 14.5174 12.1829 14.3831 12.1814 14.2256C12.1814 14.0666 12.2384 13.9313 12.3525 13.8195C12.4673 13.707 12.6056 13.6508 12.7673 13.6508C12.9282 13.6508 13.0661 13.707 13.1809 13.8195C13.2942 13.9313 13.3509 14.0663 13.3509 14.2245C13.3509 14.382 13.2942 14.5163 13.1809 14.6273H13.1798Z" fill="white"/>
</svg>
