<svg width="42" height="18" viewBox="0 0 42 18" fill="none" xmlns="http://www.w3.org/2000/svg">
<g clip-path="url(#clip0_16051_7938)">
<path d="M0 8C0 3.58172 3.58172 0 8 0H33C37.9706 0 42 4.02944 42 9C42 13.9706 37.9706 18 33 18H0V8Z" fill="url(#paint0_linear_16051_7938)"/>
<circle cx="4.5" cy="16.5" r="7.5" fill="url(#paint1_linear_16051_7938)"/>
<circle cx="4.5" cy="4.5" r="4.5" transform="matrix(-1 0 0 1 41 -1)" fill="url(#paint2_linear_16051_7938)"/>
<path d="M10.7488 4.27273H12.0698V10.0128C12.0698 10.6236 11.9263 11.1648 11.6394 11.6364C11.3525 12.1051 10.949 12.4744 10.4292 12.7443C9.90927 13.0114 9.29989 13.1449 8.60103 13.1449C7.90501 13.1449 7.29705 13.0114 6.77717 12.7443C6.25728 12.4744 5.85387 12.1051 5.56694 11.6364C5.28001 11.1648 5.13654 10.6236 5.13654 10.0128V4.27273H6.4533V9.90625C6.4533 10.3011 6.53995 10.652 6.71325 10.9588C6.88938 11.2656 7.13796 11.5071 7.45898 11.6832C7.78001 11.8565 8.16069 11.9432 8.60103 11.9432C9.04421 11.9432 9.42631 11.8565 9.74734 11.6832C10.0712 11.5071 10.3184 11.2656 10.4888 10.9588C10.6621 10.652 10.7488 10.3011 10.7488 9.90625V4.27273ZM13.5538 5.40625V4.27273H20.3081V5.40625H17.585V13H16.2725V5.40625H13.5538ZM22.7168 4.27273L24.8049 7.68608H24.873L26.9611 4.27273H28.4867L25.7679 8.63636L28.5037 13H26.9696L24.873 9.63352H24.8049L22.7083 13H21.1742L23.9569 8.63636L21.1912 4.27273H22.7168ZM37.1394 8.63636C37.1394 9.56818 36.9689 10.3693 36.628 11.0398C36.2871 11.7074 35.8198 12.2216 35.226 12.5824C34.6351 12.9403 33.9632 13.1193 33.2104 13.1193C32.4547 13.1193 31.78 12.9403 31.1863 12.5824C30.5953 12.2216 30.1294 11.706 29.7885 11.0355C29.4476 10.3651 29.2772 9.56534 29.2772 8.63636C29.2772 7.70455 29.4476 6.90483 29.7885 6.23722C30.1294 5.56676 30.5953 5.05256 31.1863 4.6946C31.78 4.33381 32.4547 4.15341 33.2104 4.15341C33.9632 4.15341 34.6351 4.33381 35.226 4.6946C35.8198 5.05256 36.2871 5.56676 36.628 6.23722C36.9689 6.90483 37.1394 7.70455 37.1394 8.63636ZM35.8354 8.63636C35.8354 7.92614 35.7203 7.32812 35.4902 6.84233C35.263 6.35369 34.9505 5.98438 34.5527 5.73438C34.1578 5.48153 33.7104 5.35511 33.2104 5.35511C32.7076 5.35511 32.2587 5.48153 31.8638 5.73438C31.4689 5.98438 31.1564 6.35369 30.9263 6.84233C30.699 7.32812 30.5854 7.92614 30.5854 8.63636C30.5854 9.34659 30.699 9.94602 30.9263 10.4347C31.1564 10.9205 31.4689 11.2898 31.8638 11.5426C32.2587 11.7926 32.7076 11.9176 33.2104 11.9176C33.7104 11.9176 34.1578 11.7926 34.5527 11.5426C34.9505 11.2898 35.263 10.9205 35.4902 10.4347C35.7203 9.94602 35.8354 9.34659 35.8354 8.63636Z" fill="white"/>
</g>
<defs>
<linearGradient id="paint0_linear_16051_7938" x1="-8.74886e-08" y1="3.09375" x2="28.2607" y2="13.0127" gradientUnits="userSpaceOnUse">
<stop stop-color="#F7D165"/>
<stop offset="0.832199" stop-color="#E77635"/>
</linearGradient>
<linearGradient id="paint1_linear_16051_7938" x1="8.5" y1="14" x2="0.157895" y2="9.78947" gradientUnits="userSpaceOnUse">
<stop stop-color="#E98B3E"/>
<stop offset="1" stop-color="#F2C15B"/>
</linearGradient>
<linearGradient id="paint2_linear_16051_7938" x1="7.5" y1="8" x2="1" y2="4" gradientUnits="userSpaceOnUse">
<stop stop-color="#E87734"/>
<stop offset="0.859637" stop-color="#EEAC4E"/>
</linearGradient>
<clipPath id="clip0_16051_7938">
<path d="M0 8C0 3.58172 3.58172 0 8 0H33C37.9706 0 42 4.02944 42 9C42 13.9706 37.9706 18 33 18H0V8Z" fill="white"/>
</clipPath>
</defs>
</svg>
