<svg width="18" height="18" viewBox="0 0 18 18" fill="none" xmlns="http://www.w3.org/2000/svg">
<path d="M2.75382 16.9054C2.3058 16.9054 1.92276 16.7505 1.60469 16.4408C1.28663 16.1303 1.12759 15.7564 1.12759 15.3191V4.29975C1.12759 3.8625 1.28625 3.489 1.60356 3.17925C1.92238 2.8695 2.30618 2.71463 2.75495 2.71463H4.10579L4.11939 2.8125C4.18814 3.2775 4.40346 3.66375 4.76535 3.97125C5.12799 4.27875 5.54805 4.43175 6.02553 4.43025H10.0339C10.5174 4.43025 10.9405 4.27463 11.3031 3.96338C11.6627 3.65513 11.8747 3.27113 11.9389 2.81138L11.9525 2.7135H13.3044C13.754 2.7135 14.1378 2.86838 14.4558 3.17813C14.7731 3.48863 14.9318 3.8625 14.9318 4.29975V8.6625C14.9318 8.81325 14.987 8.94225 15.0973 9.0495C15.2076 9.15675 15.3409 9.21038 15.4973 9.21038C15.6514 9.21038 15.7836 9.15713 15.8939 9.05063C16.0035 8.94338 16.0586 8.814 16.0594 8.6625V4.29863C16.0549 3.55538 15.784 2.92163 15.2469 2.39738C14.7089 1.87463 14.0615 1.61438 13.3044 1.61663H11.9423L11.9241 1.52438C11.8357 1.08188 11.6136 0.717003 11.2578 0.429753C10.9027 0.142503 10.4947 -0.00074707 10.0339 2.92969e-06H6.02893C5.56052 2.92969e-06 5.14839 0.145503 4.79255 0.436503C4.43973 0.724503 4.22063 1.08713 4.13526 1.52438L4.11826 1.61663H2.75382C1.99756 1.61438 1.35047 1.875 0.812546 2.3985C0.275382 2.922 0.00453303 3.555 0 4.2975V15.3169C0 16.0564 0.269338 16.6883 0.808013 17.2125C1.34669 17.7375 1.99529 18 2.75382 18H7.61323C7.7681 18 7.90032 17.9468 8.00987 17.8403C8.11941 17.733 8.17457 17.604 8.17532 17.4533C8.17457 17.301 8.11941 17.1713 8.00987 17.064C7.90032 16.9575 7.7681 16.9046 7.61323 16.9054H2.75382ZM6.02893 1.09575H10.035C10.2564 1.09575 10.4452 1.17188 10.6016 1.32413C10.758 1.47638 10.8362 1.65975 10.8362 1.87425V2.55488C10.8362 2.77013 10.7576 2.95388 10.6005 3.10613C10.4441 3.25763 10.2556 3.33338 10.035 3.33338H6.02893C5.80983 3.33338 5.62171 3.25763 5.46457 3.10613C5.30894 2.95463 5.22998 2.77088 5.22772 2.55488V1.87425C5.22772 1.659 5.30629 1.47525 5.46344 1.323C5.61983 1.1715 5.80832 1.09575 6.02893 1.09575ZM11.9309 8.72775C12.0412 8.62125 12.0968 8.49188 12.0975 8.33963C12.0968 8.18738 12.0412 8.05763 11.9309 7.95038C11.8214 7.84313 11.6892 7.78988 11.5343 7.79063H4.66902C4.51339 7.79063 4.3808 7.84388 4.27125 7.95038C4.16094 8.05763 4.10542 8.18738 4.10466 8.33963C4.10466 8.49038 4.15981 8.61938 4.27012 8.72663C4.38042 8.83388 4.51339 8.8875 4.66902 8.8875H11.5332C11.688 8.8875 11.8203 8.83425 11.9298 8.72775H11.9309ZM4.78688 12.321V12.3188H6.5423C6.69642 12.3188 6.82863 12.3724 6.93894 12.4796C7.04849 12.5869 7.10326 12.7163 7.10326 12.8678C7.10326 13.02 7.04811 13.1494 6.9378 13.2559C6.82826 13.3631 6.69604 13.4164 6.54116 13.4156H4.66902C4.51339 13.4156 4.38042 13.362 4.27012 13.2548C4.15981 13.1475 4.10466 13.0189 4.10466 12.8689C4.10542 12.7166 4.16094 12.5869 4.27125 12.4796C4.3808 12.3724 4.51301 12.3195 4.66789 12.321H4.78575H4.78688Z" fill="white"/>
<path d="M17.4666 14.2233C17.4666 13.9586 17.3986 13.7111 17.2626 13.4808L15.9095 11.1971C15.772 10.9668 15.5854 10.7857 15.3496 10.6537C15.1139 10.521 14.8605 10.4546 14.5892 10.4546H11.8785C11.6072 10.4546 11.3534 10.521 11.1169 10.6537C10.8805 10.7872 10.6946 10.968 10.5594 11.196L9.20399 13.4808C9.068 13.7103 9 13.9578 9 14.2233C9 14.4881 9.068 14.7352 9.20399 14.9647L10.5582 17.2485C10.6935 17.478 10.8793 17.6591 11.1158 17.7918C11.3523 17.9246 11.6061 17.991 11.8773 17.991H14.5858C14.8578 17.991 15.112 17.9246 15.3485 17.7918C15.585 17.6583 15.7712 17.4776 15.9072 17.2496L17.2614 14.9647C17.3967 14.7352 17.4643 14.4877 17.4643 14.2222L17.4666 14.2233ZM16.288 14.4191L14.9337 16.7028C14.8559 16.8333 14.7407 16.8982 14.5881 16.8975H11.8796C11.7285 16.8967 11.614 16.8322 11.5362 16.704L10.1809 14.4168C10.1053 14.2878 10.1053 14.1588 10.1809 14.0298L11.5362 11.7427C11.6125 11.6145 11.727 11.5503 11.8796 11.5503H14.5881C14.74 11.5503 14.8548 11.6141 14.9326 11.7416L16.288 14.0298C16.3582 14.1498 16.3635 14.2695 16.3038 14.3887V14.3921L16.288 14.4191ZM13.2316 12.6686H13.3132C13.7181 12.6851 14.0668 12.8358 14.3592 13.1208C14.672 13.4246 14.8295 13.7921 14.8317 14.2233C14.8287 14.6546 14.6712 15.0221 14.3592 15.3258C14.0472 15.6288 13.6717 15.7796 13.2327 15.7781C12.7923 15.7781 12.416 15.6262 12.104 15.3225C11.7912 15.0187 11.6348 14.6527 11.6348 14.2245C11.6378 13.7932 11.7954 13.4257 12.1074 13.122C12.4187 12.8182 12.7938 12.6671 13.2327 12.6686H13.2316ZM13.6464 14.6272C13.533 14.7382 13.3952 14.7941 13.2327 14.7948C13.0718 14.7948 12.9343 14.7393 12.8202 14.6283C12.7069 14.5173 12.6495 14.3831 12.648 14.2256C12.648 14.0666 12.705 13.9312 12.8191 13.8195C12.9339 13.707 13.0722 13.6507 13.2339 13.6507C13.3948 13.6507 13.5327 13.707 13.6475 13.8195C13.7608 13.9312 13.8175 14.0662 13.8175 14.2245C13.8175 14.382 13.7608 14.5162 13.6475 14.6272H13.6464Z" fill="#F4B62C"/>
</svg>
