<?xml version="1.0" standalone="no"?>
<!DOCTYPE svg PUBLIC "-//W3C//DTD SVG 20010904//EN"
 "http://www.w3.org/TR/2001/REC-SVG-20010904/DTD/svg10.dtd">
<svg version="1.0" xmlns="http://www.w3.org/2000/svg"
 width="512.000000pt" height="512.000000pt" viewBox="0 0 512.000000 512.000000"
 preserveAspectRatio="xMidYMid meet">

<g transform="translate(0.000000,512.000000) scale(0.100000,-0.100000)"
fill="#000000" stroke="none">
<path d="M3645 5108 c-11 -6 -83 -75 -161 -152 -147 -148 -160 -169 -143 -230
6 -21 115 -137 346 -371 186 -187 471 -474 633 -638 162 -164 304 -305 315
-313 11 -8 39 -14 63 -14 43 0 46 2 197 156 159 160 178 189 158 240 -9 24
-1233 1263 -1290 1307 -39 29 -83 35 -118 15z"/>
<path d="M3135 4375 c-93 -24 -244 -59 -335 -80 -845 -189 -1276 -427 -1467
-810 -67 -133 -93 -254 -93 -424 0 -127 9 -201 41 -333 l21 -88 287 0 286 1
35 60 c19 33 68 93 110 132 270 258 683 259 948 4 70 -67 139 -157 148 -191 3
-14 3 -38 -1 -53 -4 -19 -161 -183 -470 -493 -520 -522 -515 -515 -515 -645 1
-115 46 -191 145 -243 43 -23 62 -27 135 -27 69 0 93 4 128 23 38 20 384 364
923 917 l137 140 361 558 c198 307 361 561 360 565 0 4 -228 237 -507 518
l-507 511 -170 -42z"/>
<path d="M459 2421 l-29 -29 0 -1156 c0 -809 3 -1162 11 -1179 6 -13 23 -31
39 -40 26 -16 141 -17 1440 -17 1242 0 1415 2 1440 15 63 32 60 -9 60 927 l0
853 -356 -362 c-248 -253 -372 -372 -412 -396 -91 -55 -154 -72 -262 -71 -144
2 -243 44 -342 147 -151 157 -171 414 -46 601 17 26 181 200 365 387 183 186
333 341 333 344 0 3 -498 5 -1106 5 l-1106 0 -29 -29z"/>
</g>
</svg>
