<svg width="25" height="22" viewBox="0 0 25 22" fill="none" xmlns="http://www.w3.org/2000/svg">
<path d="M21.5 0.5C22.3297 0.5 23 1.17172 23 2C23 2.82828 22.3297 3.5 21.5 3.5H4.25C3.83562 3.5 3.5 3.8375 3.5 4.25C3.5 4.6625 3.83562 5 4.25 5H21.5C23.1547 5 24.5 6.34531 24.5 8V18.5C24.5 20.1547 23.1547 21.5 21.5 21.5H3.5C1.84297 21.5 0.5 20.1547 0.5 18.5V3.5C0.5 1.84297 1.84297 0.5 3.5 0.5H21.5ZM20 14.75C20.8297 14.75 21.5 14.0797 21.5 13.25C21.5 12.4203 20.8297 11.75 20 11.75C19.1703 11.75 18.5 12.4203 18.5 13.25C18.5 14.0797 19.1703 14.75 20 14.75Z" fill="#AAAAAA"/>
</svg>
