<svg width="57" height="57" viewBox="0 0 57 57" fill="none" xmlns="http://www.w3.org/2000/svg">
    <circle cx="28.5" cy="28.5" r="28.5" fill="white" fill-opacity="0.03"/>
    <circle cx="28.5" cy="29.1627" r="21.2093" fill="white" fill-opacity="0.04"/>
    <path d="M29.8085 19.6431L29.8263 19.6737L38.8414 35.5028C39.0143 35.8063 39.1046 36.1447 39.1046 36.4884C39.1046 37.637 38.1164 38.5703 36.8898 38.5888L36.8526 38.5891H18.8223C18.4539 38.5891 18.0911 38.5048 17.7657 38.3436C16.6783 37.8047 16.2583 36.5528 16.8162 35.5337L16.8335 35.5028L25.8486 19.6737C26.0594 19.3035 26.384 19.0007 26.7808 18.8041C27.8683 18.2652 29.2155 18.6414 29.8085 19.6431H29.8085ZM27.8223 33.5343C27.3209 33.5343 26.9225 33.9 26.9225 34.3768C26.9225 34.8535 27.3209 35.2192 27.8223 35.2192C28.3374 35.2192 28.7289 34.8535 28.7289 34.3768C28.7289 33.9 28.3374 33.5343 27.8223 33.5343H27.8223ZM27.8374 25.2847C27.427 25.2847 27.0935 25.5919 27.0868 25.9733L27.0867 25.9849V31.5868C27.0867 31.9735 27.4228 32.287 27.8374 32.287C28.2479 32.287 28.5814 31.9797 28.588 31.5984L28.5881 31.5868V25.9849C28.5881 25.5982 28.252 25.2847 27.8374 25.2847Z" fill="#FFBA33"/>
</svg>
