<svg width="20" height="21" viewBox="0 0 20 21" fill="none" xmlns="http://www.w3.org/2000/svg">
<path id="Vector" d="M4.90118 7.77206H1.8C1.58142 8.53723 1.47094 9.32922 1.47176 10.125C1.47176 10.9415 1.58588 11.7309 1.80118 12.4779H4.90235C4.77294 11.725 4.70706 10.9403 4.70706 10.125C4.70706 9.30971 4.77294 8.525 4.90235 7.77206H4.90118ZM6.09765 7.77206C5.95149 8.54778 5.8794 9.33564 5.88235 10.125C5.88235 10.9462 5.95294 11.7309 6.09765 12.4779H9.41176V7.77206H6.09765ZM7.82118 18.3732C6.56639 17.0388 5.65473 15.4194 5.16471 13.6544H2.23294C2.75737 14.8053 3.53062 15.8256 4.49696 16.6416C5.46331 17.4576 6.59866 18.049 7.82118 18.3732ZM9.41176 18.2909V13.6544H6.39177C6.94471 15.4262 7.95059 16.9685 9.41176 18.2921V18.2909ZM7.82118 1.87794C6.59877 2.20204 5.46349 2.79329 4.49716 3.60908C3.53082 4.42486 2.75751 5.44487 2.23294 6.59559H5.16471C5.65439 4.83074 6.56564 3.21133 7.82 1.87676L7.82118 1.87794ZM9.41176 1.96029C7.95059 3.28029 6.94588 4.82265 6.39177 6.59559H9.41176V1.95794V1.96029ZM15.0988 7.77206C15.2282 8.525 15.2941 9.30971 15.2941 10.125C15.2941 10.9403 15.2282 11.725 15.0988 12.4779H18.2012C18.4153 11.7309 18.5294 10.9415 18.5294 10.125C18.5294 9.30853 18.4153 8.51912 18.2 7.77206H15.0988ZM13.9024 7.77206H10.5882V12.4779H13.9024C14.0459 11.7309 14.1176 10.9462 14.1176 10.125C14.1176 9.30382 14.0471 8.51912 13.9024 7.77206ZM12.1788 18.3732C13.4013 18.049 14.5367 17.4576 15.503 16.6416C16.4694 15.8256 17.2426 14.8053 17.7671 13.6544H14.8353C14.3456 15.4193 13.4344 17.0387 12.18 18.3732H12.1788ZM10.5882 18.2909C12.0494 16.9685 13.0541 15.4262 13.6082 13.6544H10.5882V18.2921V18.2909ZM12.1788 1.87794C13.4334 3.21205 14.3451 4.83104 14.8353 6.59559H17.7682C17.2438 5.44465 16.4706 4.42441 15.5042 3.60841C14.5379 2.79242 13.4025 2.20099 12.18 1.87676L12.1788 1.87794ZM10.5882 1.96029V6.59559H13.6082C13.0553 4.82382 12.0494 3.28147 10.5882 1.95794V1.96029ZM10 20.125C7.34784 20.125 4.8043 19.0714 2.92893 17.1961C1.05357 15.3207 0 12.7772 0 10.125C0 7.47284 1.05357 4.9293 2.92893 3.05393C4.8043 1.17857 7.34784 0.125 10 0.125C12.6522 0.125 15.1957 1.17857 17.0711 3.05393C18.9464 4.9293 20 7.47284 20 10.125C20 12.7772 18.9464 15.3207 17.0711 17.1961C15.1957 19.0714 12.6522 20.125 10 20.125Z" fill="white"/>
</svg>
