<svg width="480" height="112" viewBox="0 0 480 112" fill="none" xmlns="http://www.w3.org/2000/svg">
<g clip-path="url(#clip0_1_2)">
<path d="M235.4 18.5L228.7 57.1H228.2L219.4 18.5H209L200.5 56.9H199.7L193.1 18.5H178.1L192.2 74.8H204.7L213.5 38.2H214.1L222.4 74.8H235.4L249.5 18.5H235.4Z" fill="white"/>
<path d="M268.9 18.5L247.5 74.8H261.6L264.9 64.6H284.7L288 74.8H302.6L281.2 18.5H268.9ZM274.7 32.6H275.1L281.6 53.3H268L274.7 32.6Z" fill="white"/>
<path d="M322.2 18.5H308.2V74.8H342V63H322.2V18.5Z" fill="white"/>
<path d="M365.4 18.5H351.3V74.8H385.2V63H365.4V18.5Z" fill="white"/>
<path d="M394.5 74.8H429.1V63.6H408V51.9H427.5V40.8H408V29.8H429.1V18.5H394.5V74.8Z" fill="white"/>
<path d="M437.5 18.5V30.4H451.5V74.8H465.6V30.4H479.6V18.5H437.5Z" fill="white"/>
<path d="M118.1 0C109.4 0 101.3 2.2 94.3 6.3C91.7 7.8 91 11.2 92.7 13.6C96.1 18.4 98.9 23.8 100.7 29.5C101.7 32.7 105.5 33.7 108.4 31.9C111.9 29.6 116.4 28.7 121.1 29.6C127.6 30.9 133 36 134.5 42.5C137.1 53.9 128.5 64 117.6 64C106.7 64 111 63 108.4 61.3C105.8 59.6 101.8 60.6 100.8 63.8C96.3 77.8 86.5 89.5 73.8 96.5C72.1 97.4 71 99.1 71 101V106.6C71 109.4 73.3 111.7 76.1 111.7H95.2C98 111.7 100.3 109.4 100.3 106.6V96.8C100.3 93.4 103.5 91.1 106.7 91.9C110.2 92.8 113.9 93.2 117.7 93.2C143.9 93.2 165 71.6 164.3 45.3C163.6 20.7 142.8 0.3 118.1 0Z" fill="#FF7900"/>
<path d="M46.6 0C20.9 0 0 20.9 0 46.6C0 72.3 20.9 93.2 46.6 93.2C72.3 93.2 93.2 72.3 93.2 46.6C93.2 20.9 72.4 0 46.6 0ZM46.6 64C37 64 29.2 56.2 29.2 46.6C29.2 37 37 29.2 46.6 29.2C56.2 29.2 64 37 64 46.6C64 56.2 56.2 64 46.6 64Z" fill="white"/>
</g>
<defs>
<clipPath id="clip0_1_2">
<rect width="479.6" height="111.7" fill="white"/>
</clipPath>
</defs>
</svg>
