<svg width="481" height="112" viewBox="0 0 481 112" fill="none" xmlns="http://www.w3.org/2000/svg">
<g clip-path="url(#clip0_0_3)">
<path d="M235.4 18.5L228.7 57.1H228.2L219.4 18.5H209L200.5 56.9H199.7L193.1 18.5H178.1L192.2 74.8H192.3H204.8L213.6 38.2H214.2L222.5 74.8H235.4L249.5 18.5H235.4Z" fill="white"/>
<path d="M268.9 18.5L247.5 74.8H261.5L264.79 64.6H284.71L288 74.8H302.6L281.2 18.5H268.9ZM274.7 32.6H275.1L281.59 53.3H268.03L274.7 32.6Z" fill="white"/>
<path d="M322.3 18.5H308.2V74.8H342.1V63H322.3V18.5Z" fill="white"/>
<path d="M365.4 18.5H351.3V74.8H385.2V63H365.4V18.5Z" fill="white"/>
<path d="M438.4 18.5V30.4H452.5V74.8H466.5V30.4H480.6V18.5H438.4Z" fill="white"/>
<path d="M393.5 74.8H431.3V63.6H407V51.9H422.5V40.8H407V29.8H431.3V18.5H393.5V74.8Z" fill="white"/>
<path d="M164.28 45.35C163.61 20.68 142.85 0.28 118.17 0C109.48 -0.1 101.35 2.21 94.36 6.26C91.78 7.75 91.07 11.17 92.81 13.59C96.26 18.39 98.96 23.75 100.79 29.5C101.8 32.7 105.61 33.73 108.45 31.93C112 29.68 116.42 28.68 121.13 29.6C127.66 30.87 133.08 36.04 134.57 42.53C137.19 53.93 128.6 64.04 117.65 64.04C114.24 64.04 111.07 63.05 108.4 61.34C105.58 59.54 101.78 60.68 100.77 63.87C96.29 77.92 86.5 89.59 73.75 96.54C72.08 97.45 70.99 99.14 70.99 101.04V106.62C70.99 109.42 73.26 111.69 76.06 111.69H95.19C97.99 111.69 100.26 109.42 100.26 106.62V96.86C100.26 93.51 103.43 91.19 106.68 91.99C110.2 92.85 113.87 93.31 117.65 93.31C143.85 93.31 165.01 71.71 164.29 45.35H164.28Z" fill="#EE771B"/>
<path d="M46.66 0C20.89 0 0 20.89 0 46.66C0 72.43 20.89 93.32 46.66 93.32C72.43 93.32 93.32 72.43 93.32 46.66C93.32 20.89 72.43 0 46.66 0ZM46.66 64.05C37.06 64.05 29.27 56.26 29.27 46.66C29.27 37.06 37.06 29.27 46.66 29.27C56.26 29.27 64.05 37.06 64.05 46.66C64.05 56.26 56.26 64.05 46.66 64.05Z" fill="white"/>
</g>
<defs>
<clipPath id="clip0_0_3">
<rect width="480.6" height="111.7" fill="white"/>
</clipPath>
</defs>
</svg>
